<?xml version="1.0" encoding="UTF-8" standalone="no"?>
<!DOCTYPE svg PUBLIC "-//W3C//DTD SVG 1.1//EN"
 "http://www.w3.org/Graphics/SVG/1.1/DTD/svg11.dtd">
<!-- Generated by graphviz version 2.36.0 (20140111.2315)
 -->
<!-- Title: ICornerResizerControl.h Pages: 1 -->
<svg width="2037pt" height="588pt"
 viewBox="0.00 0.00 2037.00 588.00" xmlns="http://www.w3.org/2000/svg" xmlns:xlink="http://www.w3.org/1999/xlink">
<g id="graph0" class="graph" transform="scale(1 1) rotate(0) translate(4 584)">
<title>ICornerResizerControl.h</title>
<polygon fill="white" stroke="none" points="-4,4 -4,-584 2033,-584 2033,4 -4,4"/>
<!-- Node1 -->
<g id="node1" class="node"><title>Node1</title>
<polygon fill="#bfbfbf" stroke="black" points="1480,-560.5 1480,-579.5 1602,-579.5 1602,-560.5 1480,-560.5"/>
<text text-anchor="middle" x="1541" y="-567.5" font-family="Helvetica,sans-Serif" font-size="10.00">ICornerResizerControl.h</text>
</g>
<!-- Node2 -->
<g id="node2" class="node"><title>Node2</title>
<g id="a_node2"><a xlink:href="_i_control_8h.html" target="_top" xlink:title="This file contains the base IControl implementation, along with some base classes for specific types ...">
<polygon fill="white" stroke="black" points="1511.5,-504.5 1511.5,-523.5 1570.5,-523.5 1570.5,-504.5 1511.5,-504.5"/>
<text text-anchor="middle" x="1541" y="-511.5" font-family="Helvetica,sans-Serif" font-size="10.00">IControl.h</text>
</a>
</g>
</g>
<!-- Node1&#45;&gt;Node2 -->
<g id="edge1" class="edge"><title>Node1&#45;&gt;Node2</title>
<path fill="none" stroke="midnightblue" d="M1541,-560.083C1541,-553.006 1541,-542.861 1541,-533.986"/>
<polygon fill="midnightblue" stroke="midnightblue" points="1544.5,-533.751 1541,-523.751 1537.5,-533.751 1544.5,-533.751"/>
</g>
<!-- Node3 -->
<g id="node3" class="node"><title>Node3</title>
<polygon fill="white" stroke="#bfbfbf" points="602,-0.5 602,-19.5 648,-19.5 648,-0.5 602,-0.5"/>
<text text-anchor="middle" x="625" y="-7.5" font-family="Helvetica,sans-Serif" font-size="10.00">cstring</text>
</g>
<!-- Node2&#45;&gt;Node3 -->
<g id="edge2" class="edge"><title>Node2&#45;&gt;Node3</title>
<path fill="none" stroke="midnightblue" d="M1511.25,-513.003C1340.3,-512.864 481.465,-510.051 221,-468 119.926,-451.682 0,-505.382 0,-403 0,-403 0,-403 0,-121 0,-60.3864 461.845,-22.6978 591.51,-13.311"/>
<polygon fill="midnightblue" stroke="midnightblue" points="591.915,-16.791 601.64,-12.5866 591.416,-9.80888 591.915,-16.791"/>
</g>
<!-- Node4 -->
<g id="node4" class="node"><title>Node4</title>
<polygon fill="white" stroke="#bfbfbf" points="1562.5,-0.5 1562.5,-19.5 1607.5,-19.5 1607.5,-0.5 1562.5,-0.5"/>
<text text-anchor="middle" x="1585" y="-7.5" font-family="Helvetica,sans-Serif" font-size="10.00">cstdlib</text>
</g>
<!-- Node2&#45;&gt;Node4 -->
<g id="edge3" class="edge"><title>Node2&#45;&gt;Node4</title>
<path fill="none" stroke="midnightblue" d="M1570.79,-512.693C1676.74,-510.81 2029,-497.447 2029,-403 2029,-403 2029,-403 2029,-121 2029,-36.2471 1720.34,-16.354 1617.73,-12.0824"/>
<polygon fill="midnightblue" stroke="midnightblue" points="1617.76,-8.58102 1607.63,-11.6853 1617.48,-15.5756 1617.76,-8.58102"/>
</g>
<!-- Node5 -->
<g id="node5" class="node"><title>Node5</title>
<g id="a_node5"><a xlink:href="_i_plug_platform_8h.html" target="_top" xlink:title="Include to get consistently named preprocessor macros for different platforms and logging functionali...">
<polygon fill="white" stroke="black" points="1543,-56.5 1543,-75.5 1627,-75.5 1627,-56.5 1543,-56.5"/>
<text text-anchor="middle" x="1585" y="-63.5" font-family="Helvetica,sans-Serif" font-size="10.00">IPlugPlatform.h</text>
</a>
</g>
</g>
<!-- Node2&#45;&gt;Node5 -->
<g id="edge4" class="edge"><title>Node2&#45;&gt;Node5</title>
<path fill="none" stroke="midnightblue" d="M1570.53,-512.144C1670.64,-508.454 1991,-489.859 1991,-403 1991,-403 1991,-403 1991,-177 1991,-146.775 1994.23,-131.337 1971,-112 1921.46,-70.7609 1730.81,-66.014 1637.31,-66.2581"/>
<polygon fill="midnightblue" stroke="midnightblue" points="1637.2,-62.7585 1627.22,-66.305 1637.24,-69.7584 1637.2,-62.7585"/>
</g>
<!-- Node6 -->
<g id="node6" class="node"><title>Node6</title>
<polygon fill="white" stroke="#bfbfbf" points="533,-56.5 533,-75.5 597,-75.5 597,-56.5 533,-56.5"/>
<text text-anchor="middle" x="565" y="-63.5" font-family="Helvetica,sans-Serif" font-size="10.00">wdlstring.h</text>
</g>
<!-- Node2&#45;&gt;Node6 -->
<g id="edge7" class="edge"><title>Node2&#45;&gt;Node6</title>
<path fill="none" stroke="midnightblue" d="M1511.31,-512.432C1300.49,-508.212 38,-479.733 38,-403 38,-403 38,-403 38,-177 38,-146.902 33.7371,-131.098 57,-112 74.9149,-97.2929 403.502,-76.5324 522.46,-69.4657"/>
<polygon fill="midnightblue" stroke="midnightblue" points="522.868,-72.9478 532.644,-68.8638 522.455,-65.96 522.868,-72.9478"/>
</g>
<!-- Node7 -->
<g id="node7" class="node"><title>Node7</title>
<polygon fill="white" stroke="#bfbfbf" points="1319.5,-112.5 1319.5,-131.5 1368.5,-131.5 1368.5,-112.5 1319.5,-112.5"/>
<text text-anchor="middle" x="1344" y="-119.5" font-family="Helvetica,sans-Serif" font-size="10.00">ptrlist.h</text>
</g>
<!-- Node2&#45;&gt;Node7 -->
<g id="edge8" class="edge"><title>Node2&#45;&gt;Node7</title>
<path fill="none" stroke="midnightblue" d="M1550.59,-504.376C1571.15,-484.787 1616.25,-435.279 1599,-392 1550.67,-270.762 1418.86,-172.781 1366.18,-137.306"/>
<polygon fill="midnightblue" stroke="midnightblue" points="1367.85,-134.213 1357.58,-131.6 1363.98,-140.046 1367.85,-134.213"/>
</g>
<!-- Node8 -->
<g id="node8" class="node"><title>Node8</title>
<g id="a_node8"><a xlink:href="_i_graphics_8h.html" target="_top" xlink:title="The lowest level base class of an IGraphics context. ">
<polygon fill="white" stroke="black" points="1373.5,-448.5 1373.5,-467.5 1440.5,-467.5 1440.5,-448.5 1373.5,-448.5"/>
<text text-anchor="middle" x="1407" y="-455.5" font-family="Helvetica,sans-Serif" font-size="10.00">IGraphics.h</text>
</a>
</g>
</g>
<!-- Node2&#45;&gt;Node8 -->
<g id="edge9" class="edge"><title>Node2&#45;&gt;Node8</title>
<path fill="none" stroke="midnightblue" d="M1519.77,-504.444C1497.62,-495.517 1462.68,-481.439 1437.56,-471.317"/>
<polygon fill="midnightblue" stroke="midnightblue" points="1438.72,-468.008 1428.13,-467.516 1436.1,-474.501 1438.72,-468.008"/>
</g>
<!-- Node5&#45;&gt;Node3 -->
<g id="edge5" class="edge"><title>Node5&#45;&gt;Node3</title>
<path fill="none" stroke="midnightblue" d="M1542.82,-62.6275C1381.31,-53.5422 803.909,-21.0637 658.452,-12.8817"/>
<polygon fill="midnightblue" stroke="midnightblue" points="658.538,-9.38105 648.357,-12.3138 658.144,-16.37 658.538,-9.38105"/>
</g>
<!-- Node5&#45;&gt;Node4 -->
<g id="edge6" class="edge"><title>Node5&#45;&gt;Node4</title>
<path fill="none" stroke="midnightblue" d="M1585,-56.083C1585,-49.0059 1585,-38.8611 1585,-29.9865"/>
<polygon fill="midnightblue" stroke="midnightblue" points="1588.5,-29.751 1585,-19.7511 1581.5,-29.7511 1588.5,-29.751"/>
</g>
<!-- Node9 -->
<g id="node9" class="node"><title>Node9</title>
<g id="a_node9"><a xlink:href="_i_plug_constants_8h.html" target="_top" xlink:title="IPlug Constant definitions, Types, magic numbers. ">
<polygon fill="white" stroke="black" points="863,-56.5 863,-75.5 955,-75.5 955,-56.5 863,-56.5"/>
<text text-anchor="middle" x="909" y="-63.5" font-family="Helvetica,sans-Serif" font-size="10.00">IPlugConstants.h</text>
</a>
</g>
</g>
<!-- Node8&#45;&gt;Node9 -->
<g id="edge10" class="edge"><title>Node8&#45;&gt;Node9</title>
<path fill="none" stroke="midnightblue" d="M1407,-448.442C1407,-429.936 1407,-384.812 1407,-347 1407,-347 1407,-347 1407,-289 1407,-209.211 1435.41,-166.351 1377,-112 1376.53,-111.564 1089.41,-84.1777 965.181,-72.3471"/>
<polygon fill="midnightblue" stroke="midnightblue" points="965.387,-68.851 955.1,-71.3872 964.723,-75.8195 965.387,-68.851"/>
</g>
<!-- Node10 -->
<g id="node10" class="node"><title>Node10</title>
<g id="a_node10"><a xlink:href="_i_plug_logger_8h.html" target="_top" xlink:title="IPlug logging a.k.a tracing functionality. ">
<polygon fill="white" stroke="black" points="488.5,-168.5 488.5,-187.5 565.5,-187.5 565.5,-168.5 488.5,-168.5"/>
<text text-anchor="middle" x="527" y="-175.5" font-family="Helvetica,sans-Serif" font-size="10.00">IPlugLogger.h</text>
</a>
</g>
</g>
<!-- Node8&#45;&gt;Node10 -->
<g id="edge11" class="edge"><title>Node8&#45;&gt;Node10</title>
<path fill="none" stroke="midnightblue" d="M1373.31,-455.881C1223.25,-450.461 623,-423.969 623,-347 623,-347 623,-347 623,-289 623,-245.543 579.943,-210.957 551.5,-192.851"/>
<polygon fill="midnightblue" stroke="midnightblue" points="553.209,-189.794 542.852,-187.561 549.557,-195.765 553.209,-189.794"/>
</g>
<!-- Node21 -->
<g id="node21" class="node"><title>Node21</title>
<g id="a_node21"><a xlink:href="_i_graphics_constants_8h_source.html" target="_top" xlink:title="IGraphicsConstants.h">
<polygon fill="white" stroke="black" points="1851,-112.5 1851,-131.5 1963,-131.5 1963,-112.5 1851,-112.5"/>
<text text-anchor="middle" x="1907" y="-119.5" font-family="Helvetica,sans-Serif" font-size="10.00">IGraphicsConstants.h</text>
</a>
</g>
</g>
<!-- Node8&#45;&gt;Node21 -->
<g id="edge32" class="edge"><title>Node8&#45;&gt;Node21</title>
<path fill="none" stroke="midnightblue" d="M1440.9,-453.061C1489.62,-446.748 1576.14,-432.912 1599,-412 1640.79,-373.772 1639,-347.64 1639,-291 1639,-291 1639,-291 1639,-233 1639,-187.153 1774.92,-150.817 1853.17,-133.699"/>
<polygon fill="midnightblue" stroke="midnightblue" points="1854.3,-137.035 1863.34,-131.51 1852.83,-130.192 1854.3,-137.035"/>
</g>
<!-- Node22 -->
<g id="node22" class="node"><title>Node22</title>
<g id="a_node22"><a xlink:href="_i_graphics_structs_8h_source.html" target="_top" xlink:title="IGraphicsStructs.h">
<polygon fill="white" stroke="black" points="1475,-168.5 1475,-187.5 1573,-187.5 1573,-168.5 1475,-168.5"/>
<text text-anchor="middle" x="1524" y="-175.5" font-family="Helvetica,sans-Serif" font-size="10.00">IGraphicsStructs.h</text>
</a>
</g>
</g>
<!-- Node8&#45;&gt;Node22 -->
<g id="edge34" class="edge"><title>Node8&#45;&gt;Node22</title>
<path fill="none" stroke="midnightblue" d="M1410.25,-448.449C1421.94,-417.777 1463.27,-310.52 1502,-224 1506.09,-214.859 1510.96,-204.835 1515.07,-196.572"/>
<polygon fill="midnightblue" stroke="midnightblue" points="1518.24,-198.051 1519.61,-187.545 1511.99,-194.906 1518.24,-198.051"/>
</g>
<!-- Node28 -->
<g id="node28" class="node"><title>Node28</title>
<g id="a_node28"><a xlink:href="_i_graphics_utilities_8h_source.html" target="_top" xlink:title="IGraphicsUtilities.h">
<polygon fill="white" stroke="black" points="1511,-224.5 1511,-243.5 1611,-243.5 1611,-224.5 1511,-224.5"/>
<text text-anchor="middle" x="1561" y="-231.5" font-family="Helvetica,sans-Serif" font-size="10.00">IGraphicsUtilities.h</text>
</a>
</g>
</g>
<!-- Node8&#45;&gt;Node28 -->
<g id="edge47" class="edge"><title>Node8&#45;&gt;Node28</title>
<path fill="none" stroke="midnightblue" d="M1426.62,-448.384C1442.22,-440.715 1463.72,-428.207 1478,-412 1521.12,-363.052 1546.28,-287.833 1556.14,-253.381"/>
<polygon fill="midnightblue" stroke="midnightblue" points="1559.52,-254.283 1558.81,-243.712 1552.77,-252.421 1559.52,-254.283"/>
</g>
<!-- Node29 -->
<g id="node29" class="node"><title>Node29</title>
<g id="a_node29"><a xlink:href="_i_graphics_popup_menu_8h.html" target="_top" xlink:title="A class for setting the contents of a pop up menu. ">
<polygon fill="white" stroke="black" points="1145.5,-168.5 1145.5,-187.5 1264.5,-187.5 1264.5,-168.5 1145.5,-168.5"/>
<text text-anchor="middle" x="1205" y="-175.5" font-family="Helvetica,sans-Serif" font-size="10.00">IGraphicsPopupMenu.h</text>
</a>
</g>
</g>
<!-- Node8&#45;&gt;Node29 -->
<g id="edge50" class="edge"><title>Node8&#45;&gt;Node29</title>
<path fill="none" stroke="midnightblue" d="M1386.36,-448.421C1353.5,-433.231 1293,-398.293 1293,-347 1293,-347 1293,-347 1293,-289 1293,-247.032 1253.46,-211.902 1227.39,-193.3"/>
<polygon fill="midnightblue" stroke="midnightblue" points="1229.36,-190.412 1219.14,-187.639 1225.4,-196.183 1229.36,-190.412"/>
</g>
<!-- Node30 -->
<g id="node30" class="node"><title>Node30</title>
<g id="a_node30"><a xlink:href="_i_graphics_editor_delegate_8h.html" target="_top" xlink:title="An editor delgate base class for a SOMETHING that uses IGraphics for it&#39;s UI. ">
<polygon fill="white" stroke="black" points="1133.5,-392.5 1133.5,-411.5 1264.5,-411.5 1264.5,-392.5 1133.5,-392.5"/>
<text text-anchor="middle" x="1199" y="-399.5" font-family="Helvetica,sans-Serif" font-size="10.00">IGraphicsEditorDelegate.h</text>
</a>
</g>
</g>
<!-- Node8&#45;&gt;Node30 -->
<g id="edge57" class="edge"><title>Node8&#45;&gt;Node30</title>
<path fill="none" stroke="midnightblue" d="M1374.04,-448.444C1338.21,-439.142 1280.84,-424.246 1241.61,-414.062"/>
<polygon fill="midnightblue" stroke="midnightblue" points="1242.36,-410.642 1231.8,-411.516 1240.6,-417.417 1242.36,-410.642"/>
</g>
<!-- Node37 -->
<g id="node37" class="node"><title>Node37</title>
<polygon fill="white" stroke="#bfbfbf" points="1531.5,-392.5 1531.5,-411.5 1590.5,-411.5 1590.5,-392.5 1531.5,-392.5"/>
<text text-anchor="middle" x="1561" y="-399.5" font-family="Helvetica,sans-Serif" font-size="10.00">heapbuf.h</text>
</g>
<!-- Node8&#45;&gt;Node37 -->
<g id="edge83" class="edge"><title>Node8&#45;&gt;Node37</title>
<path fill="none" stroke="midnightblue" d="M1431.4,-448.444C1457.2,-439.399 1498.08,-425.064 1527.02,-414.916"/>
<polygon fill="midnightblue" stroke="midnightblue" points="1528.43,-418.128 1536.71,-411.516 1526.12,-411.523 1528.43,-418.128"/>
</g>
<!-- Node38 -->
<g id="node38" class="node"><title>Node38</title>
<polygon fill="white" stroke="#bfbfbf" points="1003.5,-392.5 1003.5,-411.5 1044.5,-411.5 1044.5,-392.5 1003.5,-392.5"/>
<text text-anchor="middle" x="1024" y="-399.5" font-family="Helvetica,sans-Serif" font-size="10.00">stack</text>
</g>
<!-- Node8&#45;&gt;Node38 -->
<g id="edge84" class="edge"><title>Node8&#45;&gt;Node38</title>
<path fill="none" stroke="midnightblue" d="M1373.11,-454.547C1311.52,-449.689 1177.07,-437.241 1054.47,-411.748"/>
<polygon fill="midnightblue" stroke="midnightblue" points="1055.05,-408.293 1044.54,-409.648 1053.6,-415.141 1055.05,-408.293"/>
</g>
<!-- Node39 -->
<g id="node39" class="node"><title>Node39</title>
<polygon fill="white" stroke="#bfbfbf" points="1063,-392.5 1063,-411.5 1115,-411.5 1115,-392.5 1063,-392.5"/>
<text text-anchor="middle" x="1089" y="-399.5" font-family="Helvetica,sans-Serif" font-size="10.00">memory</text>
</g>
<!-- Node8&#45;&gt;Node39 -->
<g id="edge85" class="edge"><title>Node8&#45;&gt;Node39</title>
<path fill="none" stroke="midnightblue" d="M1373.27,-452.681C1321.8,-445.865 1220.41,-431.548 1125.11,-412.073"/>
<polygon fill="midnightblue" stroke="midnightblue" points="1125.81,-408.645 1115.31,-410.048 1124.4,-415.5 1125.81,-408.645"/>
</g>
<!-- Node10&#45;&gt;Node3 -->
<g id="edge16" class="edge"><title>Node10&#45;&gt;Node3</title>
<path fill="none" stroke="midnightblue" d="M488.447,-176.251C422.468,-174.066 292.261,-165.507 264,-132 258.269,-125.205 260.178,-120.025 264,-112 280.984,-76.3426 296.894,-72.0087 333,-56 420.662,-17.1319 536.014,-11.0341 591.863,-10.5723"/>
<polygon fill="midnightblue" stroke="midnightblue" points="591.905,-14.0723 601.896,-10.546 591.887,-7.07231 591.905,-14.0723"/>
</g>
<!-- Node10&#45;&gt;Node6 -->
<g id="edge19" class="edge"><title>Node10&#45;&gt;Node6</title>
<path fill="none" stroke="midnightblue" d="M521.747,-168.212C514.793,-155.356 504.362,-130.898 513,-112 518.777,-99.3602 530.052,-88.911 540.631,-81.2737"/>
<polygon fill="midnightblue" stroke="midnightblue" points="542.849,-84.0009 549.217,-75.5333 538.958,-78.1817 542.849,-84.0009"/>
</g>
<!-- Node10&#45;&gt;Node9 -->
<g id="edge21" class="edge"><title>Node10&#45;&gt;Node9</title>
<path fill="none" stroke="midnightblue" d="M551.999,-168.348C575.928,-159.841 612.883,-146.114 644,-132 661.381,-124.116 664.008,-118.366 682,-112 738.458,-92.023 806.131,-80.0532 852.817,-73.5389"/>
<polygon fill="midnightblue" stroke="midnightblue" points="853.303,-77.0051 862.742,-72.1921 852.362,-70.0687 853.303,-77.0051"/>
</g>
<!-- Node11 -->
<g id="node11" class="node"><title>Node11</title>
<polygon fill="white" stroke="#bfbfbf" points="781.5,-56.5 781.5,-75.5 824.5,-75.5 824.5,-56.5 781.5,-56.5"/>
<text text-anchor="middle" x="803" y="-63.5" font-family="Helvetica,sans-Serif" font-size="10.00">cstdio</text>
</g>
<!-- Node10&#45;&gt;Node11 -->
<g id="edge12" class="edge"><title>Node10&#45;&gt;Node11</title>
<path fill="none" stroke="midnightblue" d="M526.829,-168.349C527.057,-154.287 529.703,-126.581 546,-112 578.801,-82.653 709.898,-71.9301 771.155,-68.4669"/>
<polygon fill="midnightblue" stroke="midnightblue" points="771.599,-71.9483 781.397,-67.9191 771.225,-64.9583 771.599,-71.9483"/>
</g>
<!-- Node12 -->
<g id="node12" class="node"><title>Node12</title>
<polygon fill="white" stroke="#bfbfbf" points="342,-56.5 342,-75.5 388,-75.5 388,-56.5 342,-56.5"/>
<text text-anchor="middle" x="365" y="-63.5" font-family="Helvetica,sans-Serif" font-size="10.00">cctype</text>
</g>
<!-- Node10&#45;&gt;Node12 -->
<g id="edge13" class="edge"><title>Node10&#45;&gt;Node12</title>
<path fill="none" stroke="midnightblue" d="M488.481,-175.99C424.352,-173.406 300.046,-164.259 273,-132 251.958,-106.903 297.817,-86.825 332.052,-75.9398"/>
<polygon fill="midnightblue" stroke="midnightblue" points="333.223,-79.2424 341.775,-72.989 331.19,-72.544 333.223,-79.2424"/>
</g>
<!-- Node13 -->
<g id="node13" class="node"><title>Node13</title>
<polygon fill="white" stroke="#bfbfbf" points="282.5,-112.5 282.5,-131.5 331.5,-131.5 331.5,-112.5 282.5,-112.5"/>
<text text-anchor="middle" x="307" y="-119.5" font-family="Helvetica,sans-Serif" font-size="10.00">cstdarg</text>
</g>
<!-- Node10&#45;&gt;Node13 -->
<g id="edge14" class="edge"><title>Node10&#45;&gt;Node13</title>
<path fill="none" stroke="midnightblue" d="M490.018,-168.447C454.302,-160.11 398.443,-146.87 341.698,-132.387"/>
<polygon fill="midnightblue" stroke="midnightblue" points="342.401,-128.954 331.845,-129.862 340.663,-135.735 342.401,-128.954"/>
</g>
<!-- Node14 -->
<g id="node14" class="node"><title>Node14</title>
<polygon fill="white" stroke="#bfbfbf" points="769,-112.5 769,-131.5 815,-131.5 815,-112.5 769,-112.5"/>
<text text-anchor="middle" x="792" y="-119.5" font-family="Helvetica,sans-Serif" font-size="10.00">cstdint</text>
</g>
<!-- Node10&#45;&gt;Node14 -->
<g id="edge15" class="edge"><title>Node10&#45;&gt;Node14</title>
<path fill="none" stroke="midnightblue" d="M565.774,-170.393C611.994,-162.306 691.471,-147.735 759,-132 759.101,-131.976 759.203,-131.953 759.304,-131.929"/>
<polygon fill="midnightblue" stroke="midnightblue" points="760.122,-135.332 768.977,-129.515 758.427,-128.541 760.122,-135.332"/>
</g>
<!-- Node15 -->
<g id="node15" class="node"><title>Node15</title>
<polygon fill="white" stroke="#bfbfbf" points="349.5,-112.5 349.5,-131.5 390.5,-131.5 390.5,-112.5 349.5,-112.5"/>
<text text-anchor="middle" x="370" y="-119.5" font-family="Helvetica,sans-Serif" font-size="10.00">ctime</text>
</g>
<!-- Node10&#45;&gt;Node15 -->
<g id="edge17" class="edge"><title>Node10&#45;&gt;Node15</title>
<path fill="none" stroke="midnightblue" d="M502.123,-168.444C474.588,-158.973 430.193,-143.703 400.563,-133.512"/>
<polygon fill="midnightblue" stroke="midnightblue" points="401.344,-130.08 390.75,-130.137 399.068,-136.699 401.344,-130.08"/>
</g>
<!-- Node16 -->
<g id="node16" class="node"><title>Node16</title>
<polygon fill="white" stroke="#bfbfbf" points="909.5,-112.5 909.5,-131.5 958.5,-131.5 958.5,-112.5 909.5,-112.5"/>
<text text-anchor="middle" x="934" y="-119.5" font-family="Helvetica,sans-Serif" font-size="10.00">cassert</text>
</g>
<!-- Node10&#45;&gt;Node16 -->
<g id="edge18" class="edge"><title>Node10&#45;&gt;Node16</title>
<path fill="none" stroke="midnightblue" d="M565.657,-171.871C644.683,-161.386 823.641,-137.642 899.247,-127.611"/>
<polygon fill="midnightblue" stroke="midnightblue" points="899.756,-131.074 909.208,-126.289 898.835,-124.135 899.756,-131.074"/>
</g>
<!-- Node17 -->
<g id="node17" class="node"><title>Node17</title>
<polygon fill="white" stroke="#bfbfbf" points="409,-112.5 409,-131.5 461,-131.5 461,-112.5 409,-112.5"/>
<text text-anchor="middle" x="435" y="-119.5" font-family="Helvetica,sans-Serif" font-size="10.00">mutex.h</text>
</g>
<!-- Node10&#45;&gt;Node17 -->
<g id="edge20" class="edge"><title>Node10&#45;&gt;Node17</title>
<path fill="none" stroke="midnightblue" d="M512.219,-168.324C497.733,-159.822 475.427,-146.729 458.507,-136.797"/>
<polygon fill="midnightblue" stroke="midnightblue" points="460.141,-133.698 449.745,-131.655 456.597,-139.735 460.141,-133.698"/>
</g>
<!-- Node18 -->
<g id="node18" class="node"><title>Node18</title>
<g id="a_node18"><a xlink:href="_i_plug_utilities_8h.html" target="_top" xlink:title="Utility functions and macros. ">
<polygon fill="white" stroke="black" points="555,-112.5 555,-131.5 635,-131.5 635,-112.5 555,-112.5"/>
<text text-anchor="middle" x="595" y="-119.5" font-family="Helvetica,sans-Serif" font-size="10.00">IPlugUtilities.h</text>
</a>
</g>
</g>
<!-- Node10&#45;&gt;Node18 -->
<g id="edge22" class="edge"><title>Node10&#45;&gt;Node18</title>
<path fill="none" stroke="midnightblue" d="M537.925,-168.324C548.175,-160.185 563.721,-147.839 576.001,-138.087"/>
<polygon fill="midnightblue" stroke="midnightblue" points="578.221,-140.794 583.876,-131.834 573.868,-135.312 578.221,-140.794"/>
</g>
<!-- Node18&#45;&gt;Node3 -->
<g id="edge27" class="edge"><title>Node18&#45;&gt;Node3</title>
<path fill="none" stroke="midnightblue" d="M597.354,-112.368C602.217,-94.5366 613.465,-53.2953 620.017,-29.2717"/>
<polygon fill="midnightblue" stroke="midnightblue" points="623.402,-30.16 622.657,-19.5914 616.649,-28.3181 623.402,-30.16"/>
</g>
<!-- Node18&#45;&gt;Node4 -->
<g id="edge26" class="edge"><title>Node18&#45;&gt;Node4</title>
<path fill="none" stroke="midnightblue" d="M613.073,-112.312C644.523,-97.6663 711.728,-68.4449 772,-56 925.003,-24.408 1419.88,-13.8231 1552.21,-11.521"/>
<polygon fill="midnightblue" stroke="midnightblue" points="1552.55,-15.0158 1562.49,-11.3462 1552.44,-8.01676 1552.55,-15.0158"/>
</g>
<!-- Node18&#45;&gt;Node5 -->
<g id="edge31" class="edge"><title>Node18&#45;&gt;Node5</title>
<path fill="none" stroke="midnightblue" d="M635.242,-116.385C649.941,-114.819 666.708,-113.171 682,-112 1004.61,-87.2926 1393.14,-73.1985 1532.28,-68.6449"/>
<polygon fill="midnightblue" stroke="midnightblue" points="1532.75,-72.1313 1542.64,-68.3084 1532.53,-65.135 1532.75,-72.1313"/>
</g>
<!-- Node18&#45;&gt;Node6 -->
<g id="edge29" class="edge"><title>Node18&#45;&gt;Node6</title>
<path fill="none" stroke="midnightblue" d="M590.046,-112.083C585.896,-104.613 579.847,-93.7244 574.733,-84.5199"/>
<polygon fill="midnightblue" stroke="midnightblue" points="577.778,-82.7929 569.862,-75.7511 571.659,-86.1924 577.778,-82.7929"/>
</g>
<!-- Node18&#45;&gt;Node9 -->
<g id="edge30" class="edge"><title>Node18&#45;&gt;Node9</title>
<path fill="none" stroke="midnightblue" d="M635.087,-114.106C690.294,-104.612 789.994,-87.4659 852.673,-76.6868"/>
<polygon fill="midnightblue" stroke="midnightblue" points="853.52,-80.0925 862.783,-74.9482 852.334,-73.1938 853.52,-80.0925"/>
</g>
<!-- Node18&#45;&gt;Node11 -->
<g id="edge25" class="edge"><title>Node18&#45;&gt;Node11</title>
<path fill="none" stroke="midnightblue" d="M627.958,-112.444C667.391,-102.206 732.926,-85.1924 771.638,-75.1421"/>
<polygon fill="midnightblue" stroke="midnightblue" points="772.536,-78.525 781.336,-72.6243 770.777,-71.7496 772.536,-78.525"/>
</g>
<!-- Node18&#45;&gt;Node12 -->
<g id="edge28" class="edge"><title>Node18&#45;&gt;Node12</title>
<path fill="none" stroke="midnightblue" d="M558.556,-112.444C514.44,-102.086 440.779,-84.7916 398.183,-74.7907"/>
<polygon fill="midnightblue" stroke="midnightblue" points="398.849,-71.352 388.314,-72.4736 397.249,-78.1667 398.849,-71.352"/>
</g>
<!-- Node19 -->
<g id="node19" class="node"><title>Node19</title>
<polygon fill="white" stroke="#bfbfbf" points="1013,-56.5 1013,-75.5 1069,-75.5 1069,-56.5 1013,-56.5"/>
<text text-anchor="middle" x="1041" y="-63.5" font-family="Helvetica,sans-Serif" font-size="10.00">algorithm</text>
</g>
<!-- Node18&#45;&gt;Node19 -->
<g id="edge23" class="edge"><title>Node18&#45;&gt;Node19</title>
<path fill="none" stroke="midnightblue" d="M635.366,-116.113C720.909,-105.755 919.412,-81.7214 1002.91,-71.6119"/>
<polygon fill="midnightblue" stroke="midnightblue" points="1003.47,-75.07 1012.97,-70.3933 1002.63,-68.1207 1003.47,-75.07"/>
</g>
<!-- Node20 -->
<g id="node20" class="node"><title>Node20</title>
<polygon fill="white" stroke="#bfbfbf" points="1243,-56.5 1243,-75.5 1287,-75.5 1287,-56.5 1243,-56.5"/>
<text text-anchor="middle" x="1265" y="-63.5" font-family="Helvetica,sans-Serif" font-size="10.00">cmath</text>
</g>
<!-- Node18&#45;&gt;Node20 -->
<g id="edge24" class="edge"><title>Node18&#45;&gt;Node20</title>
<path fill="none" stroke="midnightblue" d="M635.261,-116.614C649.962,-115.071 666.726,-113.379 682,-112 891.643,-93.0688 1144.15,-75.2828 1232.55,-69.2066"/>
<polygon fill="midnightblue" stroke="midnightblue" points="1233.01,-72.6839 1242.74,-68.5082 1232.53,-65.7003 1233.01,-72.6839"/>
</g>
<!-- Node21&#45;&gt;Node5 -->
<g id="edge33" class="edge"><title>Node21&#45;&gt;Node5</title>
<path fill="none" stroke="midnightblue" d="M1855.98,-112.444C1796.13,-102.407 1697.45,-85.8582 1637.13,-75.7423"/>
<polygon fill="midnightblue" stroke="midnightblue" points="1637.5,-72.2559 1627.06,-74.0537 1636.34,-79.1595 1637.5,-72.2559"/>
</g>
<!-- Node22&#45;&gt;Node5 -->
<g id="edge45" class="edge"><title>Node22&#45;&gt;Node5</title>
<path fill="none" stroke="midnightblue" d="M1573.31,-169.754C1651.45,-158.158 1795.35,-136.292 1799,-132 1845.26,-77.5574 1714.48,-67.7963 1637.25,-66.6126"/>
<polygon fill="midnightblue" stroke="midnightblue" points="1637.23,-63.1123 1627.19,-66.5018 1637.16,-70.1119 1637.23,-63.1123"/>
</g>
<!-- Node22&#45;&gt;Node6 -->
<g id="edge42" class="edge"><title>Node22&#45;&gt;Node6</title>
<path fill="none" stroke="midnightblue" d="M1509.19,-168.273C1483.38,-153.567 1428.01,-124.258 1377,-112 1339.3,-102.941 768.381,-76.2932 607.126,-68.9136"/>
<polygon fill="midnightblue" stroke="midnightblue" points="607.256,-65.416 597.107,-68.4558 606.937,-72.4087 607.256,-65.416"/>
</g>
<!-- Node22&#45;&gt;Node7 -->
<g id="edge43" class="edge"><title>Node22&#45;&gt;Node7</title>
<path fill="none" stroke="midnightblue" d="M1495.48,-168.444C1463.77,-158.93 1412.55,-143.564 1378.58,-133.373"/>
<polygon fill="midnightblue" stroke="midnightblue" points="1379.21,-129.91 1368.63,-130.388 1377.2,-136.614 1379.21,-129.91"/>
</g>
<!-- Node22&#45;&gt;Node16 -->
<g id="edge36" class="edge"><title>Node22&#45;&gt;Node16</title>
<path fill="none" stroke="midnightblue" d="M1474.96,-172.512C1358.77,-161.878 1068.94,-135.351 968.737,-126.179"/>
<polygon fill="midnightblue" stroke="midnightblue" points="968.834,-122.674 958.556,-125.248 968.196,-129.644 968.834,-122.674"/>
</g>
<!-- Node22&#45;&gt;Node19 -->
<g id="edge38" class="edge"><title>Node22&#45;&gt;Node19</title>
<path fill="none" stroke="midnightblue" d="M1517.22,-168.423C1505.22,-153.946 1478.68,-124.971 1449,-112 1383.11,-83.2089 1167.58,-71.8465 1079.27,-68.3257"/>
<polygon fill="midnightblue" stroke="midnightblue" points="1079.27,-64.8234 1069.14,-67.9345 1079,-71.8182 1079.27,-64.8234"/>
</g>
<!-- Node22&#45;&gt;Node20 -->
<g id="edge35" class="edge"><title>Node22&#45;&gt;Node20</title>
<path fill="none" stroke="midnightblue" d="M1573.21,-169.449C1641.9,-158.675 1758.87,-139.377 1765,-132 1770.68,-125.162 1771,-118.561 1765,-112 1749.15,-94.6649 1405.45,-74.6156 1297.29,-68.7154"/>
<polygon fill="midnightblue" stroke="midnightblue" points="1297.46,-65.2198 1287.28,-68.1737 1297.08,-72.2095 1297.46,-65.2198"/>
</g>
<!-- Node22&#45;&gt;Node21 -->
<g id="edge46" class="edge"><title>Node22&#45;&gt;Node21</title>
<path fill="none" stroke="midnightblue" d="M1573.18,-169.964C1577.85,-169.299 1582.51,-168.636 1587,-168 1674.79,-155.557 1776.15,-141.326 1840.86,-132.258"/>
<polygon fill="midnightblue" stroke="midnightblue" points="1841.51,-135.702 1850.92,-130.848 1840.53,-128.769 1841.51,-135.702"/>
</g>
<!-- Node23 -->
<g id="node23" class="node"><title>Node23</title>
<polygon fill="white" stroke="#bfbfbf" points="691.5,-112.5 691.5,-131.5 750.5,-131.5 750.5,-112.5 691.5,-112.5"/>
<text text-anchor="middle" x="721" y="-119.5" font-family="Helvetica,sans-Serif" font-size="10.00">functional</text>
</g>
<!-- Node22&#45;&gt;Node23 -->
<g id="edge37" class="edge"><title>Node22&#45;&gt;Node23</title>
<path fill="none" stroke="midnightblue" d="M1474.86,-175.187C1331.95,-169.746 917.255,-152.728 760.65,-131.784"/>
<polygon fill="midnightblue" stroke="midnightblue" points="761.101,-128.313 750.713,-130.398 760.134,-135.246 761.101,-128.313"/>
</g>
<!-- Node24 -->
<g id="node24" class="node"><title>Node24</title>
<polygon fill="white" stroke="#bfbfbf" points="1501.5,-112.5 1501.5,-131.5 1552.5,-131.5 1552.5,-112.5 1501.5,-112.5"/>
<text text-anchor="middle" x="1527" y="-119.5" font-family="Helvetica,sans-Serif" font-size="10.00">numeric</text>
</g>
<!-- Node22&#45;&gt;Node24 -->
<g id="edge39" class="edge"><title>Node22&#45;&gt;Node24</title>
<path fill="none" stroke="midnightblue" d="M1524.5,-168.083C1524.89,-161.006 1525.45,-150.861 1525.95,-141.986"/>
<polygon fill="midnightblue" stroke="midnightblue" points="1529.45,-141.93 1526.51,-131.751 1522.46,-141.542 1529.45,-141.93"/>
</g>
<!-- Node25 -->
<g id="node25" class="node"><title>Node25</title>
<polygon fill="white" stroke="#bfbfbf" points="1571,-112.5 1571,-131.5 1617,-131.5 1617,-112.5 1571,-112.5"/>
<text text-anchor="middle" x="1594" y="-119.5" font-family="Helvetica,sans-Serif" font-size="10.00">chrono</text>
</g>
<!-- Node22&#45;&gt;Node25 -->
<g id="edge40" class="edge"><title>Node22&#45;&gt;Node25</title>
<path fill="none" stroke="midnightblue" d="M1535.25,-168.324C1545.8,-160.185 1561.8,-147.839 1574.44,-138.087"/>
<polygon fill="midnightblue" stroke="midnightblue" points="1576.77,-140.713 1582.55,-131.834 1572.49,-135.171 1576.77,-140.713"/>
</g>
<!-- Node26 -->
<g id="node26" class="node"><title>Node26</title>
<polygon fill="white" stroke="#bfbfbf" points="1635.5,-112.5 1635.5,-131.5 1676.5,-131.5 1676.5,-112.5 1635.5,-112.5"/>
<text text-anchor="middle" x="1656" y="-119.5" font-family="Helvetica,sans-Serif" font-size="10.00">string</text>
</g>
<!-- Node22&#45;&gt;Node26 -->
<g id="edge41" class="edge"><title>Node22&#45;&gt;Node26</title>
<path fill="none" stroke="midnightblue" d="M1544.92,-168.444C1566.74,-159.517 1601.15,-145.439 1625.89,-135.317"/>
<polygon fill="midnightblue" stroke="midnightblue" points="1627.25,-138.542 1635.18,-131.516 1624.6,-132.063 1627.25,-138.542"/>
</g>
<!-- Node27 -->
<g id="node27" class="node"><title>Node27</title>
<polygon fill="white" stroke="#bfbfbf" points="1695,-112.5 1695,-131.5 1757,-131.5 1757,-112.5 1695,-112.5"/>
<text text-anchor="middle" x="1726" y="-119.5" font-family="Helvetica,sans-Serif" font-size="10.00">nanosvg.h</text>
</g>
<!-- Node22&#45;&gt;Node27 -->
<g id="edge44" class="edge"><title>Node22&#45;&gt;Node27</title>
<path fill="none" stroke="midnightblue" d="M1556.01,-168.444C1590.93,-159.107 1646.94,-144.134 1685.05,-133.948"/>
<polygon fill="midnightblue" stroke="midnightblue" points="1686.05,-137.303 1694.81,-131.339 1684.24,-130.54 1686.05,-137.303"/>
</g>
<!-- Node28&#45;&gt;Node21 -->
<g id="edge48" class="edge"><title>Node28&#45;&gt;Node21</title>
<path fill="none" stroke="midnightblue" d="M1566.86,-224.104C1576.89,-209.69 1598.81,-181.49 1625,-168 1643.85,-158.29 1763.43,-141.463 1840.7,-131.366"/>
<polygon fill="midnightblue" stroke="midnightblue" points="1841.38,-134.808 1850.84,-130.048 1840.47,-127.867 1841.38,-134.808"/>
</g>
<!-- Node28&#45;&gt;Node22 -->
<g id="edge49" class="edge"><title>Node28&#45;&gt;Node22</title>
<path fill="none" stroke="midnightblue" d="M1554.89,-224.083C1549.72,-216.534 1542.15,-205.495 1535.81,-196.23"/>
<polygon fill="midnightblue" stroke="midnightblue" points="1538.54,-194.022 1530,-187.751 1532.76,-197.979 1538.54,-194.022"/>
</g>
<!-- Node29&#45;&gt;Node3 -->
<g id="edge52" class="edge"><title>Node29&#45;&gt;Node3</title>
<path fill="none" stroke="midnightblue" d="M1207.19,-168.417C1212.31,-146.165 1222.35,-86.2466 1191,-56 1152.56,-18.9159 773.522,-12.3696 658.15,-11.2339"/>
<polygon fill="midnightblue" stroke="midnightblue" points="658.166,-7.73402 648.134,-11.1426 658.102,-14.7337 658.166,-7.73402"/>
</g>
<!-- Node29&#45;&gt;Node6 -->
<g id="edge55" class="edge"><title>Node29&#45;&gt;Node6</title>
<path fill="none" stroke="midnightblue" d="M1163.6,-168.442C1129.51,-160.768 1080.27,-148.225 1039,-132 1021.24,-125.017 1019.27,-117.524 1001,-112 927.985,-89.9198 701.928,-74.8244 607.318,-69.3157"/>
<polygon fill="midnightblue" stroke="midnightblue" points="607.431,-65.8166 597.247,-68.7368 607.029,-72.805 607.431,-65.8166"/>
</g>
<!-- Node29&#45;&gt;Node7 -->
<g id="edge56" class="edge"><title>Node29&#45;&gt;Node7</title>
<path fill="none" stroke="midnightblue" d="M1227.02,-168.444C1250.1,-159.478 1286.56,-145.314 1312.64,-135.183"/>
<polygon fill="midnightblue" stroke="midnightblue" points="1314.02,-138.4 1322.08,-131.516 1311.49,-131.875 1314.02,-138.4"/>
</g>
<!-- Node29&#45;&gt;Node11 -->
<g id="edge53" class="edge"><title>Node29&#45;&gt;Node11</title>
<path fill="none" stroke="midnightblue" d="M1186.47,-168.436C1156.21,-154.747 1094.01,-127.868 1039,-112 1019.58,-106.398 894.236,-83.4748 834.531,-72.6767"/>
<polygon fill="midnightblue" stroke="midnightblue" points="834.987,-69.2024 824.524,-70.8692 833.743,-76.091 834.987,-69.2024"/>
</g>
<!-- Node29&#45;&gt;Node16 -->
<g id="edge54" class="edge"><title>Node29&#45;&gt;Node16</title>
<path fill="none" stroke="midnightblue" d="M1162.06,-168.444C1108.41,-157.754 1017.69,-139.677 968.392,-129.853"/>
<polygon fill="midnightblue" stroke="midnightblue" points="969.02,-126.409 958.528,-127.888 967.652,-133.274 969.02,-126.409"/>
</g>
<!-- Node29&#45;&gt;Node20 -->
<g id="edge51" class="edge"><title>Node29&#45;&gt;Node20</title>
<path fill="none" stroke="midnightblue" d="M1209.71,-168.368C1219.52,-150.376 1242.34,-108.55 1255.39,-84.6267"/>
<polygon fill="midnightblue" stroke="midnightblue" points="1258.6,-86.0464 1260.31,-75.5914 1252.45,-82.6944 1258.6,-86.0464"/>
</g>
<!-- Node31 -->
<g id="node31" class="node"><title>Node31</title>
<g id="a_node31"><a xlink:href="_i_plug_editor_delegate_8h.html" target="_top" xlink:title="This pure virtual interface delegates communication in both directions between a UI editor and someth...">
<polygon fill="white" stroke="black" points="928,-336.5 928,-355.5 1040,-355.5 1040,-336.5 928,-336.5"/>
<text text-anchor="middle" x="984" y="-343.5" font-family="Helvetica,sans-Serif" font-size="10.00">IPlugEditorDelegate.h</text>
</a>
</g>
</g>
<!-- Node30&#45;&gt;Node31 -->
<g id="edge58" class="edge"><title>Node30&#45;&gt;Node31</title>
<path fill="none" stroke="midnightblue" d="M1164.93,-392.444C1127.82,-383.122 1068.34,-368.183 1027.79,-357.997"/>
<polygon fill="midnightblue" stroke="midnightblue" points="1028.46,-354.558 1017.91,-355.516 1026.75,-361.347 1028.46,-354.558"/>
</g>
<!-- Node31&#45;&gt;Node3 -->
<g id="edge60" class="edge"><title>Node31&#45;&gt;Node3</title>
<path fill="none" stroke="midnightblue" d="M1015.41,-336.414C1034.2,-329.623 1056.9,-318.188 1070,-300 1133.39,-211.958 1159.69,-126.235 1077,-56 1045.21,-29.0002 757.32,-15.8948 658.285,-12.1572"/>
<polygon fill="midnightblue" stroke="midnightblue" points="658.356,-8.65754 648.233,-11.7858 658.097,-15.6528 658.356,-8.65754"/>
</g>
<!-- Node31&#45;&gt;Node7 -->
<g id="edge62" class="edge"><title>Node31&#45;&gt;Node7</title>
<path fill="none" stroke="midnightblue" d="M1040.41,-336.851C1078,-330.093 1127.86,-318.53 1169,-300 1248.48,-264.202 1281.68,-260.548 1330,-188 1339.1,-174.339 1342.41,-155.801 1343.55,-142.018"/>
<polygon fill="midnightblue" stroke="midnightblue" points="1347.06,-141.939 1344.09,-131.771 1340.07,-141.576 1347.06,-141.939"/>
</g>
<!-- Node31&#45;&gt;Node16 -->
<g id="edge59" class="edge"><title>Node31&#45;&gt;Node16</title>
<path fill="none" stroke="midnightblue" d="M981.833,-336.387C979.571,-327.34 975.949,-312.691 973,-300 959.622,-242.424 944.877,-174.039 937.976,-141.711"/>
<polygon fill="midnightblue" stroke="midnightblue" points="941.383,-140.908 935.876,-131.856 934.537,-142.366 941.383,-140.908"/>
</g>
<!-- Node32 -->
<g id="node32" class="node"><title>Node32</title>
<polygon fill="white" stroke="#bfbfbf" points="849.5,-280.5 849.5,-299.5 898.5,-299.5 898.5,-280.5 849.5,-280.5"/>
<text text-anchor="middle" x="874" y="-287.5" font-family="Helvetica,sans-Serif" font-size="10.00">stdint.h</text>
</g>
<!-- Node31&#45;&gt;Node32 -->
<g id="edge61" class="edge"><title>Node31&#45;&gt;Node32</title>
<path fill="none" stroke="midnightblue" d="M966.327,-336.324C948.606,-327.625 921.097,-314.12 900.712,-304.113"/>
<polygon fill="midnightblue" stroke="midnightblue" points="902.149,-300.919 891.63,-299.655 899.064,-307.203 902.149,-300.919"/>
</g>
<!-- Node33 -->
<g id="node33" class="node"><title>Node33</title>
<g id="a_node33"><a xlink:href="_i_plug_parameter_8h.html" target="_top" xlink:title="IPlug&#39;s parameter class. ">
<polygon fill="white" stroke="black" points="255,-168.5 255,-187.5 347,-187.5 347,-168.5 255,-168.5"/>
<text text-anchor="middle" x="301" y="-175.5" font-family="Helvetica,sans-Serif" font-size="10.00">IPlugParameter.h</text>
</a>
</g>
</g>
<!-- Node31&#45;&gt;Node33 -->
<g id="edge63" class="edge"><title>Node31&#45;&gt;Node33</title>
<path fill="none" stroke="midnightblue" d="M948.717,-336.425C834.221,-308.597 473.097,-220.827 345.883,-189.909"/>
<polygon fill="midnightblue" stroke="midnightblue" points="346.616,-186.485 336.072,-187.524 344.962,-193.287 346.616,-186.485"/>
</g>
<!-- Node35 -->
<g id="node35" class="node"><title>Node35</title>
<g id="a_node35"><a xlink:href="_i_plug_midi_8h.html" target="_top" xlink:title="MIDI and sysex structs/utilites. ">
<polygon fill="white" stroke="black" points="788.5,-224.5 788.5,-243.5 853.5,-243.5 853.5,-224.5 788.5,-224.5"/>
<text text-anchor="middle" x="821" y="-231.5" font-family="Helvetica,sans-Serif" font-size="10.00">IPlugMidi.h</text>
</a>
</g>
</g>
<!-- Node31&#45;&gt;Node35 -->
<g id="edge69" class="edge"><title>Node31&#45;&gt;Node35</title>
<path fill="none" stroke="midnightblue" d="M927.843,-340.128C898.085,-334.731 863.028,-323.458 840,-300 828.042,-287.819 823.537,-268.547 821.876,-254.146"/>
<polygon fill="midnightblue" stroke="midnightblue" points="825.341,-253.564 821.067,-243.869 818.363,-254.113 825.341,-253.564"/>
</g>
<!-- Node36 -->
<g id="node36" class="node"><title>Node36</title>
<g id="a_node36"><a xlink:href="_i_plug_structs_8h_source.html" target="_top" xlink:title="IPlugStructs.h">
<polygon fill="white" stroke="black" points="982.5,-280.5 982.5,-299.5 1061.5,-299.5 1061.5,-280.5 982.5,-280.5"/>
<text text-anchor="middle" x="1022" y="-287.5" font-family="Helvetica,sans-Serif" font-size="10.00">IPlugStructs.h</text>
</a>
</g>
</g>
<!-- Node31&#45;&gt;Node36 -->
<g id="edge75" class="edge"><title>Node31&#45;&gt;Node36</title>
<path fill="none" stroke="midnightblue" d="M990.275,-336.083C995.642,-328.455 1003.52,-317.264 1010.08,-307.941"/>
<polygon fill="midnightblue" stroke="midnightblue" points="1012.95,-309.943 1015.84,-299.751 1007.22,-305.915 1012.95,-309.943"/>
</g>
<!-- Node33&#45;&gt;Node3 -->
<g id="edge65" class="edge"><title>Node33&#45;&gt;Node3</title>
<path fill="none" stroke="midnightblue" d="M290.562,-168.245C281.576,-159.969 269.254,-146.663 264,-132 252.005,-98.5258 260.522,-77.293 289,-56 336.284,-20.6455 515.831,-13.0673 591.283,-11.443"/>
<polygon fill="midnightblue" stroke="midnightblue" points="591.701,-14.9357 601.632,-11.244 591.567,-7.93703 591.701,-14.9357"/>
</g>
<!-- Node33&#45;&gt;Node6 -->
<g id="edge67" class="edge"><title>Node33&#45;&gt;Node6</title>
<path fill="none" stroke="midnightblue" d="M291.684,-168.101C278.735,-154.666 258.441,-128.974 273,-112 289.046,-93.2914 445.605,-77.3085 522.633,-70.5049"/>
<polygon fill="midnightblue" stroke="midnightblue" points="523.292,-73.9608 532.951,-69.6065 522.685,-66.9872 523.292,-73.9608"/>
</g>
<!-- Node33&#45;&gt;Node18 -->
<g id="edge68" class="edge"><title>Node33&#45;&gt;Node18</title>
<path fill="none" stroke="midnightblue" d="M347.261,-168.503C400.999,-158.633 489.345,-142.406 544.735,-132.232"/>
<polygon fill="midnightblue" stroke="midnightblue" points="545.476,-135.655 554.679,-130.406 544.211,-128.77 545.476,-135.655"/>
</g>
<!-- Node33&#45;&gt;Node23 -->
<g id="edge66" class="edge"><title>Node33&#45;&gt;Node23</title>
<path fill="none" stroke="midnightblue" d="M347.149,-171.067C430.084,-160.403 602.953,-138.178 681.108,-128.129"/>
<polygon fill="midnightblue" stroke="midnightblue" points="682.016,-131.541 691.488,-126.794 681.124,-124.598 682.016,-131.541"/>
</g>
<!-- Node34 -->
<g id="node34" class="node"><title>Node34</title>
<polygon fill="white" stroke="#bfbfbf" points="66,-112.5 66,-131.5 112,-131.5 112,-112.5 66,-112.5"/>
<text text-anchor="middle" x="89" y="-119.5" font-family="Helvetica,sans-Serif" font-size="10.00">atomic</text>
</g>
<!-- Node33&#45;&gt;Node34 -->
<g id="edge64" class="edge"><title>Node33&#45;&gt;Node34</title>
<path fill="none" stroke="midnightblue" d="M267.408,-168.444C227.561,-158.294 161.564,-141.483 121.985,-131.402"/>
<polygon fill="midnightblue" stroke="midnightblue" points="122.838,-128.008 112.284,-128.931 121.11,-134.791 122.838,-128.008"/>
</g>
<!-- Node35&#45;&gt;Node10 -->
<g id="edge74" class="edge"><title>Node35&#45;&gt;Node10</title>
<path fill="none" stroke="midnightblue" d="M788.414,-227.015C736.829,-217.54 636.05,-199.03 575.809,-187.965"/>
<polygon fill="midnightblue" stroke="midnightblue" points="576.246,-184.487 565.778,-186.122 574.981,-191.371 576.246,-184.487"/>
</g>
<!-- Node35&#45;&gt;Node11 -->
<g id="edge72" class="edge"><title>Node35&#45;&gt;Node11</title>
<path fill="none" stroke="midnightblue" d="M822.623,-224.354C826.081,-204.311 833.148,-153.234 824,-112 821.876,-102.426 817.493,-92.4756 813.279,-84.3735"/>
<polygon fill="midnightblue" stroke="midnightblue" points="816.298,-82.6012 808.384,-75.557 810.178,-85.9989 816.298,-82.6012"/>
</g>
<!-- Node35&#45;&gt;Node14 -->
<g id="edge71" class="edge"><title>Node35&#45;&gt;Node14</title>
<path fill="none" stroke="midnightblue" d="M813.635,-224.397C806.806,-215.82 797.101,-201.948 793,-188 788.567,-172.926 788.66,-155.024 789.667,-141.828"/>
<polygon fill="midnightblue" stroke="midnightblue" points="793.174,-141.933 790.697,-131.632 786.21,-141.229 793.174,-141.933"/>
</g>
<!-- Node35&#45;&gt;Node16 -->
<g id="edge70" class="edge"><title>Node35&#45;&gt;Node16</title>
<path fill="none" stroke="midnightblue" d="M841.672,-224.372C858.175,-216.695 881.091,-204.184 897,-188 910.202,-174.57 920.321,-155.495 926.612,-141.482"/>
<polygon fill="midnightblue" stroke="midnightblue" points="929.981,-142.502 930.665,-131.929 923.537,-139.768 929.981,-142.502"/>
</g>
<!-- Node35&#45;&gt;Node19 -->
<g id="edge73" class="edge"><title>Node35&#45;&gt;Node19</title>
<path fill="none" stroke="midnightblue" d="M825.705,-224.229C839.307,-199.157 879.04,-127.956 900,-112 930.086,-89.0973 972.171,-77.6557 1002.52,-72.0665"/>
<polygon fill="midnightblue" stroke="midnightblue" points="1003.46,-75.4571 1012.73,-70.3244 1002.28,-68.5569 1003.46,-75.4571"/>
</g>
<!-- Node36&#45;&gt;Node5 -->
<g id="edge80" class="edge"><title>Node36&#45;&gt;Node5</title>
<path fill="none" stroke="midnightblue" d="M1046.25,-280.37C1105.76,-259.038 1255.43,-204.372 1273,-188 1300.48,-162.388 1279.87,-134.434 1310,-112 1344.37,-86.4101 1462.87,-74.6876 1532.59,-69.8942"/>
<polygon fill="midnightblue" stroke="midnightblue" points="1533.18,-73.363 1542.93,-69.2098 1532.72,-66.3783 1533.18,-73.363"/>
</g>
<!-- Node36&#45;&gt;Node6 -->
<g id="edge77" class="edge"><title>Node36&#45;&gt;Node6</title>
<path fill="none" stroke="midnightblue" d="M1022.32,-280.225C1022.88,-250.959 1020.34,-156.065 967,-112 939.641,-89.3966 704.859,-74.4327 607.27,-69.1363"/>
<polygon fill="midnightblue" stroke="midnightblue" points="607.338,-65.635 597.165,-68.5959 606.964,-72.625 607.338,-65.635"/>
</g>
<!-- Node36&#45;&gt;Node7 -->
<g id="edge78" class="edge"><title>Node36&#45;&gt;Node7</title>
<path fill="none" stroke="midnightblue" d="M1061.8,-283.855C1121.22,-274.363 1233.94,-249.156 1307,-188 1321.74,-175.659 1331.81,-155.85 1337.68,-141.34"/>
<polygon fill="midnightblue" stroke="midnightblue" points="1340.98,-142.486 1341.21,-131.893 1334.43,-140.031 1340.98,-142.486"/>
</g>
<!-- Node36&#45;&gt;Node9 -->
<g id="edge79" class="edge"><title>Node36&#45;&gt;Node9</title>
<path fill="none" stroke="midnightblue" d="M1023.82,-280.455C1029.2,-252.691 1042.23,-163.824 1001,-112 988.672,-96.5025 969.657,-85.9722 952.107,-79.0204"/>
<polygon fill="midnightblue" stroke="midnightblue" points="953.154,-75.6762 942.56,-75.5176 950.743,-82.2479 953.154,-75.6762"/>
</g>
<!-- Node36&#45;&gt;Node18 -->
<g id="edge82" class="edge"><title>Node36&#45;&gt;Node18</title>
<path fill="none" stroke="midnightblue" d="M1001.35,-280.425C970.933,-267.835 912.243,-243.705 862,-224 777.87,-191.004 678.128,-153.771 627.696,-135.077"/>
<polygon fill="midnightblue" stroke="midnightblue" points="628.88,-131.784 618.287,-131.593 626.449,-138.348 628.88,-131.784"/>
</g>
<!-- Node36&#45;&gt;Node19 -->
<g id="edge76" class="edge"><title>Node36&#45;&gt;Node19</title>
<path fill="none" stroke="midnightblue" d="M1030.1,-280.428C1037.72,-271.874 1048.85,-258.018 1055,-244 1075.38,-197.543 1072.09,-182.491 1077,-132 1077.86,-123.153 1079.94,-120.388 1077,-112 1073.21,-101.209 1065.63,-91.084 1058.4,-83.1808"/>
<polygon fill="midnightblue" stroke="midnightblue" points="1060.67,-80.4943 1051.16,-75.8145 1055.67,-85.4005 1060.67,-80.4943"/>
</g>
<!-- Node36&#45;&gt;Node35 -->
<g id="edge81" class="edge"><title>Node36&#45;&gt;Node35</title>
<path fill="none" stroke="midnightblue" d="M990.151,-280.444C955.602,-271.162 900.318,-256.309 862.417,-246.127"/>
<polygon fill="midnightblue" stroke="midnightblue" points="863.266,-242.731 852.7,-243.516 861.449,-249.491 863.266,-242.731"/>
</g>
</g>
</svg>
