<?xml version="1.0" encoding="UTF-8" standalone="no"?>
<!DOCTYPE svg PUBLIC "-//W3C//DTD SVG 1.1//EN"
 "http://www.w3.org/Graphics/SVG/1.1/DTD/svg11.dtd">
<!-- Generated by graphviz version 2.36.0 (20140111.2315)
 -->
<!-- Title: IGraphics.h Pages: 1 -->
<svg width="1895pt" height="476pt"
 viewBox="0.00 0.00 1895.00 476.00" xmlns="http://www.w3.org/2000/svg" xmlns:xlink="http://www.w3.org/1999/xlink">
<g id="graph0" class="graph" transform="scale(1 1) rotate(0) translate(4 472)">
<title>IGraphics.h</title>
<polygon fill="white" stroke="none" points="-4,4 -4,-472 1891,-472 1891,4 -4,4"/>
<!-- Node1 -->
<g id="node1" class="node"><title>Node1</title>
<polygon fill="#bfbfbf" stroke="black" points="1383.5,-448.5 1383.5,-467.5 1450.5,-467.5 1450.5,-448.5 1383.5,-448.5"/>
<text text-anchor="middle" x="1417" y="-455.5" font-family="Helvetica,sans-Serif" font-size="10.00">IGraphics.h</text>
</g>
<!-- Node2 -->
<g id="node2" class="node"><title>Node2</title>
<g id="a_node2"><a xlink:href="_i_plug_constants_8h.html" target="_top" xlink:title="IPlug Constant definitions, Types, magic numbers. ">
<polygon fill="white" stroke="black" points="11,-56.5 11,-75.5 103,-75.5 103,-56.5 11,-56.5"/>
<text text-anchor="middle" x="57" y="-63.5" font-family="Helvetica,sans-Serif" font-size="10.00">IPlugConstants.h</text>
</a>
</g>
</g>
<!-- Node1&#45;&gt;Node2 -->
<g id="edge1" class="edge"><title>Node1&#45;&gt;Node2</title>
<path fill="none" stroke="midnightblue" d="M1383.24,-456.77C1214.9,-455.463 465.07,-447.702 235,-412 127.916,-395.383 0,-455.366 0,-347 0,-347 0,-347 0,-177 0,-140.3 25.321,-103.657 42.2099,-83.2973"/>
<polygon fill="midnightblue" stroke="midnightblue" points="44.9535,-85.475 48.8333,-75.6161 39.6522,-80.9037 44.9535,-85.475"/>
</g>
<!-- Node3 -->
<g id="node3" class="node"><title>Node3</title>
<g id="a_node3"><a xlink:href="_i_plug_logger_8h.html" target="_top" xlink:title="IPlug logging a.k.a tracing functionality. ">
<polygon fill="white" stroke="black" points="327.5,-168.5 327.5,-187.5 404.5,-187.5 404.5,-168.5 327.5,-168.5"/>
<text text-anchor="middle" x="366" y="-175.5" font-family="Helvetica,sans-Serif" font-size="10.00">IPlugLogger.h</text>
</a>
</g>
</g>
<!-- Node1&#45;&gt;Node3 -->
<g id="edge2" class="edge"><title>Node1&#45;&gt;Node3</title>
<path fill="none" stroke="midnightblue" d="M1383.25,-456.127C1171.78,-450.437 38,-416.687 38,-347 38,-347 38,-347 38,-289 38,-230.806 225.94,-197.684 317.294,-185.022"/>
<polygon fill="midnightblue" stroke="midnightblue" points="317.971,-188.462 327.41,-183.649 317.03,-181.526 317.971,-188.462"/>
</g>
<!-- Node18 -->
<g id="node18" class="node"><title>Node18</title>
<g id="a_node18"><a xlink:href="_i_graphics_constants_8h_source.html" target="_top" xlink:title="IGraphicsConstants.h">
<polygon fill="white" stroke="black" points="1775,-112.5 1775,-131.5 1887,-131.5 1887,-112.5 1775,-112.5"/>
<text text-anchor="middle" x="1831" y="-119.5" font-family="Helvetica,sans-Serif" font-size="10.00">IGraphicsConstants.h</text>
</a>
</g>
</g>
<!-- Node1&#45;&gt;Node18 -->
<g id="edge25" class="edge"><title>Node1&#45;&gt;Node18</title>
<path fill="none" stroke="midnightblue" d="M1427.65,-448.408C1483.24,-403.561 1740.28,-196.192 1812.23,-138.14"/>
<polygon fill="midnightblue" stroke="midnightblue" points="1814.84,-140.538 1820.42,-131.535 1810.44,-135.09 1814.84,-140.538"/>
</g>
<!-- Node19 -->
<g id="node19" class="node"><title>Node19</title>
<g id="a_node19"><a xlink:href="_i_graphics_structs_8h_source.html" target="_top" xlink:title="IGraphicsStructs.h">
<polygon fill="white" stroke="black" points="1389,-168.5 1389,-187.5 1487,-187.5 1487,-168.5 1389,-168.5"/>
<text text-anchor="middle" x="1438" y="-175.5" font-family="Helvetica,sans-Serif" font-size="10.00">IGraphicsStructs.h</text>
</a>
</g>
</g>
<!-- Node1&#45;&gt;Node19 -->
<g id="edge27" class="edge"><title>Node1&#45;&gt;Node19</title>
<path fill="none" stroke="midnightblue" d="M1414.44,-448.249C1409.25,-429.738 1398,-385.179 1398,-347 1398,-347 1398,-347 1398,-289 1398,-254.617 1415.47,-217.631 1427.32,-196.503"/>
<polygon fill="midnightblue" stroke="midnightblue" points="1430.42,-198.133 1432.44,-187.731 1424.38,-194.607 1430.42,-198.133"/>
</g>
<!-- Node26 -->
<g id="node26" class="node"><title>Node26</title>
<g id="a_node26"><a xlink:href="_i_graphics_utilities_8h_source.html" target="_top" xlink:title="IGraphicsUtilities.h">
<polygon fill="white" stroke="black" points="1426,-224.5 1426,-243.5 1526,-243.5 1526,-224.5 1426,-224.5"/>
<text text-anchor="middle" x="1476" y="-231.5" font-family="Helvetica,sans-Serif" font-size="10.00">IGraphicsUtilities.h</text>
</a>
</g>
</g>
<!-- Node1&#45;&gt;Node26 -->
<g id="edge40" class="edge"><title>Node1&#45;&gt;Node26</title>
<path fill="none" stroke="midnightblue" d="M1419.31,-448.297C1428.01,-415.563 1458.89,-299.375 1471.04,-253.666"/>
<polygon fill="midnightblue" stroke="midnightblue" points="1474.45,-254.447 1473.64,-243.884 1467.69,-252.649 1474.45,-254.447"/>
</g>
<!-- Node27 -->
<g id="node27" class="node"><title>Node27</title>
<g id="a_node27"><a xlink:href="_i_graphics_popup_menu_8h.html" target="_top" xlink:title="A class for setting the contents of a pop up menu. ">
<polygon fill="white" stroke="black" points="594.5,-168.5 594.5,-187.5 713.5,-187.5 713.5,-168.5 594.5,-168.5"/>
<text text-anchor="middle" x="654" y="-175.5" font-family="Helvetica,sans-Serif" font-size="10.00">IGraphicsPopupMenu.h</text>
</a>
</g>
</g>
<!-- Node1&#45;&gt;Node27 -->
<g id="edge43" class="edge"><title>Node1&#45;&gt;Node27</title>
<path fill="none" stroke="midnightblue" d="M1383.38,-456.258C1225.57,-452.338 566,-430.937 566,-347 566,-347 566,-347 566,-289 566,-247.032 605.541,-211.902 631.612,-193.3"/>
<polygon fill="midnightblue" stroke="midnightblue" points="633.597,-196.183 639.861,-187.639 629.636,-190.412 633.597,-196.183"/>
</g>
<!-- Node28 -->
<g id="node28" class="node"><title>Node28</title>
<g id="a_node28"><a xlink:href="_i_graphics_editor_delegate_8h.html" target="_top" xlink:title="An editor delgate base class for a SOMETHING that uses IGraphics for it&#39;s UI. ">
<polygon fill="white" stroke="black" points="1014.5,-392.5 1014.5,-411.5 1145.5,-411.5 1145.5,-392.5 1014.5,-392.5"/>
<text text-anchor="middle" x="1080" y="-399.5" font-family="Helvetica,sans-Serif" font-size="10.00">IGraphicsEditorDelegate.h</text>
</a>
</g>
</g>
<!-- Node1&#45;&gt;Node28 -->
<g id="edge50" class="edge"><title>Node1&#45;&gt;Node28</title>
<path fill="none" stroke="midnightblue" d="M1383.46,-451.625C1327.6,-442.675 1214.65,-424.575 1143.41,-413.16"/>
<polygon fill="midnightblue" stroke="midnightblue" points="1143.64,-409.653 1133.21,-411.527 1142.53,-416.565 1143.64,-409.653"/>
</g>
<!-- Node35 -->
<g id="node35" class="node"><title>Node35</title>
<polygon fill="white" stroke="#bfbfbf" points="1522.5,-392.5 1522.5,-411.5 1581.5,-411.5 1581.5,-392.5 1522.5,-392.5"/>
<text text-anchor="middle" x="1552" y="-399.5" font-family="Helvetica,sans-Serif" font-size="10.00">heapbuf.h</text>
</g>
<!-- Node1&#45;&gt;Node35 -->
<g id="edge76" class="edge"><title>Node1&#45;&gt;Node35</title>
<path fill="none" stroke="midnightblue" d="M1438.39,-448.444C1460.71,-439.517 1495.9,-425.439 1521.21,-415.317"/>
<polygon fill="midnightblue" stroke="midnightblue" points="1522.72,-418.48 1530.71,-411.516 1520.12,-411.981 1522.72,-418.48"/>
</g>
<!-- Node36 -->
<g id="node36" class="node"><title>Node36</title>
<polygon fill="white" stroke="#bfbfbf" points="1599.5,-392.5 1599.5,-411.5 1640.5,-411.5 1640.5,-392.5 1599.5,-392.5"/>
<text text-anchor="middle" x="1620" y="-399.5" font-family="Helvetica,sans-Serif" font-size="10.00">stack</text>
</g>
<!-- Node1&#45;&gt;Node36 -->
<g id="edge77" class="edge"><title>Node1&#45;&gt;Node36</title>
<path fill="none" stroke="midnightblue" d="M1450.59,-448.655C1483.54,-440.382 1535.44,-427.122 1589.6,-412.034"/>
<polygon fill="midnightblue" stroke="midnightblue" points="1590.69,-415.364 1599.37,-409.298 1588.8,-408.623 1590.69,-415.364"/>
</g>
<!-- Node37 -->
<g id="node37" class="node"><title>Node37</title>
<polygon fill="white" stroke="#bfbfbf" points="1659,-392.5 1659,-411.5 1711,-411.5 1711,-392.5 1659,-392.5"/>
<text text-anchor="middle" x="1685" y="-399.5" font-family="Helvetica,sans-Serif" font-size="10.00">memory</text>
</g>
<!-- Node1&#45;&gt;Node37 -->
<g id="edge78" class="edge"><title>Node1&#45;&gt;Node37</title>
<path fill="none" stroke="midnightblue" d="M1450.54,-451.075C1493.9,-443.288 1571.96,-428.841 1648.84,-411.932"/>
<polygon fill="midnightblue" stroke="midnightblue" points="1649.69,-415.329 1658.69,-409.749 1648.17,-408.495 1649.69,-415.329"/>
</g>
<!-- Node3&#45;&gt;Node2 -->
<g id="edge12" class="edge"><title>Node3&#45;&gt;Node2</title>
<path fill="none" stroke="midnightblue" d="M327.15,-174.974C280.324,-171.287 200.186,-160.939 138,-132 112.108,-119.951 87.2479,-97.9292 72.0547,-82.8878"/>
<polygon fill="midnightblue" stroke="midnightblue" points="74.5428,-80.4261 65.0365,-75.7482 69.5507,-85.3332 74.5428,-80.4261"/>
</g>
<!-- Node4 -->
<g id="node4" class="node"><title>Node4</title>
<polygon fill="white" stroke="#bfbfbf" points="347.5,-56.5 347.5,-75.5 390.5,-75.5 390.5,-56.5 347.5,-56.5"/>
<text text-anchor="middle" x="369" y="-63.5" font-family="Helvetica,sans-Serif" font-size="10.00">cstdio</text>
</g>
<!-- Node3&#45;&gt;Node4 -->
<g id="edge3" class="edge"><title>Node3&#45;&gt;Node4</title>
<path fill="none" stroke="midnightblue" d="M335.201,-168.419C304.012,-158.05 262.546,-138.624 279,-112 291.649,-91.5329 316.739,-80.0633 337.221,-73.8341"/>
<polygon fill="midnightblue" stroke="midnightblue" points="338.413,-77.1361 347.126,-71.1074 336.555,-70.3872 338.413,-77.1361"/>
</g>
<!-- Node5 -->
<g id="node5" class="node"><title>Node5</title>
<polygon fill="white" stroke="#bfbfbf" points="641,-56.5 641,-75.5 687,-75.5 687,-56.5 641,-56.5"/>
<text text-anchor="middle" x="664" y="-63.5" font-family="Helvetica,sans-Serif" font-size="10.00">cctype</text>
</g>
<!-- Node3&#45;&gt;Node5 -->
<g id="edge4" class="edge"><title>Node3&#45;&gt;Node5</title>
<path fill="none" stroke="midnightblue" d="M365.807,-168.324C366.004,-154.227 368.605,-126.471 385,-112 420.889,-80.3213 564.172,-70.7906 630.274,-68.0495"/>
<polygon fill="midnightblue" stroke="midnightblue" points="630.707,-71.5355 640.564,-67.6521 630.437,-64.5407 630.707,-71.5355"/>
</g>
<!-- Node6 -->
<g id="node6" class="node"><title>Node6</title>
<polygon fill="white" stroke="#bfbfbf" points="288.5,-112.5 288.5,-131.5 337.5,-131.5 337.5,-112.5 288.5,-112.5"/>
<text text-anchor="middle" x="313" y="-119.5" font-family="Helvetica,sans-Serif" font-size="10.00">cstdarg</text>
</g>
<!-- Node3&#45;&gt;Node6 -->
<g id="edge5" class="edge"><title>Node3&#45;&gt;Node6</title>
<path fill="none" stroke="midnightblue" d="M357.248,-168.083C349.53,-160.22 338.095,-148.569 328.783,-139.081"/>
<polygon fill="midnightblue" stroke="midnightblue" points="331.092,-136.436 321.589,-131.751 326.096,-141.34 331.092,-136.436"/>
</g>
<!-- Node7 -->
<g id="node7" class="node"><title>Node7</title>
<polygon fill="white" stroke="#bfbfbf" points="454,-112.5 454,-131.5 500,-131.5 500,-112.5 454,-112.5"/>
<text text-anchor="middle" x="477" y="-119.5" font-family="Helvetica,sans-Serif" font-size="10.00">cstdint</text>
</g>
<!-- Node3&#45;&gt;Node7 -->
<g id="edge6" class="edge"><title>Node3&#45;&gt;Node7</title>
<path fill="none" stroke="midnightblue" d="M383.834,-168.324C401.716,-159.625 429.475,-146.12 450.046,-136.113"/>
<polygon fill="midnightblue" stroke="midnightblue" points="451.749,-139.177 459.21,-131.655 448.687,-132.882 451.749,-139.177"/>
</g>
<!-- Node8 -->
<g id="node8" class="node"><title>Node8</title>
<polygon fill="white" stroke="#bfbfbf" points="645,-0.5 645,-19.5 691,-19.5 691,-0.5 645,-0.5"/>
<text text-anchor="middle" x="668" y="-7.5" font-family="Helvetica,sans-Serif" font-size="10.00">cstring</text>
</g>
<!-- Node3&#45;&gt;Node8 -->
<g id="edge7" class="edge"><title>Node3&#45;&gt;Node8</title>
<path fill="none" stroke="midnightblue" d="M327.237,-177.261C259.671,-176.303 131.144,-167.402 171,-112 225.689,-35.9788 532.654,-16.559 634.879,-12.1657"/>
<polygon fill="midnightblue" stroke="midnightblue" points="635.094,-15.6599 644.943,-11.7539 634.808,-8.66576 635.094,-15.6599"/>
</g>
<!-- Node9 -->
<g id="node9" class="node"><title>Node9</title>
<polygon fill="white" stroke="#bfbfbf" points="394.5,-112.5 394.5,-131.5 435.5,-131.5 435.5,-112.5 394.5,-112.5"/>
<text text-anchor="middle" x="415" y="-119.5" font-family="Helvetica,sans-Serif" font-size="10.00">ctime</text>
</g>
<!-- Node3&#45;&gt;Node9 -->
<g id="edge8" class="edge"><title>Node3&#45;&gt;Node9</title>
<path fill="none" stroke="midnightblue" d="M374.091,-168.083C381.155,-160.298 391.588,-148.801 400.149,-139.367"/>
<polygon fill="midnightblue" stroke="midnightblue" points="402.931,-141.509 407.059,-131.751 397.747,-136.805 402.931,-141.509"/>
</g>
<!-- Node10 -->
<g id="node10" class="node"><title>Node10</title>
<polygon fill="white" stroke="#bfbfbf" points="670.5,-112.5 670.5,-131.5 719.5,-131.5 719.5,-112.5 670.5,-112.5"/>
<text text-anchor="middle" x="695" y="-119.5" font-family="Helvetica,sans-Serif" font-size="10.00">cassert</text>
</g>
<!-- Node3&#45;&gt;Node10 -->
<g id="edge9" class="edge"><title>Node3&#45;&gt;Node10</title>
<path fill="none" stroke="midnightblue" d="M404.708,-170.647C469.418,-160.026 598.546,-138.831 660.404,-128.678"/>
<polygon fill="midnightblue" stroke="midnightblue" points="661.138,-132.105 670.439,-127.031 660.004,-125.197 661.138,-132.105"/>
</g>
<!-- Node11 -->
<g id="node11" class="node"><title>Node11</title>
<polygon fill="white" stroke="#bfbfbf" points="913,-56.5 913,-75.5 977,-75.5 977,-56.5 913,-56.5"/>
<text text-anchor="middle" x="945" y="-63.5" font-family="Helvetica,sans-Serif" font-size="10.00">wdlstring.h</text>
</g>
<!-- Node3&#45;&gt;Node11 -->
<g id="edge10" class="edge"><title>Node3&#45;&gt;Node11</title>
<path fill="none" stroke="midnightblue" d="M404.638,-175.435C500.826,-171.189 748.882,-157.981 827,-132 843.274,-126.588 845.082,-120.46 860,-112 879.548,-100.914 902.035,-89.0473 918.968,-80.2843"/>
<polygon fill="midnightblue" stroke="midnightblue" points="920.945,-83.2034 928.232,-75.5129 917.739,-76.9803 920.945,-83.2034"/>
</g>
<!-- Node12 -->
<g id="node12" class="node"><title>Node12</title>
<polygon fill="white" stroke="#bfbfbf" points="180,-112.5 180,-131.5 232,-131.5 232,-112.5 180,-112.5"/>
<text text-anchor="middle" x="206" y="-119.5" font-family="Helvetica,sans-Serif" font-size="10.00">mutex.h</text>
</g>
<!-- Node3&#45;&gt;Node12 -->
<g id="edge11" class="edge"><title>Node3&#45;&gt;Node12</title>
<path fill="none" stroke="midnightblue" d="M340.648,-168.444C313.731,-159.359 271.004,-144.939 240.913,-134.783"/>
<polygon fill="midnightblue" stroke="midnightblue" points="241.828,-131.398 231.234,-131.516 239.59,-138.031 241.828,-131.398"/>
</g>
<!-- Node13 -->
<g id="node13" class="node"><title>Node13</title>
<g id="a_node13"><a xlink:href="_i_plug_utilities_8h.html" target="_top" xlink:title="Utility functions and macros. ">
<polygon fill="white" stroke="black" points="738,-112.5 738,-131.5 818,-131.5 818,-112.5 738,-112.5"/>
<text text-anchor="middle" x="778" y="-119.5" font-family="Helvetica,sans-Serif" font-size="10.00">IPlugUtilities.h</text>
</a>
</g>
</g>
<!-- Node3&#45;&gt;Node13 -->
<g id="edge13" class="edge"><title>Node3&#45;&gt;Node13</title>
<path fill="none" stroke="midnightblue" d="M404.669,-172.892C470.983,-165.692 610.604,-149.849 728,-132 728.101,-131.985 728.202,-131.969 728.303,-131.954"/>
<polygon fill="midnightblue" stroke="midnightblue" points="728.595,-135.452 737.915,-130.413 727.487,-128.54 728.595,-135.452"/>
</g>
<!-- Node13&#45;&gt;Node2 -->
<g id="edge21" class="edge"><title>Node13&#45;&gt;Node2</title>
<path fill="none" stroke="midnightblue" d="M737.943,-113.385C734.586,-112.87 731.239,-112.399 728,-112 501.063,-84.0537 228.655,-72.5302 113.155,-68.6574"/>
<polygon fill="midnightblue" stroke="midnightblue" points="113.241,-65.1584 103.131,-68.3274 113.011,-72.1546 113.241,-65.1584"/>
</g>
<!-- Node13&#45;&gt;Node4 -->
<g id="edge16" class="edge"><title>Node13&#45;&gt;Node4</title>
<path fill="none" stroke="midnightblue" d="M737.914,-113.59C734.564,-113.03 731.226,-112.492 728,-112 607.372,-93.5967 463.094,-77.2111 400.521,-70.3783"/>
<polygon fill="midnightblue" stroke="midnightblue" points="400.821,-66.8904 390.502,-69.2898 400.065,-73.8494 400.821,-66.8904"/>
</g>
<!-- Node13&#45;&gt;Node5 -->
<g id="edge19" class="edge"><title>Node13&#45;&gt;Node5</title>
<path fill="none" stroke="midnightblue" d="M759.936,-112.444C741.425,-103.675 712.419,-89.9355 691.145,-79.8579"/>
<polygon fill="midnightblue" stroke="midnightblue" points="692.515,-76.6343 681.979,-75.5164 689.518,-82.9604 692.515,-76.6343"/>
</g>
<!-- Node13&#45;&gt;Node8 -->
<g id="edge18" class="edge"><title>Node13&#45;&gt;Node8</title>
<path fill="none" stroke="midnightblue" d="M769.368,-112.368C750.894,-93.8941 707.293,-50.2926 683.744,-26.7436"/>
<polygon fill="midnightblue" stroke="midnightblue" points="686.137,-24.1876 676.591,-19.5914 681.188,-29.1374 686.137,-24.1876"/>
</g>
<!-- Node13&#45;&gt;Node11 -->
<g id="edge20" class="edge"><title>Node13&#45;&gt;Node11</title>
<path fill="none" stroke="midnightblue" d="M804.462,-112.444C832.678,-103.32 877.54,-88.8133 908.968,-78.6509"/>
<polygon fill="midnightblue" stroke="midnightblue" points="910.224,-81.9234 918.662,-75.5164 908.07,-75.263 910.224,-81.9234"/>
</g>
<!-- Node14 -->
<g id="node14" class="node"><title>Node14</title>
<polygon fill="white" stroke="#bfbfbf" points="1166,-56.5 1166,-75.5 1222,-75.5 1222,-56.5 1166,-56.5"/>
<text text-anchor="middle" x="1194" y="-63.5" font-family="Helvetica,sans-Serif" font-size="10.00">algorithm</text>
</g>
<!-- Node13&#45;&gt;Node14 -->
<g id="edge14" class="edge"><title>Node13&#45;&gt;Node14</title>
<path fill="none" stroke="midnightblue" d="M818.266,-115.773C898.568,-105.349 1077.63,-82.1053 1156.02,-71.9301"/>
<polygon fill="midnightblue" stroke="midnightblue" points="1156.49,-75.3991 1165.95,-70.6409 1155.58,-68.4574 1156.49,-75.3991"/>
</g>
<!-- Node15 -->
<g id="node15" class="node"><title>Node15</title>
<polygon fill="white" stroke="#bfbfbf" points="806,-56.5 806,-75.5 850,-75.5 850,-56.5 806,-56.5"/>
<text text-anchor="middle" x="828" y="-63.5" font-family="Helvetica,sans-Serif" font-size="10.00">cmath</text>
</g>
<!-- Node13&#45;&gt;Node15 -->
<g id="edge15" class="edge"><title>Node13&#45;&gt;Node15</title>
<path fill="none" stroke="midnightblue" d="M786.256,-112.083C793.465,-104.298 804.11,-92.8015 812.846,-83.3665"/>
<polygon fill="midnightblue" stroke="midnightblue" points="815.671,-85.4666 819.897,-75.7511 810.535,-80.7108 815.671,-85.4666"/>
</g>
<!-- Node16 -->
<g id="node16" class="node"><title>Node16</title>
<polygon fill="white" stroke="#bfbfbf" points="1033.5,-0.5 1033.5,-19.5 1078.5,-19.5 1078.5,-0.5 1033.5,-0.5"/>
<text text-anchor="middle" x="1056" y="-7.5" font-family="Helvetica,sans-Serif" font-size="10.00">cstdlib</text>
</g>
<!-- Node13&#45;&gt;Node16 -->
<g id="edge17" class="edge"><title>Node13&#45;&gt;Node16</title>
<path fill="none" stroke="midnightblue" d="M777.827,-112.346C778.052,-98.2812 780.693,-70.5703 797,-56 829.976,-26.5357 961.442,-15.8932 1023.39,-12.4608"/>
<polygon fill="midnightblue" stroke="midnightblue" points="1023.61,-15.9542 1033.41,-11.9352 1023.24,-8.96386 1023.61,-15.9542"/>
</g>
<!-- Node17 -->
<g id="node17" class="node"><title>Node17</title>
<g id="a_node17"><a xlink:href="_i_plug_platform_8h.html" target="_top" xlink:title="Include to get consistently named preprocessor macros for different platforms and logging functionali...">
<polygon fill="white" stroke="black" points="1292,-56.5 1292,-75.5 1376,-75.5 1376,-56.5 1292,-56.5"/>
<text text-anchor="middle" x="1334" y="-63.5" font-family="Helvetica,sans-Serif" font-size="10.00">IPlugPlatform.h</text>
</a>
</g>
</g>
<!-- Node13&#45;&gt;Node17 -->
<g id="edge22" class="edge"><title>Node13&#45;&gt;Node17</title>
<path fill="none" stroke="midnightblue" d="M818.434,-117.073C917.325,-107.468 1171.35,-82.7972 1281.62,-72.0877"/>
<polygon fill="midnightblue" stroke="midnightblue" points="1282.21,-75.5462 1291.83,-71.0959 1281.54,-68.579 1282.21,-75.5462"/>
</g>
<!-- Node17&#45;&gt;Node8 -->
<g id="edge23" class="edge"><title>Node17&#45;&gt;Node8</title>
<path fill="none" stroke="midnightblue" d="M1291.75,-61.2821C1272.86,-59.6356 1250.32,-57.6926 1230,-56 1029.15,-39.2681 787.808,-20.339 701.057,-13.5724"/>
<polygon fill="midnightblue" stroke="midnightblue" points="701.265,-10.078 691.023,-12.7902 700.721,-17.0569 701.265,-10.078"/>
</g>
<!-- Node17&#45;&gt;Node16 -->
<g id="edge24" class="edge"><title>Node17&#45;&gt;Node16</title>
<path fill="none" stroke="midnightblue" d="M1291.78,-56.7986C1236.05,-45.9733 1139.11,-27.1442 1088.65,-17.3416"/>
<polygon fill="midnightblue" stroke="midnightblue" points="1089.1,-13.864 1078.62,-15.3929 1087.76,-20.7356 1089.1,-13.864"/>
</g>
<!-- Node18&#45;&gt;Node17 -->
<g id="edge26" class="edge"><title>Node18&#45;&gt;Node17</title>
<path fill="none" stroke="midnightblue" d="M1775,-113.123C1771.95,-112.734 1768.94,-112.357 1766,-112 1629.07,-95.3928 1467.25,-79.5426 1386.03,-71.847"/>
<polygon fill="midnightblue" stroke="midnightblue" points="1386.34,-68.3612 1376.06,-70.9049 1385.69,-75.3302 1386.34,-68.3612"/>
</g>
<!-- Node19&#45;&gt;Node10 -->
<g id="edge29" class="edge"><title>Node19&#45;&gt;Node10</title>
<path fill="none" stroke="midnightblue" d="M1388.94,-175.136C1253.41,-169.793 874.835,-153.509 729.795,-131.73"/>
<polygon fill="midnightblue" stroke="midnightblue" points="730.184,-128.249 719.762,-130.153 729.097,-135.164 730.184,-128.249"/>
</g>
<!-- Node19&#45;&gt;Node11 -->
<g id="edge35" class="edge"><title>Node19&#45;&gt;Node11</title>
<path fill="none" stroke="midnightblue" d="M1428.11,-168.472C1410.77,-154.068 1373.2,-125.201 1336,-112 1272.49,-89.4663 1074.76,-74.9433 987.315,-69.463"/>
<polygon fill="midnightblue" stroke="midnightblue" points="987.411,-65.9624 977.215,-68.8396 986.98,-72.9491 987.411,-65.9624"/>
</g>
<!-- Node19&#45;&gt;Node14 -->
<g id="edge31" class="edge"><title>Node19&#45;&gt;Node14</title>
<path fill="none" stroke="midnightblue" d="M1437.12,-168.333C1435.21,-154.248 1429.34,-126.51 1412,-112 1385.2,-89.5708 1287.48,-76.3741 1232.41,-70.5587"/>
<polygon fill="midnightblue" stroke="midnightblue" points="1232.62,-67.0629 1222.32,-69.5258 1231.91,-74.0264 1232.62,-67.0629"/>
</g>
<!-- Node19&#45;&gt;Node15 -->
<g id="edge28" class="edge"><title>Node19&#45;&gt;Node15</title>
<path fill="none" stroke="midnightblue" d="M1419.94,-168.472C1388.86,-154.201 1322.89,-125.701 1264,-112 1107.38,-75.5625 1063.85,-93.4556 904,-76 889.722,-74.4408 873.95,-72.5936 860.493,-70.9796"/>
<polygon fill="midnightblue" stroke="midnightblue" points="860.616,-67.4692 850.269,-69.7452 859.777,-74.4187 860.616,-67.4692"/>
</g>
<!-- Node19&#45;&gt;Node17 -->
<g id="edge38" class="edge"><title>Node19&#45;&gt;Node17</title>
<path fill="none" stroke="midnightblue" d="M1487.17,-168.557C1550.34,-157.476 1652.57,-138.654 1658,-132 1663.62,-125.114 1663.84,-118.704 1658,-112 1623.4,-72.2618 1468.72,-66.4889 1386.23,-66.3204"/>
<polygon fill="midnightblue" stroke="midnightblue" points="1386.05,-62.8204 1376.05,-66.3273 1386.06,-69.8204 1386.05,-62.8204"/>
</g>
<!-- Node19&#45;&gt;Node18 -->
<g id="edge39" class="edge"><title>Node19&#45;&gt;Node18</title>
<path fill="none" stroke="midnightblue" d="M1487.26,-170.051C1492.24,-169.355 1497.22,-168.662 1502,-168 1616.09,-152.199 1647.01,-148.329 1764.83,-132.157"/>
<polygon fill="midnightblue" stroke="midnightblue" points="1765.55,-135.592 1774.98,-130.764 1764.6,-128.657 1765.55,-135.592"/>
</g>
<!-- Node20 -->
<g id="node20" class="node"><title>Node20</title>
<polygon fill="white" stroke="#bfbfbf" points="1196.5,-112.5 1196.5,-131.5 1255.5,-131.5 1255.5,-112.5 1196.5,-112.5"/>
<text text-anchor="middle" x="1226" y="-119.5" font-family="Helvetica,sans-Serif" font-size="10.00">functional</text>
</g>
<!-- Node19&#45;&gt;Node20 -->
<g id="edge30" class="edge"><title>Node19&#45;&gt;Node20</title>
<path fill="none" stroke="midnightblue" d="M1404.41,-168.444C1366.71,-158.841 1305.6,-143.276 1265.61,-133.089"/>
<polygon fill="midnightblue" stroke="midnightblue" points="1266.23,-129.635 1255.67,-130.558 1264.5,-136.418 1266.23,-129.635"/>
</g>
<!-- Node21 -->
<g id="node21" class="node"><title>Node21</title>
<polygon fill="white" stroke="#bfbfbf" points="1706.5,-112.5 1706.5,-131.5 1757.5,-131.5 1757.5,-112.5 1706.5,-112.5"/>
<text text-anchor="middle" x="1732" y="-119.5" font-family="Helvetica,sans-Serif" font-size="10.00">numeric</text>
</g>
<!-- Node19&#45;&gt;Node21 -->
<g id="edge32" class="edge"><title>Node19&#45;&gt;Node21</title>
<path fill="none" stroke="midnightblue" d="M1487.29,-168.957C1538.56,-160.43 1621.09,-146.251 1692,-132 1693.44,-131.711 1694.91,-131.41 1696.39,-131.101"/>
<polygon fill="midnightblue" stroke="midnightblue" points="1697.18,-134.511 1706.22,-128.984 1695.7,-127.668 1697.18,-134.511"/>
</g>
<!-- Node22 -->
<g id="node22" class="node"><title>Node22</title>
<polygon fill="white" stroke="#bfbfbf" points="1464,-112.5 1464,-131.5 1510,-131.5 1510,-112.5 1464,-112.5"/>
<text text-anchor="middle" x="1487" y="-119.5" font-family="Helvetica,sans-Serif" font-size="10.00">chrono</text>
</g>
<!-- Node19&#45;&gt;Node22 -->
<g id="edge33" class="edge"><title>Node19&#45;&gt;Node22</title>
<path fill="none" stroke="midnightblue" d="M1446.09,-168.083C1453.16,-160.298 1463.59,-148.801 1472.15,-139.367"/>
<polygon fill="midnightblue" stroke="midnightblue" points="1474.93,-141.509 1479.06,-131.751 1469.75,-136.805 1474.93,-141.509"/>
</g>
<!-- Node23 -->
<g id="node23" class="node"><title>Node23</title>
<polygon fill="white" stroke="#bfbfbf" points="1528.5,-112.5 1528.5,-131.5 1569.5,-131.5 1569.5,-112.5 1528.5,-112.5"/>
<text text-anchor="middle" x="1549" y="-119.5" font-family="Helvetica,sans-Serif" font-size="10.00">string</text>
</g>
<!-- Node19&#45;&gt;Node23 -->
<g id="edge34" class="edge"><title>Node19&#45;&gt;Node23</title>
<path fill="none" stroke="midnightblue" d="M1455.83,-168.324C1473.72,-159.625 1501.48,-146.12 1522.05,-136.113"/>
<polygon fill="midnightblue" stroke="midnightblue" points="1523.75,-139.177 1531.21,-131.655 1520.69,-132.882 1523.75,-139.177"/>
</g>
<!-- Node24 -->
<g id="node24" class="node"><title>Node24</title>
<polygon fill="white" stroke="#bfbfbf" points="912.5,-112.5 912.5,-131.5 961.5,-131.5 961.5,-112.5 912.5,-112.5"/>
<text text-anchor="middle" x="937" y="-119.5" font-family="Helvetica,sans-Serif" font-size="10.00">ptrlist.h</text>
</g>
<!-- Node19&#45;&gt;Node24 -->
<g id="edge36" class="edge"><title>Node19&#45;&gt;Node24</title>
<path fill="none" stroke="midnightblue" d="M1388.59,-171.674C1287.52,-160.78 1059.32,-136.185 971.945,-126.766"/>
<polygon fill="midnightblue" stroke="midnightblue" points="972.083,-123.261 961.766,-125.669 971.333,-130.221 972.083,-123.261"/>
</g>
<!-- Node25 -->
<g id="node25" class="node"><title>Node25</title>
<polygon fill="white" stroke="#bfbfbf" points="1588,-112.5 1588,-131.5 1650,-131.5 1650,-112.5 1588,-112.5"/>
<text text-anchor="middle" x="1619" y="-119.5" font-family="Helvetica,sans-Serif" font-size="10.00">nanosvg.h</text>
</g>
<!-- Node19&#45;&gt;Node25 -->
<g id="edge37" class="edge"><title>Node19&#45;&gt;Node25</title>
<path fill="none" stroke="midnightblue" d="M1466.68,-168.444C1497.53,-159.241 1546.73,-144.562 1580.83,-134.388"/>
<polygon fill="midnightblue" stroke="midnightblue" points="1581.87,-137.729 1590.45,-131.516 1579.87,-131.021 1581.87,-137.729"/>
</g>
<!-- Node26&#45;&gt;Node18 -->
<g id="edge41" class="edge"><title>Node26&#45;&gt;Node18</title>
<path fill="none" stroke="midnightblue" d="M1481.86,-224.09C1491.88,-209.656 1513.78,-181.427 1540,-168 1549.94,-162.911 1681.85,-143.809 1764.62,-132.191"/>
<polygon fill="midnightblue" stroke="midnightblue" points="1765.29,-135.631 1774.71,-130.778 1764.32,-128.699 1765.29,-135.631"/>
</g>
<!-- Node26&#45;&gt;Node19 -->
<g id="edge42" class="edge"><title>Node26&#45;&gt;Node19</title>
<path fill="none" stroke="midnightblue" d="M1469.73,-224.083C1464.36,-216.455 1456.48,-205.264 1449.92,-195.941"/>
<polygon fill="midnightblue" stroke="midnightblue" points="1452.78,-193.915 1444.16,-187.751 1447.05,-197.943 1452.78,-193.915"/>
</g>
<!-- Node27&#45;&gt;Node4 -->
<g id="edge46" class="edge"><title>Node27&#45;&gt;Node4</title>
<path fill="none" stroke="midnightblue" d="M636.408,-168.353C609.39,-155.247 555.88,-129.979 509,-112 472.272,-97.9144 429.04,-84.4831 400.438,-76.021"/>
<polygon fill="midnightblue" stroke="midnightblue" points="401.183,-72.5919 390.602,-73.1362 399.213,-79.309 401.183,-72.5919"/>
</g>
<!-- Node27&#45;&gt;Node8 -->
<g id="edge45" class="edge"><title>Node27&#45;&gt;Node8</title>
<path fill="none" stroke="midnightblue" d="M649.423,-168.252C639.458,-147.994 617.794,-96.4969 632,-56 635.785,-45.2094 643.367,-35.084 650.6,-27.1808"/>
<polygon fill="midnightblue" stroke="midnightblue" points="653.326,-29.4005 657.838,-19.8145 648.333,-24.4943 653.326,-29.4005"/>
</g>
<!-- Node27&#45;&gt;Node10 -->
<g id="edge47" class="edge"><title>Node27&#45;&gt;Node10</title>
<path fill="none" stroke="midnightblue" d="M660.77,-168.083C666.562,-160.455 675.058,-149.264 682.138,-139.941"/>
<polygon fill="midnightblue" stroke="midnightblue" points="685.096,-141.832 688.356,-131.751 679.521,-137.599 685.096,-141.832"/>
</g>
<!-- Node27&#45;&gt;Node11 -->
<g id="edge48" class="edge"><title>Node27&#45;&gt;Node11</title>
<path fill="none" stroke="midnightblue" d="M713.916,-170.928C756.251,-164.987 813.5,-153.549 860,-132 886.697,-119.628 912.897,-97.6831 928.995,-82.747"/>
<polygon fill="midnightblue" stroke="midnightblue" points="931.609,-85.0915 936.442,-75.6632 926.784,-80.0197 931.609,-85.0915"/>
</g>
<!-- Node27&#45;&gt;Node15 -->
<g id="edge44" class="edge"><title>Node27&#45;&gt;Node15</title>
<path fill="none" stroke="midnightblue" d="M652.129,-168.234C649.749,-154.507 647.428,-127.872 661,-112 678.352,-91.7073 752.186,-77.8925 795.655,-71.3482"/>
<polygon fill="midnightblue" stroke="midnightblue" points="796.349,-74.7841 805.739,-69.8781 795.339,-67.8573 796.349,-74.7841"/>
</g>
<!-- Node27&#45;&gt;Node24 -->
<g id="edge49" class="edge"><title>Node27&#45;&gt;Node24</title>
<path fill="none" stroke="midnightblue" d="M704.129,-168.426C753.545,-159.816 831.149,-145.871 898,-132 899.446,-131.7 900.92,-131.388 902.409,-131.067"/>
<polygon fill="midnightblue" stroke="midnightblue" points="903.274,-134.461 912.279,-128.879 901.758,-127.627 903.274,-134.461"/>
</g>
<!-- Node29 -->
<g id="node29" class="node"><title>Node29</title>
<g id="a_node29"><a xlink:href="_i_plug_editor_delegate_8h.html" target="_top" xlink:title="This pure virtual interface delegates communication in both directions between a UI editor and someth...">
<polygon fill="white" stroke="black" points="826,-336.5 826,-355.5 938,-355.5 938,-336.5 826,-336.5"/>
<text text-anchor="middle" x="882" y="-343.5" font-family="Helvetica,sans-Serif" font-size="10.00">IPlugEditorDelegate.h</text>
</a>
</g>
</g>
<!-- Node28&#45;&gt;Node29 -->
<g id="edge51" class="edge"><title>Node28&#45;&gt;Node29</title>
<path fill="none" stroke="midnightblue" d="M1048.63,-392.444C1014.74,-383.201 960.597,-368.436 923.276,-358.257"/>
<polygon fill="midnightblue" stroke="midnightblue" points="923.795,-354.771 913.227,-355.516 921.954,-361.524 923.795,-354.771"/>
</g>
<!-- Node29&#45;&gt;Node8 -->
<g id="edge53" class="edge"><title>Node29&#45;&gt;Node8</title>
<path fill="none" stroke="midnightblue" d="M825.908,-343.452C726.089,-337.392 528,-308.99 528,-179 528,-179 528,-179 528,-121 528,-66.7435 593.817,-35.176 635.196,-20.6911"/>
<polygon fill="midnightblue" stroke="midnightblue" points="636.507,-23.9431 644.882,-17.4534 634.288,-17.3041 636.507,-23.9431"/>
</g>
<!-- Node29&#45;&gt;Node10 -->
<g id="edge52" class="edge"><title>Node29&#45;&gt;Node10</title>
<path fill="none" stroke="midnightblue" d="M875.341,-336.326C855.263,-310.28 793.292,-230.685 738,-168 729.333,-158.174 719.23,-147.561 710.995,-139.111"/>
<polygon fill="midnightblue" stroke="midnightblue" points="713.286,-136.448 703.781,-131.768 708.293,-141.354 713.286,-136.448"/>
</g>
<!-- Node29&#45;&gt;Node24 -->
<g id="edge55" class="edge"><title>Node29&#45;&gt;Node24</title>
<path fill="none" stroke="midnightblue" d="M879.395,-336.102C876.083,-323.519 871.223,-299.847 875,-280 885.1,-226.925 912.808,-168.871 927.524,-140.535"/>
<polygon fill="midnightblue" stroke="midnightblue" points="930.719,-141.98 932.302,-131.504 924.532,-138.707 930.719,-141.98"/>
</g>
<!-- Node30 -->
<g id="node30" class="node"><title>Node30</title>
<polygon fill="white" stroke="#bfbfbf" points="884.5,-280.5 884.5,-299.5 933.5,-299.5 933.5,-280.5 884.5,-280.5"/>
<text text-anchor="middle" x="909" y="-287.5" font-family="Helvetica,sans-Serif" font-size="10.00">stdint.h</text>
</g>
<!-- Node29&#45;&gt;Node30 -->
<g id="edge54" class="edge"><title>Node29&#45;&gt;Node30</title>
<path fill="none" stroke="midnightblue" d="M886.459,-336.083C890.154,-328.691 895.523,-317.953 900.094,-308.811"/>
<polygon fill="midnightblue" stroke="midnightblue" points="903.283,-310.261 904.624,-299.751 897.022,-307.13 903.283,-310.261"/>
</g>
<!-- Node31 -->
<g id="node31" class="node"><title>Node31</title>
<g id="a_node31"><a xlink:href="_i_plug_parameter_8h.html" target="_top" xlink:title="IPlug&#39;s parameter class. ">
<polygon fill="white" stroke="black" points="1019,-168.5 1019,-187.5 1111,-187.5 1111,-168.5 1019,-168.5"/>
<text text-anchor="middle" x="1065" y="-175.5" font-family="Helvetica,sans-Serif" font-size="10.00">IPlugParameter.h</text>
</a>
</g>
</g>
<!-- Node29&#45;&gt;Node31 -->
<g id="edge56" class="edge"><title>Node29&#45;&gt;Node31</title>
<path fill="none" stroke="midnightblue" d="M938.069,-342.898C971.878,-338.62 1013.25,-327.55 1039,-300 1065.2,-271.969 1067.5,-224.168 1066.49,-197.817"/>
<polygon fill="midnightblue" stroke="midnightblue" points="1069.98,-197.439 1065.9,-187.662 1062.99,-197.85 1069.98,-197.439"/>
</g>
<!-- Node33 -->
<g id="node33" class="node"><title>Node33</title>
<g id="a_node33"><a xlink:href="_i_plug_midi_8h.html" target="_top" xlink:title="MIDI and sysex structs/utilites. ">
<polygon fill="white" stroke="black" points="686.5,-224.5 686.5,-243.5 751.5,-243.5 751.5,-224.5 686.5,-224.5"/>
<text text-anchor="middle" x="719" y="-231.5" font-family="Helvetica,sans-Serif" font-size="10.00">IPlugMidi.h</text>
</a>
</g>
</g>
<!-- Node29&#45;&gt;Node33 -->
<g id="edge62" class="edge"><title>Node29&#45;&gt;Node33</title>
<path fill="none" stroke="midnightblue" d="M844.759,-336.44C820.54,-329.53 789.255,-317.952 766,-300 749.52,-287.278 736.259,-267.248 728.078,-252.783"/>
<polygon fill="midnightblue" stroke="midnightblue" points="731.072,-250.961 723.249,-243.817 724.91,-254.281 731.072,-250.961"/>
</g>
<!-- Node34 -->
<g id="node34" class="node"><title>Node34</title>
<g id="a_node34"><a xlink:href="_i_plug_structs_8h_source.html" target="_top" xlink:title="IPlugStructs.h">
<polygon fill="white" stroke="black" points="951.5,-280.5 951.5,-299.5 1030.5,-299.5 1030.5,-280.5 951.5,-280.5"/>
<text text-anchor="middle" x="991" y="-287.5" font-family="Helvetica,sans-Serif" font-size="10.00">IPlugStructs.h</text>
</a>
</g>
</g>
<!-- Node29&#45;&gt;Node34 -->
<g id="edge68" class="edge"><title>Node29&#45;&gt;Node34</title>
<path fill="none" stroke="midnightblue" d="M899.513,-336.324C917.072,-327.625 944.331,-314.12 964.531,-304.113"/>
<polygon fill="midnightblue" stroke="midnightblue" points="966.124,-307.23 973.531,-299.655 963.016,-300.958 966.124,-307.23"/>
</g>
<!-- Node31&#45;&gt;Node8 -->
<g id="edge58" class="edge"><title>Node31&#45;&gt;Node8</title>
<path fill="none" stroke="midnightblue" d="M1062.34,-168.303C1054.77,-145.23 1030.7,-82.4294 986,-56 938.292,-27.7941 772.919,-16.2586 701.393,-12.5115"/>
<polygon fill="midnightblue" stroke="midnightblue" points="701.312,-9.0031 691.148,-11.9949 700.959,-15.9942 701.312,-9.0031"/>
</g>
<!-- Node31&#45;&gt;Node11 -->
<g id="edge60" class="edge"><title>Node31&#45;&gt;Node11</title>
<path fill="none" stroke="midnightblue" d="M1057.53,-168.151C1046.43,-155.218 1024.68,-130.667 1004,-112 991.961,-101.131 977.492,-90.0682 965.897,-81.6314"/>
<polygon fill="midnightblue" stroke="midnightblue" points="967.843,-78.7205 957.677,-75.7382 963.765,-84.4095 967.843,-78.7205"/>
</g>
<!-- Node31&#45;&gt;Node13 -->
<g id="edge61" class="edge"><title>Node31&#45;&gt;Node13</title>
<path fill="none" stroke="midnightblue" d="M1019.52,-168.444C967.404,-158.637 882.238,-142.613 828.21,-132.447"/>
<polygon fill="midnightblue" stroke="midnightblue" points="828.644,-128.968 818.169,-130.558 827.35,-135.847 828.644,-128.968"/>
</g>
<!-- Node31&#45;&gt;Node20 -->
<g id="edge59" class="edge"><title>Node31&#45;&gt;Node20</title>
<path fill="none" stroke="midnightblue" d="M1090.51,-168.444C1117.6,-159.359 1160.59,-144.939 1190.87,-134.783"/>
<polygon fill="midnightblue" stroke="midnightblue" points="1192.24,-138.015 1200.61,-131.516 1190.01,-131.378 1192.24,-138.015"/>
</g>
<!-- Node32 -->
<g id="node32" class="node"><title>Node32</title>
<polygon fill="white" stroke="#bfbfbf" points="1094,-112.5 1094,-131.5 1140,-131.5 1140,-112.5 1094,-112.5"/>
<text text-anchor="middle" x="1117" y="-119.5" font-family="Helvetica,sans-Serif" font-size="10.00">atomic</text>
</g>
<!-- Node31&#45;&gt;Node32 -->
<g id="edge57" class="edge"><title>Node31&#45;&gt;Node32</title>
<path fill="none" stroke="midnightblue" d="M1073.59,-168.083C1081.16,-160.22 1092.38,-148.569 1101.51,-139.081"/>
<polygon fill="midnightblue" stroke="midnightblue" points="1104.16,-141.382 1108.57,-131.751 1099.12,-136.527 1104.16,-141.382"/>
</g>
<!-- Node33&#45;&gt;Node3 -->
<g id="edge67" class="edge"><title>Node33&#45;&gt;Node3</title>
<path fill="none" stroke="midnightblue" d="M686.423,-228.017C624.198,-218.498 488.128,-197.682 414.925,-186.484"/>
<polygon fill="midnightblue" stroke="midnightblue" points="415.011,-182.957 404.597,-184.904 413.953,-189.876 415.011,-182.957"/>
</g>
<!-- Node33&#45;&gt;Node4 -->
<g id="edge65" class="edge"><title>Node33&#45;&gt;Node4</title>
<path fill="none" stroke="midnightblue" d="M686.256,-232.654C577.234,-230.698 230.082,-217.731 171,-132 130.354,-73.0207 270.995,-66.3902 336.834,-66.4143"/>
<polygon fill="midnightblue" stroke="midnightblue" points="337.07,-69.9156 347.09,-66.4723 337.11,-62.9157 337.07,-69.9156"/>
</g>
<!-- Node33&#45;&gt;Node7 -->
<g id="edge64" class="edge"><title>Node33&#45;&gt;Node7</title>
<path fill="none" stroke="midnightblue" d="M687.115,-224.423C659.483,-216.493 618.75,-203.596 585,-188 553.16,-173.286 518.854,-151.517 497.651,-137.295"/>
<polygon fill="midnightblue" stroke="midnightblue" points="499.389,-134.245 489.149,-131.524 495.458,-140.036 499.389,-134.245"/>
</g>
<!-- Node33&#45;&gt;Node10 -->
<g id="edge63" class="edge"><title>Node33&#45;&gt;Node10</title>
<path fill="none" stroke="midnightblue" d="M721.071,-224.397C723.74,-211.77 727.428,-187.596 722,-168 719.208,-157.921 713.491,-147.832 708.033,-139.769"/>
<polygon fill="midnightblue" stroke="midnightblue" points="710.847,-137.688 702.151,-131.636 705.175,-141.79 710.847,-137.688"/>
</g>
<!-- Node33&#45;&gt;Node14 -->
<g id="edge66" class="edge"><title>Node33&#45;&gt;Node14</title>
<path fill="none" stroke="midnightblue" d="M751.642,-232.957C836.025,-232.287 1059.05,-226.792 1120,-188 1157.79,-163.944 1179.24,-112.968 1188.49,-85.484"/>
<polygon fill="midnightblue" stroke="midnightblue" points="1191.94,-86.1841 1191.63,-75.5938 1185.27,-84.0666 1191.94,-86.1841"/>
</g>
<!-- Node34&#45;&gt;Node2 -->
<g id="edge72" class="edge"><title>Node34&#45;&gt;Node2</title>
<path fill="none" stroke="midnightblue" d="M951.451,-281.543C948.257,-281 945.077,-280.478 942,-280 622.354,-230.318 530.291,-279.438 220,-188 164.702,-171.704 147.068,-169.168 103,-132 87.2012,-118.675 74.1671,-98.7456 66.0567,-84.47"/>
<polygon fill="midnightblue" stroke="midnightblue" points="69.1074,-82.7535 61.2549,-75.6408 62.9579,-86.0979 69.1074,-82.7535"/>
</g>
<!-- Node34&#45;&gt;Node11 -->
<g id="edge70" class="edge"><title>Node34&#45;&gt;Node11</title>
<path fill="none" stroke="midnightblue" d="M991.143,-280.275C991.325,-254.085 990.08,-174.129 970,-112 966.879,-102.343 961.607,-92.398 956.707,-84.3215"/>
<polygon fill="midnightblue" stroke="midnightblue" points="959.612,-82.3676 951.277,-75.8275 953.714,-86.1381 959.612,-82.3676"/>
</g>
<!-- Node34&#45;&gt;Node13 -->
<g id="edge75" class="edge"><title>Node34&#45;&gt;Node13</title>
<path fill="none" stroke="midnightblue" d="M979.848,-280.309C945.413,-253.472 840.48,-171.694 797.09,-137.878"/>
<polygon fill="midnightblue" stroke="midnightblue" points="799.081,-134.992 789.042,-131.605 794.778,-140.513 799.081,-134.992"/>
</g>
<!-- Node34&#45;&gt;Node14 -->
<g id="edge69" class="edge"><title>Node34&#45;&gt;Node14</title>
<path fill="none" stroke="midnightblue" d="M1027.66,-280.486C1089.43,-263.938 1212.53,-220.974 1264,-132 1276.54,-110.329 1249.95,-91.6137 1226.01,-79.9038"/>
<polygon fill="midnightblue" stroke="midnightblue" points="1227.27,-76.6284 1216.72,-75.6204 1224.34,-82.9855 1227.27,-76.6284"/>
</g>
<!-- Node34&#45;&gt;Node17 -->
<g id="edge73" class="edge"><title>Node34&#45;&gt;Node17</title>
<path fill="none" stroke="midnightblue" d="M1030.84,-282.563C1066.19,-275.905 1118.63,-263.674 1161,-244 1200.36,-225.72 1209.63,-217.998 1241,-188 1275.31,-155.182 1307.16,-109.015 1323.18,-84.2711"/>
<polygon fill="midnightblue" stroke="midnightblue" points="1326.26,-85.9445 1328.69,-75.6313 1320.36,-82.1801 1326.26,-85.9445"/>
</g>
<!-- Node34&#45;&gt;Node24 -->
<g id="edge71" class="edge"><title>Node34&#45;&gt;Node24</title>
<path fill="none" stroke="midnightblue" d="M988.099,-280.382C985.059,-271.33 980.156,-256.677 976,-244 964.07,-207.608 950.395,-164.959 942.821,-141.255"/>
<polygon fill="midnightblue" stroke="midnightblue" points="946.089,-139.98 939.713,-131.518 939.42,-142.109 946.089,-139.98"/>
</g>
<!-- Node34&#45;&gt;Node33 -->
<g id="edge74" class="edge"><title>Node34&#45;&gt;Node33</title>
<path fill="none" stroke="midnightblue" d="M951.449,-281.148C900.893,-271.111 813.7,-253.801 761.683,-243.474"/>
<polygon fill="midnightblue" stroke="midnightblue" points="762.26,-240.02 751.769,-241.506 760.896,-246.886 762.26,-240.02"/>
</g>
</g>
</svg>
