<?xml version="1.0" encoding="UTF-8" standalone="no"?>
<!DOCTYPE svg PUBLIC "-//W3C//DTD SVG 1.1//EN"
 "http://www.w3.org/Graphics/SVG/1.1/DTD/svg11.dtd">
<!-- Generated by graphviz version 2.36.0 (20140111.2315)
 -->
<!-- Title: IVMeterControl.h Pages: 1 -->
<svg width="2116pt" height="588pt"
 viewBox="0.00 0.00 2116.00 588.00" xmlns="http://www.w3.org/2000/svg" xmlns:xlink="http://www.w3.org/1999/xlink">
<g id="graph0" class="graph" transform="scale(1 1) rotate(0) translate(4 584)">
<title>IVMeterControl.h</title>
<polygon fill="white" stroke="none" points="-4,4 -4,-584 2112,-584 2112,4 -4,4"/>
<!-- Node1 -->
<g id="node1" class="node"><title>Node1</title>
<polygon fill="#bfbfbf" stroke="black" points="1827.5,-560.5 1827.5,-579.5 1918.5,-579.5 1918.5,-560.5 1827.5,-560.5"/>
<text text-anchor="middle" x="1873" y="-567.5" font-family="Helvetica,sans-Serif" font-size="10.00">IVMeterControl.h</text>
</g>
<!-- Node2 -->
<g id="node2" class="node"><title>Node2</title>
<g id="a_node2"><a xlink:href="_i_control_8h.html" target="_top" xlink:title="This file contains the base IControl implementation, along with some base classes for specific types ...">
<polygon fill="white" stroke="black" points="1843.5,-504.5 1843.5,-523.5 1902.5,-523.5 1902.5,-504.5 1843.5,-504.5"/>
<text text-anchor="middle" x="1873" y="-511.5" font-family="Helvetica,sans-Serif" font-size="10.00">IControl.h</text>
</a>
</g>
</g>
<!-- Node1&#45;&gt;Node2 -->
<g id="edge1" class="edge"><title>Node1&#45;&gt;Node2</title>
<path fill="none" stroke="midnightblue" d="M1873,-560.083C1873,-553.006 1873,-542.861 1873,-533.986"/>
<polygon fill="midnightblue" stroke="midnightblue" points="1876.5,-533.751 1873,-523.751 1869.5,-533.751 1876.5,-533.751"/>
</g>
<!-- Node36 -->
<g id="node36" class="node"><title>Node36</title>
<g id="a_node36"><a xlink:href="_i_plug_structs_8h_source.html" target="_top" xlink:title="IPlugStructs.h">
<polygon fill="white" stroke="black" points="1517.5,-280.5 1517.5,-299.5 1596.5,-299.5 1596.5,-280.5 1517.5,-280.5"/>
<text text-anchor="middle" x="1557" y="-287.5" font-family="Helvetica,sans-Serif" font-size="10.00">IPlugStructs.h</text>
</a>
</g>
</g>
<!-- Node1&#45;&gt;Node36 -->
<g id="edge89" class="edge"><title>Node1&#45;&gt;Node36</title>
<path fill="none" stroke="midnightblue" d="M1863.2,-560.375C1818.32,-520.892 1632.17,-357.135 1574.27,-306.193"/>
<polygon fill="midnightblue" stroke="midnightblue" points="1576.51,-303.502 1566.69,-299.524 1571.89,-308.757 1576.51,-303.502"/>
</g>
<!-- Node40 -->
<g id="node40" class="node"><title>Node40</title>
<g id="a_node40"><a xlink:href="_i_plug_queue_8h.html" target="_top" xlink:title="A lock&#45;free SPSC queue used to transfer data between threads based on MLQueue.h by Randy Jones based ...">
<polygon fill="white" stroke="black" points="1992,-504.5 1992,-523.5 2068,-523.5 2068,-504.5 1992,-504.5"/>
<text text-anchor="middle" x="2030" y="-511.5" font-family="Helvetica,sans-Serif" font-size="10.00">IPlugQueue.h</text>
</a>
</g>
</g>
<!-- Node1&#45;&gt;Node40 -->
<g id="edge86" class="edge"><title>Node1&#45;&gt;Node40</title>
<path fill="none" stroke="midnightblue" d="M1897.88,-560.444C1924.29,-551.359 1966.22,-536.939 1995.74,-526.783"/>
<polygon fill="midnightblue" stroke="midnightblue" points="1996.92,-530.079 2005.24,-523.516 1994.64,-523.459 1996.92,-530.079"/>
</g>
<!-- Node3 -->
<g id="node3" class="node"><title>Node3</title>
<polygon fill="white" stroke="#bfbfbf" points="611,-0.5 611,-19.5 657,-19.5 657,-0.5 611,-0.5"/>
<text text-anchor="middle" x="634" y="-7.5" font-family="Helvetica,sans-Serif" font-size="10.00">cstring</text>
</g>
<!-- Node2&#45;&gt;Node3 -->
<g id="edge2" class="edge"><title>Node2&#45;&gt;Node3</title>
<path fill="none" stroke="midnightblue" d="M1843.2,-512.865C1603.6,-511.589 0,-499.448 0,-403 0,-403 0,-403 0,-121 0,-83.1569 21.3128,-73.2415 55,-56 103.631,-31.1103 484.922,-16.1105 600.746,-12.0946"/>
<polygon fill="midnightblue" stroke="midnightblue" points="600.924,-15.5906 610.799,-11.7506 600.685,-8.59473 600.924,-15.5906"/>
</g>
<!-- Node4 -->
<g id="node4" class="node"><title>Node4</title>
<polygon fill="white" stroke="#bfbfbf" points="1763.5,-0.5 1763.5,-19.5 1808.5,-19.5 1808.5,-0.5 1763.5,-0.5"/>
<text text-anchor="middle" x="1786" y="-7.5" font-family="Helvetica,sans-Serif" font-size="10.00">cstdlib</text>
</g>
<!-- Node2&#45;&gt;Node4 -->
<g id="edge3" class="edge"><title>Node2&#45;&gt;Node4</title>
<path fill="none" stroke="midnightblue" d="M1891.63,-504.346C1933.21,-483.594 2030,-426.731 2030,-347 2030,-347 2030,-347 2030,-121 2030,-29.4458 1885.46,-13.6613 1818.88,-11.2473"/>
<polygon fill="midnightblue" stroke="midnightblue" points="1818.61,-7.73867 1808.52,-10.9577 1818.42,-14.7359 1818.61,-7.73867"/>
</g>
<!-- Node5 -->
<g id="node5" class="node"><title>Node5</title>
<g id="a_node5"><a xlink:href="_i_plug_platform_8h.html" target="_top" xlink:title="Include to get consistently named preprocessor macros for different platforms and logging functionali...">
<polygon fill="white" stroke="black" points="1744,-56.5 1744,-75.5 1828,-75.5 1828,-56.5 1744,-56.5"/>
<text text-anchor="middle" x="1786" y="-63.5" font-family="Helvetica,sans-Serif" font-size="10.00">IPlugPlatform.h</text>
</a>
</g>
</g>
<!-- Node2&#45;&gt;Node5 -->
<g id="edge4" class="edge"><title>Node2&#45;&gt;Node5</title>
<path fill="none" stroke="midnightblue" d="M1885.66,-504.35C1908.44,-487.643 1954,-448.535 1954,-403 1954,-403 1954,-403 1954,-233 1954,-178.563 2006.69,-154.759 1973,-112 1956.5,-91.0635 1887.86,-78.7394 1838.52,-72.4281"/>
<polygon fill="midnightblue" stroke="midnightblue" points="1838.67,-68.9194 1828.31,-71.1717 1837.81,-75.867 1838.67,-68.9194"/>
</g>
<!-- Node6 -->
<g id="node6" class="node"><title>Node6</title>
<polygon fill="white" stroke="#bfbfbf" points="902,-56.5 902,-75.5 966,-75.5 966,-56.5 902,-56.5"/>
<text text-anchor="middle" x="934" y="-63.5" font-family="Helvetica,sans-Serif" font-size="10.00">wdlstring.h</text>
</g>
<!-- Node2&#45;&gt;Node6 -->
<g id="edge7" class="edge"><title>Node2&#45;&gt;Node6</title>
<path fill="none" stroke="midnightblue" d="M1865.8,-504.053C1837.09,-469.05 1726.47,-340.351 1605,-280 1426.47,-191.3 1354.26,-253.561 1166,-188 1147.23,-181.463 1144.37,-175.581 1126,-168 1078.84,-148.541 1061.97,-156.086 1017,-132 991.719,-118.461 966.292,-97.1451 950.368,-82.6442"/>
<polygon fill="midnightblue" stroke="midnightblue" points="952.667,-80.0023 942.958,-75.7597 947.902,-85.1305 952.667,-80.0023"/>
</g>
<!-- Node7 -->
<g id="node7" class="node"><title>Node7</title>
<polygon fill="white" stroke="#bfbfbf" points="1530.5,-112.5 1530.5,-131.5 1579.5,-131.5 1579.5,-112.5 1530.5,-112.5"/>
<text text-anchor="middle" x="1555" y="-119.5" font-family="Helvetica,sans-Serif" font-size="10.00">ptrlist.h</text>
</g>
<!-- Node2&#45;&gt;Node7 -->
<g id="edge8" class="edge"><title>Node2&#45;&gt;Node7</title>
<path fill="none" stroke="midnightblue" d="M1877.05,-504.379C1885.23,-486.114 1903,-441.996 1903,-403 1903,-403 1903,-403 1903,-289 1903,-151.187 1677.92,-127.674 1589.79,-123.75"/>
<polygon fill="midnightblue" stroke="midnightblue" points="1589.88,-120.251 1579.75,-123.362 1589.61,-127.245 1589.88,-120.251"/>
</g>
<!-- Node8 -->
<g id="node8" class="node"><title>Node8</title>
<g id="a_node8"><a xlink:href="_i_graphics_8h.html" target="_top" xlink:title="The lowest level base class of an IGraphics context. ">
<polygon fill="white" stroke="black" points="937.5,-448.5 937.5,-467.5 1004.5,-467.5 1004.5,-448.5 937.5,-448.5"/>
<text text-anchor="middle" x="971" y="-455.5" font-family="Helvetica,sans-Serif" font-size="10.00">IGraphics.h</text>
</a>
</g>
</g>
<!-- Node2&#45;&gt;Node8 -->
<g id="edge9" class="edge"><title>Node2&#45;&gt;Node8</title>
<path fill="none" stroke="midnightblue" d="M1843.25,-511.219C1710.72,-503.285 1173.75,-471.138 1015.25,-461.649"/>
<polygon fill="midnightblue" stroke="midnightblue" points="1015.13,-458.136 1004.94,-461.032 1014.71,-465.123 1015.13,-458.136"/>
</g>
<!-- Node5&#45;&gt;Node3 -->
<g id="edge5" class="edge"><title>Node5&#45;&gt;Node3</title>
<path fill="none" stroke="midnightblue" d="M1743.91,-60.3392C1728.53,-58.7683 1710.99,-57.1292 1695,-56 1290.73,-27.4582 798.436,-14.7532 667.361,-11.7321"/>
<polygon fill="midnightblue" stroke="midnightblue" points="667.25,-8.22879 657.173,-11.5002 667.091,-15.227 667.25,-8.22879"/>
</g>
<!-- Node5&#45;&gt;Node4 -->
<g id="edge6" class="edge"><title>Node5&#45;&gt;Node4</title>
<path fill="none" stroke="midnightblue" d="M1786,-56.083C1786,-49.0059 1786,-38.8611 1786,-29.9865"/>
<polygon fill="midnightblue" stroke="midnightblue" points="1789.5,-29.751 1786,-19.7511 1782.5,-29.7511 1789.5,-29.751"/>
</g>
<!-- Node9 -->
<g id="node9" class="node"><title>Node9</title>
<g id="a_node9"><a xlink:href="_i_plug_constants_8h.html" target="_top" xlink:title="IPlug Constant definitions, Types, magic numbers. ">
<polygon fill="white" stroke="black" points="1594,-56.5 1594,-75.5 1686,-75.5 1686,-56.5 1594,-56.5"/>
<text text-anchor="middle" x="1640" y="-63.5" font-family="Helvetica,sans-Serif" font-size="10.00">IPlugConstants.h</text>
</a>
</g>
</g>
<!-- Node8&#45;&gt;Node9 -->
<g id="edge10" class="edge"><title>Node8&#45;&gt;Node9</title>
<path fill="none" stroke="midnightblue" d="M1004.76,-455.307C1144.59,-447.857 1671,-415.276 1671,-347 1671,-347 1671,-347 1671,-289 1671,-210.051 1672.7,-189.163 1656,-112 1654.05,-102.984 1650.77,-93.3061 1647.69,-85.2439"/>
<polygon fill="midnightblue" stroke="midnightblue" points="1650.86,-83.7395 1643.88,-75.768 1644.36,-86.3518 1650.86,-83.7395"/>
</g>
<!-- Node10 -->
<g id="node10" class="node"><title>Node10</title>
<g id="a_node10"><a xlink:href="_i_plug_logger_8h.html" target="_top" xlink:title="IPlug logging a.k.a tracing functionality. ">
<polygon fill="white" stroke="black" points="334.5,-168.5 334.5,-187.5 411.5,-187.5 411.5,-168.5 334.5,-168.5"/>
<text text-anchor="middle" x="373" y="-175.5" font-family="Helvetica,sans-Serif" font-size="10.00">IPlugLogger.h</text>
</a>
</g>
</g>
<!-- Node8&#45;&gt;Node10 -->
<g id="edge11" class="edge"><title>Node8&#45;&gt;Node10</title>
<path fill="none" stroke="midnightblue" d="M937.279,-456.471C774.297,-453.48 76,-435.5 76,-347 76,-347 76,-347 76,-289 76,-236.678 240.138,-201.357 324.372,-186.676"/>
<polygon fill="midnightblue" stroke="midnightblue" points="325.21,-190.083 334.477,-184.947 324.03,-183.184 325.21,-190.083"/>
</g>
<!-- Node21 -->
<g id="node21" class="node"><title>Node21</title>
<g id="a_node21"><a xlink:href="_i_graphics_constants_8h_source.html" target="_top" xlink:title="IGraphicsConstants.h">
<polygon fill="white" stroke="black" points="1750,-112.5 1750,-131.5 1862,-131.5 1862,-112.5 1750,-112.5"/>
<text text-anchor="middle" x="1806" y="-119.5" font-family="Helvetica,sans-Serif" font-size="10.00">IGraphicsConstants.h</text>
</a>
</g>
</g>
<!-- Node8&#45;&gt;Node21 -->
<g id="edge32" class="edge"><title>Node8&#45;&gt;Node21</title>
<path fill="none" stroke="midnightblue" d="M1004.72,-456.722C1141.13,-455.36 1647.75,-447.904 1709,-412 1732.01,-398.515 1798.65,-279.707 1808,-244 1817.24,-208.734 1813.03,-165.684 1809.37,-141.605"/>
<polygon fill="midnightblue" stroke="midnightblue" points="1812.81,-140.989 1807.72,-131.699 1805.91,-142.137 1812.81,-140.989"/>
</g>
<!-- Node22 -->
<g id="node22" class="node"><title>Node22</title>
<g id="a_node22"><a xlink:href="_i_graphics_structs_8h_source.html" target="_top" xlink:title="IGraphicsStructs.h">
<polygon fill="white" stroke="black" points="1175,-168.5 1175,-187.5 1273,-187.5 1273,-168.5 1175,-168.5"/>
<text text-anchor="middle" x="1224" y="-175.5" font-family="Helvetica,sans-Serif" font-size="10.00">IGraphicsStructs.h</text>
</a>
</g>
</g>
<!-- Node8&#45;&gt;Node22 -->
<g id="edge34" class="edge"><title>Node8&#45;&gt;Node22</title>
<path fill="none" stroke="midnightblue" d="M1004.71,-451.672C1056.06,-441.423 1148,-413.752 1148,-347 1148,-347 1148,-347 1148,-289 1148,-249.276 1181.96,-213.504 1204.48,-194.154"/>
<polygon fill="midnightblue" stroke="midnightblue" points="1206.98,-196.634 1212.46,-187.567 1202.52,-191.236 1206.98,-196.634"/>
</g>
<!-- Node28 -->
<g id="node28" class="node"><title>Node28</title>
<g id="a_node28"><a xlink:href="_i_graphics_utilities_8h_source.html" target="_top" xlink:title="IGraphicsUtilities.h">
<polygon fill="white" stroke="black" points="1699,-224.5 1699,-243.5 1799,-243.5 1799,-224.5 1699,-224.5"/>
<text text-anchor="middle" x="1749" y="-231.5" font-family="Helvetica,sans-Serif" font-size="10.00">IGraphicsUtilities.h</text>
</a>
</g>
</g>
<!-- Node8&#45;&gt;Node28 -->
<g id="edge47" class="edge"><title>Node8&#45;&gt;Node28</title>
<path fill="none" stroke="midnightblue" d="M1004.76,-457.014C1138.99,-456.785 1630.16,-453.121 1685,-412 1735.95,-373.793 1746.42,-291.164 1748.51,-253.902"/>
<polygon fill="midnightblue" stroke="midnightblue" points="1752.02,-253.647 1748.94,-243.512 1745.03,-253.36 1752.02,-253.647"/>
</g>
<!-- Node29 -->
<g id="node29" class="node"><title>Node29</title>
<g id="a_node29"><a xlink:href="_i_graphics_popup_menu_8h.html" target="_top" xlink:title="A class for setting the contents of a pop up menu. ">
<polygon fill="white" stroke="black" points="650.5,-168.5 650.5,-187.5 769.5,-187.5 769.5,-168.5 650.5,-168.5"/>
<text text-anchor="middle" x="710" y="-175.5" font-family="Helvetica,sans-Serif" font-size="10.00">IGraphicsPopupMenu.h</text>
</a>
</g>
</g>
<!-- Node8&#45;&gt;Node29 -->
<g id="edge50" class="edge"><title>Node8&#45;&gt;Node29</title>
<path fill="none" stroke="midnightblue" d="M970.597,-448.424C969.273,-427.654 963.724,-373.602 941,-336 894.938,-259.779 796.07,-212.115 743.875,-191.265"/>
<polygon fill="midnightblue" stroke="midnightblue" points="744.98,-187.939 734.391,-187.567 742.437,-194.461 744.98,-187.939"/>
</g>
<!-- Node30 -->
<g id="node30" class="node"><title>Node30</title>
<g id="a_node30"><a xlink:href="_i_graphics_editor_delegate_8h.html" target="_top" xlink:title="An editor delgate base class for a SOMETHING that uses IGraphics for it&#39;s UI. ">
<polygon fill="white" stroke="black" points="811.5,-392.5 811.5,-411.5 942.5,-411.5 942.5,-392.5 811.5,-392.5"/>
<text text-anchor="middle" x="877" y="-399.5" font-family="Helvetica,sans-Serif" font-size="10.00">IGraphicsEditorDelegate.h</text>
</a>
</g>
</g>
<!-- Node8&#45;&gt;Node30 -->
<g id="edge57" class="edge"><title>Node8&#45;&gt;Node30</title>
<path fill="none" stroke="midnightblue" d="M955.897,-448.324C941.097,-439.822 918.306,-426.729 901.018,-416.797"/>
<polygon fill="midnightblue" stroke="midnightblue" points="902.48,-413.601 892.065,-411.655 898.993,-419.671 902.48,-413.601"/>
</g>
<!-- Node37 -->
<g id="node37" class="node"><title>Node37</title>
<polygon fill="white" stroke="#bfbfbf" points="604.5,-392.5 604.5,-411.5 663.5,-411.5 663.5,-392.5 604.5,-392.5"/>
<text text-anchor="middle" x="634" y="-399.5" font-family="Helvetica,sans-Serif" font-size="10.00">heapbuf.h</text>
</g>
<!-- Node8&#45;&gt;Node37 -->
<g id="edge83" class="edge"><title>Node8&#45;&gt;Node37</title>
<path fill="none" stroke="midnightblue" d="M937.214,-452.847C883.442,-446.035 774.897,-431.462 673.884,-412.245"/>
<polygon fill="midnightblue" stroke="midnightblue" points="674.301,-408.761 663.82,-410.31 672.979,-415.635 674.301,-408.761"/>
</g>
<!-- Node38 -->
<g id="node38" class="node"><title>Node38</title>
<polygon fill="white" stroke="#bfbfbf" points="681.5,-392.5 681.5,-411.5 722.5,-411.5 722.5,-392.5 681.5,-392.5"/>
<text text-anchor="middle" x="702" y="-399.5" font-family="Helvetica,sans-Serif" font-size="10.00">stack</text>
</g>
<!-- Node8&#45;&gt;Node38 -->
<g id="edge84" class="edge"><title>Node8&#45;&gt;Node38</title>
<path fill="none" stroke="midnightblue" d="M937.117,-451.776C892.488,-444.643 811.41,-430.82 732.666,-411.936"/>
<polygon fill="midnightblue" stroke="midnightblue" points="733.122,-408.445 722.579,-409.485 731.47,-415.247 733.122,-408.445"/>
</g>
<!-- Node39 -->
<g id="node39" class="node"><title>Node39</title>
<polygon fill="white" stroke="#bfbfbf" points="741,-392.5 741,-411.5 793,-411.5 793,-392.5 741,-392.5"/>
<text text-anchor="middle" x="767" y="-399.5" font-family="Helvetica,sans-Serif" font-size="10.00">memory</text>
</g>
<!-- Node8&#45;&gt;Node39 -->
<g id="edge85" class="edge"><title>Node8&#45;&gt;Node39</title>
<path fill="none" stroke="midnightblue" d="M938.676,-448.444C901.651,-438.643 841.165,-422.632 802.758,-412.465"/>
<polygon fill="midnightblue" stroke="midnightblue" points="803.586,-409.064 793.024,-409.889 801.795,-415.831 803.586,-409.064"/>
</g>
<!-- Node10&#45;&gt;Node3 -->
<g id="edge16" class="edge"><title>Node10&#45;&gt;Node3</title>
<path fill="none" stroke="midnightblue" d="M334.254,-177.9C262.654,-178.187 120.693,-171.538 164,-112 215.868,-40.6929 502.312,-18.2899 600.761,-12.6405"/>
<polygon fill="midnightblue" stroke="midnightblue" points="600.961,-16.1348 610.753,-12.0881 600.575,-9.14548 600.961,-16.1348"/>
</g>
<!-- Node10&#45;&gt;Node6 -->
<g id="edge19" class="edge"><title>Node10&#45;&gt;Node6</title>
<path fill="none" stroke="midnightblue" d="M379.404,-168.368C390.765,-153.806 416.003,-124.709 445,-112 455.209,-107.526 775.244,-80.3167 891.949,-70.5152"/>
<polygon fill="midnightblue" stroke="midnightblue" points="892.273,-74.0003 901.946,-69.6764 891.688,-67.0248 892.273,-74.0003"/>
</g>
<!-- Node10&#45;&gt;Node9 -->
<g id="edge21" class="edge"><title>Node10&#45;&gt;Node9</title>
<path fill="none" stroke="midnightblue" d="M411.574,-173.256C489.889,-165.638 673.152,-147.722 827,-132 911.471,-123.368 932.419,-119.476 1017,-112 1240.26,-92.2659 1296.47,-92.3813 1520,-76 1540.76,-74.4786 1563.54,-72.7783 1583.62,-71.2686"/>
<polygon fill="midnightblue" stroke="midnightblue" points="1584.14,-74.7394 1593.85,-70.4985 1583.61,-67.7592 1584.14,-74.7394"/>
</g>
<!-- Node11 -->
<g id="node11" class="node"><title>Node11</title>
<polygon fill="white" stroke="#bfbfbf" points="346.5,-56.5 346.5,-75.5 389.5,-75.5 389.5,-56.5 346.5,-56.5"/>
<text text-anchor="middle" x="368" y="-63.5" font-family="Helvetica,sans-Serif" font-size="10.00">cstdio</text>
</g>
<!-- Node10&#45;&gt;Node11 -->
<g id="edge12" class="edge"><title>Node10&#45;&gt;Node11</title>
<path fill="none" stroke="midnightblue" d="M334.265,-173.768C282.611,-168.564 195.411,-156.344 176,-132 132.565,-77.5244 271.142,-68.4317 336.189,-67.1084"/>
<polygon fill="midnightblue" stroke="midnightblue" points="336.379,-70.6059 346.325,-66.9531 336.272,-63.6068 336.379,-70.6059"/>
</g>
<!-- Node12 -->
<g id="node12" class="node"><title>Node12</title>
<polygon fill="white" stroke="#bfbfbf" points="700,-56.5 700,-75.5 746,-75.5 746,-56.5 700,-56.5"/>
<text text-anchor="middle" x="723" y="-63.5" font-family="Helvetica,sans-Serif" font-size="10.00">cctype</text>
</g>
<!-- Node10&#45;&gt;Node12 -->
<g id="edge13" class="edge"><title>Node10&#45;&gt;Node12</title>
<path fill="none" stroke="midnightblue" d="M334.288,-174.499C274.528,-169.282 170.515,-154.001 209,-112 241.504,-76.5262 581.474,-68.8999 689.94,-67.3647"/>
<polygon fill="midnightblue" stroke="midnightblue" points="690.034,-70.8638 699.986,-67.2307 689.94,-63.8644 690.034,-70.8638"/>
</g>
<!-- Node13 -->
<g id="node13" class="node"><title>Node13</title>
<polygon fill="white" stroke="#bfbfbf" points="348.5,-112.5 348.5,-131.5 397.5,-131.5 397.5,-112.5 348.5,-112.5"/>
<text text-anchor="middle" x="373" y="-119.5" font-family="Helvetica,sans-Serif" font-size="10.00">cstdarg</text>
</g>
<!-- Node10&#45;&gt;Node13 -->
<g id="edge14" class="edge"><title>Node10&#45;&gt;Node13</title>
<path fill="none" stroke="midnightblue" d="M373,-168.083C373,-161.006 373,-150.861 373,-141.986"/>
<polygon fill="midnightblue" stroke="midnightblue" points="376.5,-141.751 373,-131.751 369.5,-141.751 376.5,-141.751"/>
</g>
<!-- Node14 -->
<g id="node14" class="node"><title>Node14</title>
<polygon fill="white" stroke="#bfbfbf" points="454,-112.5 454,-131.5 500,-131.5 500,-112.5 454,-112.5"/>
<text text-anchor="middle" x="477" y="-119.5" font-family="Helvetica,sans-Serif" font-size="10.00">cstdint</text>
</g>
<!-- Node10&#45;&gt;Node14 -->
<g id="edge15" class="edge"><title>Node10&#45;&gt;Node14</title>
<path fill="none" stroke="midnightblue" d="M389.709,-168.324C406.312,-159.703 432.002,-146.364 451.22,-136.386"/>
<polygon fill="midnightblue" stroke="midnightblue" points="453.07,-139.369 460.332,-131.655 449.844,-133.156 453.07,-139.369"/>
</g>
<!-- Node15 -->
<g id="node15" class="node"><title>Node15</title>
<polygon fill="white" stroke="#bfbfbf" points="218.5,-112.5 218.5,-131.5 259.5,-131.5 259.5,-112.5 218.5,-112.5"/>
<text text-anchor="middle" x="239" y="-119.5" font-family="Helvetica,sans-Serif" font-size="10.00">ctime</text>
</g>
<!-- Node10&#45;&gt;Node15 -->
<g id="edge17" class="edge"><title>Node10&#45;&gt;Node15</title>
<path fill="none" stroke="midnightblue" d="M351.767,-168.444C329.486,-159.465 294.27,-145.273 269.122,-135.139"/>
<polygon fill="midnightblue" stroke="midnightblue" points="270.276,-131.83 259.693,-131.339 267.66,-138.323 270.276,-131.83"/>
</g>
<!-- Node16 -->
<g id="node16" class="node"><title>Node16</title>
<polygon fill="white" stroke="#bfbfbf" points="518.5,-112.5 518.5,-131.5 567.5,-131.5 567.5,-112.5 518.5,-112.5"/>
<text text-anchor="middle" x="543" y="-119.5" font-family="Helvetica,sans-Serif" font-size="10.00">cassert</text>
</g>
<!-- Node10&#45;&gt;Node16 -->
<g id="edge18" class="edge"><title>Node10&#45;&gt;Node16</title>
<path fill="none" stroke="midnightblue" d="M399.937,-168.444C429.336,-159.105 476.487,-144.128 508.556,-133.941"/>
<polygon fill="midnightblue" stroke="midnightblue" points="509.926,-137.178 518.397,-130.815 507.807,-130.507 509.926,-137.178"/>
</g>
<!-- Node17 -->
<g id="node17" class="node"><title>Node17</title>
<polygon fill="white" stroke="#bfbfbf" points="278,-112.5 278,-131.5 330,-131.5 330,-112.5 278,-112.5"/>
<text text-anchor="middle" x="304" y="-119.5" font-family="Helvetica,sans-Serif" font-size="10.00">mutex.h</text>
</g>
<!-- Node10&#45;&gt;Node17 -->
<g id="edge20" class="edge"><title>Node10&#45;&gt;Node17</title>
<path fill="none" stroke="midnightblue" d="M361.914,-168.324C351.514,-160.185 335.739,-147.839 323.278,-138.087"/>
<polygon fill="midnightblue" stroke="midnightblue" points="325.32,-135.241 315.288,-131.834 321.006,-140.753 325.32,-135.241"/>
</g>
<!-- Node18 -->
<g id="node18" class="node"><title>Node18</title>
<g id="a_node18"><a xlink:href="_i_plug_utilities_8h.html" target="_top" xlink:title="Utility functions and macros. ">
<polygon fill="white" stroke="black" points="738,-112.5 738,-131.5 818,-131.5 818,-112.5 738,-112.5"/>
<text text-anchor="middle" x="778" y="-119.5" font-family="Helvetica,sans-Serif" font-size="10.00">IPlugUtilities.h</text>
</a>
</g>
</g>
<!-- Node10&#45;&gt;Node18 -->
<g id="edge22" class="edge"><title>Node10&#45;&gt;Node18</title>
<path fill="none" stroke="midnightblue" d="M411.833,-171.822C485.595,-161.987 645.894,-140.614 727.733,-129.702"/>
<polygon fill="midnightblue" stroke="midnightblue" points="728.34,-133.152 737.79,-128.361 727.415,-126.214 728.34,-133.152"/>
</g>
<!-- Node18&#45;&gt;Node3 -->
<g id="edge27" class="edge"><title>Node18&#45;&gt;Node3</title>
<path fill="none" stroke="midnightblue" d="M789.629,-112.329C805.55,-99.409 830.585,-74.6299 816,-56 797.86,-32.8281 714.542,-19.9394 667.173,-14.3679"/>
<polygon fill="midnightblue" stroke="midnightblue" points="667.416,-10.8731 657.086,-13.228 666.63,-17.8289 667.416,-10.8731"/>
</g>
<!-- Node18&#45;&gt;Node4 -->
<g id="edge26" class="edge"><title>Node18&#45;&gt;Node4</title>
<path fill="none" stroke="midnightblue" d="M788.954,-112.456C808.529,-97.7512 851.372,-68.0785 893,-56 1059,-7.83365 1611.97,-9.41472 1753.02,-10.6411"/>
<polygon fill="midnightblue" stroke="midnightblue" points="1753.16,-14.1425 1763.2,-10.7354 1753.23,-7.14278 1753.16,-14.1425"/>
</g>
<!-- Node18&#45;&gt;Node5 -->
<g id="edge31" class="edge"><title>Node18&#45;&gt;Node5</title>
<path fill="none" stroke="midnightblue" d="M818.231,-119.292C971.725,-112.734 1520.64,-88.8923 1695,-76 1707.62,-75.067 1721.2,-73.8427 1733.92,-72.5989"/>
<polygon fill="midnightblue" stroke="midnightblue" points="1734.3,-76.0784 1743.9,-71.6024 1733.61,-69.113 1734.3,-76.0784"/>
</g>
<!-- Node18&#45;&gt;Node6 -->
<g id="edge29" class="edge"><title>Node18&#45;&gt;Node6</title>
<path fill="none" stroke="midnightblue" d="M802.719,-112.444C828.848,-103.399 870.259,-89.064 899.576,-78.9158"/>
<polygon fill="midnightblue" stroke="midnightblue" points="901.092,-82.0951 909.397,-75.5164 898.802,-75.4801 901.092,-82.0951"/>
</g>
<!-- Node18&#45;&gt;Node9 -->
<g id="edge30" class="edge"><title>Node18&#45;&gt;Node9</title>
<path fill="none" stroke="midnightblue" d="M818.035,-113.811C822.732,-113.121 827.465,-112.495 832,-112 1136.39,-78.7779 1214.42,-95.4514 1520,-76 1540.77,-74.6777 1563.55,-73.0214 1583.63,-71.4914"/>
<polygon fill="midnightblue" stroke="midnightblue" points="1584.16,-74.9614 1593.86,-70.7053 1583.62,-67.982 1584.16,-74.9614"/>
</g>
<!-- Node18&#45;&gt;Node11 -->
<g id="edge25" class="edge"><title>Node18&#45;&gt;Node11</title>
<path fill="none" stroke="midnightblue" d="M737.941,-115.724C656.703,-105.024 474.017,-80.9632 400.025,-71.218"/>
<polygon fill="midnightblue" stroke="midnightblue" points="400.294,-67.7232 389.922,-69.8873 399.38,-74.6632 400.294,-67.7232"/>
</g>
<!-- Node18&#45;&gt;Node12 -->
<g id="edge28" class="edge"><title>Node18&#45;&gt;Node12</title>
<path fill="none" stroke="midnightblue" d="M768.918,-112.083C760.829,-104.141 748.805,-92.3354 739.09,-82.7973"/>
<polygon fill="midnightblue" stroke="midnightblue" points="741.501,-80.2595 731.913,-75.7511 736.597,-85.2545 741.501,-80.2595"/>
</g>
<!-- Node19 -->
<g id="node19" class="node"><title>Node19</title>
<polygon fill="white" stroke="#bfbfbf" points="1456,-56.5 1456,-75.5 1512,-75.5 1512,-56.5 1456,-56.5"/>
<text text-anchor="middle" x="1484" y="-63.5" font-family="Helvetica,sans-Serif" font-size="10.00">algorithm</text>
</g>
<!-- Node18&#45;&gt;Node19 -->
<g id="edge23" class="edge"><title>Node18&#45;&gt;Node19</title>
<path fill="none" stroke="midnightblue" d="M818.043,-113.886C822.739,-113.182 827.469,-112.533 832,-112 1064.13,-84.7094 1344.85,-72.2015 1445.66,-68.3564"/>
<polygon fill="midnightblue" stroke="midnightblue" points="1446.09,-71.8428 1455.95,-67.9703 1445.83,-64.8477 1446.09,-71.8428"/>
</g>
<!-- Node20 -->
<g id="node20" class="node"><title>Node20</title>
<polygon fill="white" stroke="#bfbfbf" points="764,-56.5 764,-75.5 808,-75.5 808,-56.5 764,-56.5"/>
<text text-anchor="middle" x="786" y="-63.5" font-family="Helvetica,sans-Serif" font-size="10.00">cmath</text>
</g>
<!-- Node18&#45;&gt;Node20 -->
<g id="edge24" class="edge"><title>Node18&#45;&gt;Node20</title>
<path fill="none" stroke="midnightblue" d="M779.321,-112.083C780.381,-104.927 781.906,-94.6353 783.231,-85.6911"/>
<polygon fill="midnightblue" stroke="midnightblue" points="786.7,-86.1561 784.704,-75.7511 779.776,-85.1302 786.7,-86.1561"/>
</g>
<!-- Node21&#45;&gt;Node5 -->
<g id="edge33" class="edge"><title>Node21&#45;&gt;Node5</title>
<path fill="none" stroke="midnightblue" d="M1802.7,-112.083C1800.02,-104.849 1796.15,-94.4087 1792.81,-85.3968"/>
<polygon fill="midnightblue" stroke="midnightblue" points="1796,-83.9129 1789.24,-75.7511 1789.43,-86.3442 1796,-83.9129"/>
</g>
<!-- Node22&#45;&gt;Node5 -->
<g id="edge45" class="edge"><title>Node22&#45;&gt;Node5</title>
<path fill="none" stroke="midnightblue" d="M1273.26,-168.985C1333.58,-158.983 1432.16,-141.982 1468,-132 1492.25,-125.246 1496.7,-118.582 1521,-112 1593.57,-92.3429 1679.76,-79.6043 1733.68,-72.8619"/>
<polygon fill="midnightblue" stroke="midnightblue" points="1734.19,-76.3254 1743.69,-71.6327 1733.34,-69.3775 1734.19,-76.3254"/>
</g>
<!-- Node22&#45;&gt;Node6 -->
<g id="edge42" class="edge"><title>Node22&#45;&gt;Node6</title>
<path fill="none" stroke="midnightblue" d="M1214.09,-168.437C1197.44,-154.503 1162.31,-126.976 1128,-112 1078.15,-90.2428 1016.31,-78.233 976.043,-72.2066"/>
<polygon fill="midnightblue" stroke="midnightblue" points="976.435,-68.7271 966.039,-70.7664 975.438,-75.6557 976.435,-68.7271"/>
</g>
<!-- Node22&#45;&gt;Node7 -->
<g id="edge43" class="edge"><title>Node22&#45;&gt;Node7</title>
<path fill="none" stroke="midnightblue" d="M1273.06,-169.889C1343.67,-159.576 1470.48,-140.748 1516,-132 1517.45,-131.721 1518.93,-131.427 1520.42,-131.121"/>
<polygon fill="midnightblue" stroke="midnightblue" points="1521.26,-134.52 1530.3,-128.99 1519.79,-127.677 1521.26,-134.52"/>
</g>
<!-- Node22&#45;&gt;Node16 -->
<g id="edge36" class="edge"><title>Node22&#45;&gt;Node16</title>
<path fill="none" stroke="midnightblue" d="M1174.75,-173.095C1043.93,-162.721 690.071,-134.662 577.727,-125.754"/>
<polygon fill="midnightblue" stroke="midnightblue" points="577.87,-122.254 567.624,-124.953 577.316,-129.232 577.87,-122.254"/>
</g>
<!-- Node22&#45;&gt;Node19 -->
<g id="edge38" class="edge"><title>Node22&#45;&gt;Node19</title>
<path fill="none" stroke="midnightblue" d="M1273.24,-169.055C1333.74,-158.967 1430.12,-141.707 1444,-132 1460.25,-120.632 1471.17,-100.338 1477.44,-85.4414"/>
<polygon fill="midnightblue" stroke="midnightblue" points="1480.85,-86.3422 1481.19,-75.7531 1474.32,-83.8141 1480.85,-86.3422"/>
</g>
<!-- Node22&#45;&gt;Node20 -->
<g id="edge35" class="edge"><title>Node22&#45;&gt;Node20</title>
<path fill="none" stroke="midnightblue" d="M1204.25,-168.391C1184.65,-159.7 1153.89,-145.645 1128,-132 1112.49,-123.826 1110.54,-117.82 1094,-112 1043.56,-94.2472 887.025,-77.0482 818.585,-70.1571"/>
<polygon fill="midnightblue" stroke="midnightblue" points="818.685,-66.6498 808.388,-69.1412 817.991,-73.6154 818.685,-66.6498"/>
</g>
<!-- Node22&#45;&gt;Node21 -->
<g id="edge46" class="edge"><title>Node22&#45;&gt;Node21</title>
<path fill="none" stroke="midnightblue" d="M1273.12,-172.443C1377.5,-162.757 1621.5,-140.119 1739.61,-129.16"/>
<polygon fill="midnightblue" stroke="midnightblue" points="1739.97,-132.641 1749.61,-128.232 1739.33,-125.671 1739.97,-132.641"/>
</g>
<!-- Node23 -->
<g id="node23" class="node"><title>Node23</title>
<polygon fill="white" stroke="#bfbfbf" points="1026.5,-112.5 1026.5,-131.5 1085.5,-131.5 1085.5,-112.5 1026.5,-112.5"/>
<text text-anchor="middle" x="1056" y="-119.5" font-family="Helvetica,sans-Serif" font-size="10.00">functional</text>
</g>
<!-- Node22&#45;&gt;Node23 -->
<g id="edge37" class="edge"><title>Node22&#45;&gt;Node23</title>
<path fill="none" stroke="midnightblue" d="M1197.38,-168.444C1168.99,-159.32 1123.86,-144.813 1092.25,-134.651"/>
<polygon fill="midnightblue" stroke="midnightblue" points="1093.09,-131.244 1082.5,-131.516 1090.94,-137.909 1093.09,-131.244"/>
</g>
<!-- Node24 -->
<g id="node24" class="node"><title>Node24</title>
<polygon fill="white" stroke="#bfbfbf" points="1384.5,-112.5 1384.5,-131.5 1435.5,-131.5 1435.5,-112.5 1384.5,-112.5"/>
<text text-anchor="middle" x="1410" y="-119.5" font-family="Helvetica,sans-Serif" font-size="10.00">numeric</text>
</g>
<!-- Node22&#45;&gt;Node24 -->
<g id="edge39" class="edge"><title>Node22&#45;&gt;Node24</title>
<path fill="none" stroke="midnightblue" d="M1253.47,-168.444C1286.29,-158.916 1339.32,-143.519 1374.43,-133.328"/>
<polygon fill="midnightblue" stroke="midnightblue" points="1375.63,-136.622 1384.26,-130.473 1373.68,-129.9 1375.63,-136.622"/>
</g>
<!-- Node25 -->
<g id="node25" class="node"><title>Node25</title>
<polygon fill="white" stroke="#bfbfbf" points="1180,-112.5 1180,-131.5 1226,-131.5 1226,-112.5 1180,-112.5"/>
<text text-anchor="middle" x="1203" y="-119.5" font-family="Helvetica,sans-Serif" font-size="10.00">chrono</text>
</g>
<!-- Node22&#45;&gt;Node25 -->
<g id="edge40" class="edge"><title>Node22&#45;&gt;Node25</title>
<path fill="none" stroke="midnightblue" d="M1220.53,-168.083C1217.69,-160.77 1213.57,-150.181 1210.04,-141.103"/>
<polygon fill="midnightblue" stroke="midnightblue" points="1213.29,-139.803 1206.4,-131.751 1206.77,-142.34 1213.29,-139.803"/>
</g>
<!-- Node26 -->
<g id="node26" class="node"><title>Node26</title>
<polygon fill="white" stroke="#bfbfbf" points="1244.5,-112.5 1244.5,-131.5 1285.5,-131.5 1285.5,-112.5 1244.5,-112.5"/>
<text text-anchor="middle" x="1265" y="-119.5" font-family="Helvetica,sans-Serif" font-size="10.00">string</text>
</g>
<!-- Node22&#45;&gt;Node26 -->
<g id="edge41" class="edge"><title>Node22&#45;&gt;Node26</title>
<path fill="none" stroke="midnightblue" d="M1230.77,-168.083C1236.56,-160.455 1245.06,-149.264 1252.14,-139.941"/>
<polygon fill="midnightblue" stroke="midnightblue" points="1255.1,-141.832 1258.36,-131.751 1249.52,-137.599 1255.1,-141.832"/>
</g>
<!-- Node27 -->
<g id="node27" class="node"><title>Node27</title>
<polygon fill="white" stroke="#bfbfbf" points="1304,-112.5 1304,-131.5 1366,-131.5 1366,-112.5 1304,-112.5"/>
<text text-anchor="middle" x="1335" y="-119.5" font-family="Helvetica,sans-Serif" font-size="10.00">nanosvg.h</text>
</g>
<!-- Node22&#45;&gt;Node27 -->
<g id="edge44" class="edge"><title>Node22&#45;&gt;Node27</title>
<path fill="none" stroke="midnightblue" d="M1241.83,-168.324C1259.72,-159.625 1287.48,-146.12 1308.05,-136.113"/>
<polygon fill="midnightblue" stroke="midnightblue" points="1309.75,-139.177 1317.21,-131.655 1306.69,-132.882 1309.75,-139.177"/>
</g>
<!-- Node28&#45;&gt;Node21 -->
<g id="edge48" class="edge"><title>Node28&#45;&gt;Node21</title>
<path fill="none" stroke="midnightblue" d="M1753.47,-224.368C1762.8,-206.376 1784.47,-164.55 1796.87,-140.627"/>
<polygon fill="midnightblue" stroke="midnightblue" points="1800.05,-142.081 1801.55,-131.591 1793.84,-138.86 1800.05,-142.081"/>
</g>
<!-- Node28&#45;&gt;Node22 -->
<g id="edge49" class="edge"><title>Node28&#45;&gt;Node22</title>
<path fill="none" stroke="midnightblue" d="M1698.66,-227.822C1601.17,-217.795 1387.08,-195.774 1283.06,-185.074"/>
<polygon fill="midnightblue" stroke="midnightblue" points="1283.34,-181.586 1273.04,-184.044 1282.63,-188.549 1283.34,-181.586"/>
</g>
<!-- Node29&#45;&gt;Node3 -->
<g id="edge52" class="edge"><title>Node29&#45;&gt;Node3</title>
<path fill="none" stroke="midnightblue" d="M695.267,-168.207C683.307,-160.27 667.001,-147.482 658,-132 639.136,-99.5541 634.852,-54.8277 634.027,-29.8388"/>
<polygon fill="midnightblue" stroke="midnightblue" points="637.522,-29.517 633.85,-19.5786 630.523,-29.6373 637.522,-29.517"/>
</g>
<!-- Node29&#45;&gt;Node6 -->
<g id="edge55" class="edge"><title>Node29&#45;&gt;Node6</title>
<path fill="none" stroke="midnightblue" d="M736.126,-168.458C760.217,-160.231 796.722,-146.871 827,-132 858.1,-116.726 891.958,-95.27 913.079,-81.2539"/>
<polygon fill="midnightblue" stroke="midnightblue" points="915.211,-84.0389 921.569,-75.5644 911.314,-78.2239 915.211,-84.0389"/>
</g>
<!-- Node29&#45;&gt;Node7 -->
<g id="edge56" class="edge"><title>Node29&#45;&gt;Node7</title>
<path fill="none" stroke="midnightblue" d="M769.967,-173.724C895.223,-166.794 1193.76,-149.814 1444,-132 1469.52,-130.183 1498.32,-127.839 1520.19,-125.999"/>
<polygon fill="midnightblue" stroke="midnightblue" points="1520.65,-129.473 1530.32,-125.141 1520.06,-122.498 1520.65,-129.473"/>
</g>
<!-- Node29&#45;&gt;Node11 -->
<g id="edge53" class="edge"><title>Node29&#45;&gt;Node11</title>
<path fill="none" stroke="midnightblue" d="M692.831,-168.388C659.427,-151.674 587.915,-116.113 576,-112 515.278,-91.0417 441.094,-77.7948 399.742,-71.452"/>
<polygon fill="midnightblue" stroke="midnightblue" points="400.128,-67.9709 389.72,-69.952 399.092,-74.8938 400.128,-67.9709"/>
</g>
<!-- Node29&#45;&gt;Node16 -->
<g id="edge54" class="edge"><title>Node29&#45;&gt;Node16</title>
<path fill="none" stroke="midnightblue" d="M683.538,-168.444C654.824,-159.159 608.871,-144.3 577.38,-134.117"/>
<polygon fill="midnightblue" stroke="midnightblue" points="578.296,-130.735 567.705,-130.988 576.143,-137.395 578.296,-130.735"/>
</g>
<!-- Node29&#45;&gt;Node20 -->
<g id="edge51" class="edge"><title>Node29&#45;&gt;Node20</title>
<path fill="none" stroke="midnightblue" d="M710.845,-168.293C712.479,-155.108 717.034,-129.739 729,-112 737.401,-99.5462 750.329,-88.9372 761.751,-81.1534"/>
<polygon fill="midnightblue" stroke="midnightblue" points="763.961,-83.8931 770.472,-75.5354 760.17,-78.0083 763.961,-83.8931"/>
</g>
<!-- Node31 -->
<g id="node31" class="node"><title>Node31</title>
<g id="a_node31"><a xlink:href="_i_plug_editor_delegate_8h.html" target="_top" xlink:title="This pure virtual interface delegates communication in both directions between a UI editor and someth...">
<polygon fill="white" stroke="black" points="821,-336.5 821,-355.5 933,-355.5 933,-336.5 821,-336.5"/>
<text text-anchor="middle" x="877" y="-343.5" font-family="Helvetica,sans-Serif" font-size="10.00">IPlugEditorDelegate.h</text>
</a>
</g>
</g>
<!-- Node30&#45;&gt;Node31 -->
<g id="edge58" class="edge"><title>Node30&#45;&gt;Node31</title>
<path fill="none" stroke="midnightblue" d="M877,-392.083C877,-385.006 877,-374.861 877,-365.986"/>
<polygon fill="midnightblue" stroke="midnightblue" points="880.5,-365.751 877,-355.751 873.5,-365.751 880.5,-365.751"/>
</g>
<!-- Node31&#45;&gt;Node3 -->
<g id="edge60" class="edge"><title>Node31&#45;&gt;Node3</title>
<path fill="none" stroke="midnightblue" d="M820.975,-345.861C633.224,-347.263 38,-339.084 38,-179 38,-179 38,-179 38,-121 38,-35.5256 135.707,-75.1859 219,-56 358.385,-23.894 529.52,-14.5458 600.599,-11.9478"/>
<polygon fill="midnightblue" stroke="midnightblue" points="600.863,-15.4409 610.737,-11.5989 600.622,-8.44505 600.863,-15.4409"/>
</g>
<!-- Node31&#45;&gt;Node7 -->
<g id="edge62" class="edge"><title>Node31&#45;&gt;Node7</title>
<path fill="none" stroke="midnightblue" d="M903.163,-336.433C1008.51,-301.939 1401.67,-173.205 1520.66,-134.243"/>
<polygon fill="midnightblue" stroke="midnightblue" points="1521.94,-137.508 1530.35,-131.07 1519.76,-130.855 1521.94,-137.508"/>
</g>
<!-- Node31&#45;&gt;Node16 -->
<g id="edge59" class="edge"><title>Node31&#45;&gt;Node16</title>
<path fill="none" stroke="midnightblue" d="M820.753,-343.914C749.16,-339.285 626.995,-319.903 562,-244 537.302,-215.157 537.815,-167.676 540.385,-141.594"/>
<polygon fill="midnightblue" stroke="midnightblue" points="543.874,-141.896 541.586,-131.551 536.923,-141.065 543.874,-141.896"/>
</g>
<!-- Node32 -->
<g id="node32" class="node"><title>Node32</title>
<polygon fill="white" stroke="#bfbfbf" points="799.5,-280.5 799.5,-299.5 848.5,-299.5 848.5,-280.5 799.5,-280.5"/>
<text text-anchor="middle" x="824" y="-287.5" font-family="Helvetica,sans-Serif" font-size="10.00">stdint.h</text>
</g>
<!-- Node31&#45;&gt;Node32 -->
<g id="edge61" class="edge"><title>Node31&#45;&gt;Node32</title>
<path fill="none" stroke="midnightblue" d="M868.248,-336.083C860.53,-328.22 849.095,-316.569 839.783,-307.081"/>
<polygon fill="midnightblue" stroke="midnightblue" points="842.092,-304.436 832.589,-299.751 837.096,-309.34 842.092,-304.436"/>
</g>
<!-- Node33 -->
<g id="node33" class="node"><title>Node33</title>
<g id="a_node33"><a xlink:href="_i_plug_parameter_8h.html" target="_top" xlink:title="IPlug&#39;s parameter class. ">
<polygon fill="white" stroke="black" points="989,-168.5 989,-187.5 1081,-187.5 1081,-168.5 989,-168.5"/>
<text text-anchor="middle" x="1035" y="-175.5" font-family="Helvetica,sans-Serif" font-size="10.00">IPlugParameter.h</text>
</a>
</g>
</g>
<!-- Node31&#45;&gt;Node33 -->
<g id="edge63" class="edge"><title>Node31&#45;&gt;Node33</title>
<path fill="none" stroke="midnightblue" d="M885.495,-336.075C911.011,-309.267 987.229,-229.19 1019.88,-194.885"/>
<polygon fill="midnightblue" stroke="midnightblue" points="1022.49,-197.225 1026.84,-187.568 1017.42,-192.399 1022.49,-197.225"/>
</g>
<!-- Node35 -->
<g id="node35" class="node"><title>Node35</title>
<g id="a_node35"><a xlink:href="_i_plug_midi_8h.html" target="_top" xlink:title="MIDI and sysex structs/utilites. ">
<polygon fill="white" stroke="black" points="571.5,-224.5 571.5,-243.5 636.5,-243.5 636.5,-224.5 571.5,-224.5"/>
<text text-anchor="middle" x="604" y="-231.5" font-family="Helvetica,sans-Serif" font-size="10.00">IPlugMidi.h</text>
</a>
</g>
</g>
<!-- Node31&#45;&gt;Node35 -->
<g id="edge69" class="edge"><title>Node31&#45;&gt;Node35</title>
<path fill="none" stroke="midnightblue" d="M877.021,-336.341C876.554,-322.27 873.45,-294.549 857,-280 826.453,-252.982 710.504,-241.603 646.712,-237.306"/>
<polygon fill="midnightblue" stroke="midnightblue" points="646.771,-233.802 636.566,-236.652 646.321,-240.788 646.771,-233.802"/>
</g>
<!-- Node31&#45;&gt;Node36 -->
<g id="edge75" class="edge"><title>Node31&#45;&gt;Node36</title>
<path fill="none" stroke="midnightblue" d="M933.226,-340.535C1063.24,-330.21 1383,-304.818 1506.85,-294.982"/>
<polygon fill="midnightblue" stroke="midnightblue" points="1507.48,-298.443 1517.18,-294.163 1506.93,-291.465 1507.48,-298.443"/>
</g>
<!-- Node33&#45;&gt;Node3 -->
<g id="edge65" class="edge"><title>Node33&#45;&gt;Node3</title>
<path fill="none" stroke="midnightblue" d="M988.864,-174.386C914.541,-169.491 772.255,-157.089 729,-132 686.594,-107.404 656.16,-55.8743 642.331,-28.6782"/>
<polygon fill="midnightblue" stroke="midnightblue" points="645.4,-26.9888 637.853,-19.5533 639.116,-30.0725 645.4,-26.9888"/>
</g>
<!-- Node33&#45;&gt;Node6 -->
<g id="edge67" class="edge"><title>Node33&#45;&gt;Node6</title>
<path fill="none" stroke="midnightblue" d="M1002.23,-168.432C982.931,-161.688 959.697,-150.296 946,-132 936.114,-118.794 933.547,-99.9243 933.196,-85.915"/>
<polygon fill="midnightblue" stroke="midnightblue" points="936.7,-85.5595 933.311,-75.5215 929.701,-85.4822 936.7,-85.5595"/>
</g>
<!-- Node33&#45;&gt;Node18 -->
<g id="edge68" class="edge"><title>Node33&#45;&gt;Node18</title>
<path fill="none" stroke="midnightblue" d="M994.278,-168.444C949.218,-158.976 876.576,-143.713 828.074,-133.521"/>
<polygon fill="midnightblue" stroke="midnightblue" points="828.615,-130.059 818.109,-131.428 827.175,-136.909 828.615,-130.059"/>
</g>
<!-- Node33&#45;&gt;Node23 -->
<g id="edge66" class="edge"><title>Node33&#45;&gt;Node23</title>
<path fill="none" stroke="midnightblue" d="M1038.47,-168.083C1041.31,-160.77 1045.43,-150.181 1048.96,-141.103"/>
<polygon fill="midnightblue" stroke="midnightblue" points="1052.23,-142.34 1052.6,-131.751 1045.71,-139.803 1052.23,-142.34"/>
</g>
<!-- Node34 -->
<g id="node34" class="node"><title>Node34</title>
<polygon fill="white" stroke="#bfbfbf" points="1918,-112.5 1918,-131.5 1964,-131.5 1964,-112.5 1918,-112.5"/>
<text text-anchor="middle" x="1941" y="-119.5" font-family="Helvetica,sans-Serif" font-size="10.00">atomic</text>
</g>
<!-- Node33&#45;&gt;Node34 -->
<g id="edge64" class="edge"><title>Node33&#45;&gt;Node34</title>
<path fill="none" stroke="midnightblue" d="M1081.06,-173.638C1106.17,-171.855 1137.78,-169.691 1166,-168 1478.74,-149.262 1557.93,-159.719 1870,-132 1882.35,-130.903 1895.86,-129.294 1907.74,-127.739"/>
<polygon fill="midnightblue" stroke="midnightblue" points="1908.26,-131.201 1917.7,-126.4 1907.33,-124.264 1908.26,-131.201"/>
</g>
<!-- Node35&#45;&gt;Node10 -->
<g id="edge74" class="edge"><title>Node35&#45;&gt;Node10</title>
<path fill="none" stroke="midnightblue" d="M571.393,-225.378C531.735,-216.107 464.519,-200.394 419.456,-189.86"/>
<polygon fill="midnightblue" stroke="midnightblue" points="420.168,-186.432 409.634,-187.564 418.574,-193.248 420.168,-186.432"/>
</g>
<!-- Node35&#45;&gt;Node11 -->
<g id="edge72" class="edge"><title>Node35&#45;&gt;Node11</title>
<path fill="none" stroke="midnightblue" d="M571.439,-230.91C477.85,-224.128 211.741,-199.152 164,-132 121.067,-71.6108 268.68,-65.8566 336.13,-66.2679"/>
<polygon fill="midnightblue" stroke="midnightblue" points="336.188,-69.7687 346.226,-66.3795 336.265,-62.7691 336.188,-69.7687"/>
</g>
<!-- Node35&#45;&gt;Node14 -->
<g id="edge71" class="edge"><title>Node35&#45;&gt;Node14</title>
<path fill="none" stroke="midnightblue" d="M594.035,-224.368C572.612,-205.814 521.927,-161.913 494.823,-138.438"/>
<polygon fill="midnightblue" stroke="midnightblue" points="496.77,-135.493 486.919,-131.591 492.187,-140.784 496.77,-135.493"/>
</g>
<!-- Node35&#45;&gt;Node16 -->
<g id="edge70" class="edge"><title>Node35&#45;&gt;Node16</title>
<path fill="none" stroke="midnightblue" d="M599.213,-224.368C589.236,-206.376 566.042,-164.55 552.775,-140.627"/>
<polygon fill="midnightblue" stroke="midnightblue" points="555.675,-138.639 547.764,-131.591 549.553,-142.034 555.675,-138.639"/>
</g>
<!-- Node35&#45;&gt;Node19 -->
<g id="edge73" class="edge"><title>Node35&#45;&gt;Node19</title>
<path fill="none" stroke="midnightblue" d="M636.618,-232.287C800.167,-228.369 1525.58,-206.841 1588,-132 1610.6,-104.908 1560.38,-85.6561 1522.13,-75.445"/>
<polygon fill="midnightblue" stroke="midnightblue" points="1522.78,-71.9987 1512.23,-72.925 1521.05,-78.7826 1522.78,-71.9987"/>
</g>
<!-- Node36&#45;&gt;Node5 -->
<g id="edge80" class="edge"><title>Node36&#45;&gt;Node5</title>
<path fill="none" stroke="midnightblue" d="M1596.53,-286.037C1658.45,-280.723 1774.7,-267.837 1808,-244 1860.7,-206.271 1903.3,-167.61 1870,-112 1860.85,-96.7189 1844.54,-86.332 1828.71,-79.4255"/>
<polygon fill="midnightblue" stroke="midnightblue" points="1829.57,-76.0012 1818.99,-75.5623 1826.99,-82.5068 1829.57,-76.0012"/>
</g>
<!-- Node36&#45;&gt;Node6 -->
<g id="edge77" class="edge"><title>Node36&#45;&gt;Node6</title>
<path fill="none" stroke="midnightblue" d="M1517.37,-282.322C1441.44,-268.925 1270.77,-235.898 1133,-188 1113.09,-181.078 1109.56,-175.845 1090,-168 1043.82,-149.482 1024.46,-160.959 984,-132 966.692,-119.611 952.548,-99.5247 943.774,-84.9562"/>
<polygon fill="midnightblue" stroke="midnightblue" points="946.598,-82.8457 938.586,-75.9143 940.527,-86.3297 946.598,-82.8457"/>
</g>
<!-- Node36&#45;&gt;Node7 -->
<g id="edge78" class="edge"><title>Node36&#45;&gt;Node7</title>
<path fill="none" stroke="midnightblue" d="M1556.89,-280.075C1556.58,-253.945 1555.65,-177.211 1555.22,-141.577"/>
<polygon fill="midnightblue" stroke="midnightblue" points="1558.72,-141.525 1555.1,-131.568 1551.72,-141.61 1558.72,-141.525"/>
</g>
<!-- Node36&#45;&gt;Node9 -->
<g id="edge79" class="edge"><title>Node36&#45;&gt;Node9</title>
<path fill="none" stroke="midnightblue" d="M1569.98,-280.431C1581.42,-272.282 1597.8,-259.055 1608,-244 1641.52,-194.525 1642.81,-120.111 1641.32,-85.6891"/>
<polygon fill="midnightblue" stroke="midnightblue" points="1644.81,-85.4294 1640.75,-75.6428 1637.82,-85.8243 1644.81,-85.4294"/>
</g>
<!-- Node36&#45;&gt;Node18 -->
<g id="edge82" class="edge"><title>Node36&#45;&gt;Node18</title>
<path fill="none" stroke="midnightblue" d="M1517.3,-286.561C1447.09,-281.759 1296.65,-269.278 1172,-244 1084.88,-226.334 1064.98,-214.061 980,-188 921.392,-170.027 853.63,-147.957 813.376,-134.709"/>
<polygon fill="midnightblue" stroke="midnightblue" points="814.35,-131.345 803.757,-131.539 812.159,-137.993 814.35,-131.345"/>
</g>
<!-- Node36&#45;&gt;Node19 -->
<g id="edge76" class="edge"><title>Node36&#45;&gt;Node19</title>
<path fill="none" stroke="midnightblue" d="M1563.88,-280.41C1584.77,-253.241 1643.7,-167.688 1605,-112 1586.43,-85.2823 1550.01,-74.3957 1521.96,-69.977"/>
<polygon fill="midnightblue" stroke="midnightblue" points="1522.43,-66.5092 1512.05,-68.6244 1521.48,-73.4449 1522.43,-66.5092"/>
</g>
<!-- Node36&#45;&gt;Node35 -->
<g id="edge81" class="edge"><title>Node36&#45;&gt;Node35</title>
<path fill="none" stroke="midnightblue" d="M1517.26,-286.748C1363.34,-278.026 806.963,-246.501 647.183,-237.447"/>
<polygon fill="midnightblue" stroke="midnightblue" points="646.989,-233.93 636.807,-236.859 646.593,-240.919 646.989,-233.93"/>
</g>
<!-- Node40&#45;&gt;Node34 -->
<g id="edge87" class="edge"><title>Node40&#45;&gt;Node34</title>
<path fill="none" stroke="midnightblue" d="M2026.49,-504.166C2017.09,-479.647 1992,-408.495 1992,-347 1992,-347 1992,-347 1992,-233 1992,-197.244 1969.55,-160.508 1954.44,-139.836"/>
<polygon fill="midnightblue" stroke="midnightblue" points="1957.14,-137.614 1948.31,-131.769 1951.57,-141.849 1957.14,-137.614"/>
</g>
<!-- Node41 -->
<g id="node41" class="node"><title>Node41</title>
<polygon fill="white" stroke="#bfbfbf" points="2058.5,-448.5 2058.5,-467.5 2107.5,-467.5 2107.5,-448.5 2058.5,-448.5"/>
<text text-anchor="middle" x="2083" y="-455.5" font-family="Helvetica,sans-Serif" font-size="10.00">cstddef</text>
</g>
<!-- Node40&#45;&gt;Node41 -->
<g id="edge88" class="edge"><title>Node40&#45;&gt;Node41</title>
<path fill="none" stroke="midnightblue" d="M2038.75,-504.083C2046.47,-496.22 2057.9,-484.569 2067.22,-475.081"/>
<polygon fill="midnightblue" stroke="midnightblue" points="2069.9,-477.34 2074.41,-467.751 2064.91,-472.436 2069.9,-477.34"/>
</g>
</g>
</svg>
