<?xml version="1.0" encoding="UTF-8" standalone="no"?>
<!DOCTYPE svg PUBLIC "-//W3C//DTD SVG 1.1//EN"
 "http://www.w3.org/Graphics/SVG/1.1/DTD/svg11.dtd">
<!-- Generated by graphviz version 2.36.0 (20140111.2315)
 -->
<!-- Title: IVKeyboardControl.h Pages: 1 -->
<svg width="2037pt" height="588pt"
 viewBox="0.00 0.00 2037.00 588.00" xmlns="http://www.w3.org/2000/svg" xmlns:xlink="http://www.w3.org/1999/xlink">
<g id="graph0" class="graph" transform="scale(1 1) rotate(0) translate(4 584)">
<title>IVKeyboardControl.h</title>
<polygon fill="white" stroke="none" points="-4,4 -4,-584 2033,-584 2033,4 -4,4"/>
<!-- Node1 -->
<g id="node1" class="node"><title>Node1</title>
<polygon fill="#bfbfbf" stroke="black" points="979.5,-560.5 979.5,-579.5 1086.5,-579.5 1086.5,-560.5 979.5,-560.5"/>
<text text-anchor="middle" x="1033" y="-567.5" font-family="Helvetica,sans-Serif" font-size="10.00">IVKeyboardControl.h</text>
</g>
<!-- Node2 -->
<g id="node2" class="node"><title>Node2</title>
<g id="a_node2"><a xlink:href="_i_control_8h.html" target="_top" xlink:title="This file contains the base IControl implementation, along with some base classes for specific types ...">
<polygon fill="white" stroke="black" points="84.5,-504.5 84.5,-523.5 143.5,-523.5 143.5,-504.5 84.5,-504.5"/>
<text text-anchor="middle" x="114" y="-511.5" font-family="Helvetica,sans-Serif" font-size="10.00">IControl.h</text>
</a>
</g>
</g>
<!-- Node1&#45;&gt;Node2 -->
<g id="edge1" class="edge"><title>Node1&#45;&gt;Node2</title>
<path fill="none" stroke="midnightblue" d="M979.281,-565.844C811.673,-555.995 300.777,-525.975 153.889,-517.344"/>
<polygon fill="midnightblue" stroke="midnightblue" points="153.745,-513.829 143.557,-516.737 153.334,-520.817 153.745,-513.829"/>
</g>
<!-- Node35 -->
<g id="node35" class="node"><title>Node35</title>
<g id="a_node35"><a xlink:href="_i_plug_midi_8h.html" target="_top" xlink:title="MIDI and sysex structs/utilites. ">
<polygon fill="white" stroke="black" points="1443.5,-224.5 1443.5,-243.5 1508.5,-243.5 1508.5,-224.5 1443.5,-224.5"/>
<text text-anchor="middle" x="1476" y="-231.5" font-family="Helvetica,sans-Serif" font-size="10.00">IPlugMidi.h</text>
</a>
</g>
</g>
<!-- Node1&#45;&gt;Node35 -->
<g id="edge86" class="edge"><title>Node1&#45;&gt;Node35</title>
<path fill="none" stroke="midnightblue" d="M1086.78,-568.261C1283.56,-564.856 1953,-546.819 1953,-459 1953,-459 1953,-459 1953,-345 1953,-256.317 1635.98,-239.122 1518.83,-235.795"/>
<polygon fill="midnightblue" stroke="midnightblue" points="1518.87,-232.295 1508.79,-235.531 1518.69,-239.293 1518.87,-232.295"/>
</g>
<!-- Node3 -->
<g id="node3" class="node"><title>Node3</title>
<polygon fill="white" stroke="#bfbfbf" points="1123,-0.5 1123,-19.5 1169,-19.5 1169,-0.5 1123,-0.5"/>
<text text-anchor="middle" x="1146" y="-7.5" font-family="Helvetica,sans-Serif" font-size="10.00">cstring</text>
</g>
<!-- Node2&#45;&gt;Node3 -->
<g id="edge2" class="edge"><title>Node2&#45;&gt;Node3</title>
<path fill="none" stroke="midnightblue" d="M109.696,-504.124C93.6188,-470.122 38,-344.577 38,-235 38,-235 38,-235 38,-121 38,-10.1242 927.937,-9.63324 1112.67,-10.7257"/>
<polygon fill="midnightblue" stroke="midnightblue" points="1112.84,-14.2268 1122.86,-10.792 1112.88,-7.22692 1112.84,-14.2268"/>
</g>
<!-- Node4 -->
<g id="node4" class="node"><title>Node4</title>
<polygon fill="white" stroke="#bfbfbf" points="296.5,-0.5 296.5,-19.5 341.5,-19.5 341.5,-0.5 296.5,-0.5"/>
<text text-anchor="middle" x="319" y="-7.5" font-family="Helvetica,sans-Serif" font-size="10.00">cstdlib</text>
</g>
<!-- Node2&#45;&gt;Node4 -->
<g id="edge3" class="edge"><title>Node2&#45;&gt;Node4</title>
<path fill="none" stroke="midnightblue" d="M93.3555,-504.421C60.5038,-489.231 0,-454.293 0,-403 0,-403 0,-403 0,-121 0,-90.2048 0.136683,-75.465 24,-56 63.6316,-23.6729 217.602,-14.4432 285.972,-11.9122"/>
<polygon fill="midnightblue" stroke="midnightblue" points="286.306,-15.4028 296.179,-11.5609 286.065,-8.40698 286.306,-15.4028"/>
</g>
<!-- Node5 -->
<g id="node5" class="node"><title>Node5</title>
<g id="a_node5"><a xlink:href="_i_plug_platform_8h.html" target="_top" xlink:title="Include to get consistently named preprocessor macros for different platforms and logging functionali...">
<polygon fill="white" stroke="black" points="277,-56.5 277,-75.5 361,-75.5 361,-56.5 277,-56.5"/>
<text text-anchor="middle" x="319" y="-63.5" font-family="Helvetica,sans-Serif" font-size="10.00">IPlugPlatform.h</text>
</a>
</g>
</g>
<!-- Node2&#45;&gt;Node5 -->
<g id="edge4" class="edge"><title>Node2&#45;&gt;Node5</title>
<path fill="none" stroke="midnightblue" d="M98.2167,-504.467C85.7973,-496.769 69.3949,-484.179 62,-468 58.3048,-459.916 61.7083,-456.884 62,-448 65.1128,-353.18 76,-329.871 76,-235 76,-235 76,-235 76,-177 76,-146.205 76.6436,-132.07 100,-112 124.527,-90.9236 209.907,-78.2194 266.532,-71.9178"/>
<polygon fill="midnightblue" stroke="midnightblue" points="267.182,-75.368 276.749,-70.8151 266.431,-68.4084 267.182,-75.368"/>
</g>
<!-- Node6 -->
<g id="node6" class="node"><title>Node6</title>
<polygon fill="white" stroke="#bfbfbf" points="508,-56.5 508,-75.5 572,-75.5 572,-56.5 508,-56.5"/>
<text text-anchor="middle" x="540" y="-63.5" font-family="Helvetica,sans-Serif" font-size="10.00">wdlstring.h</text>
</g>
<!-- Node2&#45;&gt;Node6 -->
<g id="edge7" class="edge"><title>Node2&#45;&gt;Node6</title>
<path fill="none" stroke="midnightblue" d="M114,-504.442C114,-485.936 114,-440.812 114,-403 114,-403 114,-403 114,-177 114,-146.902 109.946,-131.35 133,-112 160.55,-88.8769 398.892,-74.1906 497.534,-69.0525"/>
<polygon fill="midnightblue" stroke="midnightblue" points="497.935,-72.5366 507.743,-68.5289 497.577,-65.5458 497.935,-72.5366"/>
</g>
<!-- Node7 -->
<g id="node7" class="node"><title>Node7</title>
<polygon fill="white" stroke="#bfbfbf" points="310.5,-112.5 310.5,-131.5 359.5,-131.5 359.5,-112.5 310.5,-112.5"/>
<text text-anchor="middle" x="335" y="-119.5" font-family="Helvetica,sans-Serif" font-size="10.00">ptrlist.h</text>
</g>
<!-- Node2&#45;&gt;Node7 -->
<g id="edge8" class="edge"><title>Node2&#45;&gt;Node7</title>
<path fill="none" stroke="midnightblue" d="M119.284,-504.231C129.725,-486.043 152,-442.601 152,-403 152,-403 152,-403 152,-289 152,-209.045 249.019,-157.517 301.774,-135.409"/>
<polygon fill="midnightblue" stroke="midnightblue" points="303.133,-138.635 311.076,-131.623 300.494,-132.151 303.133,-138.635"/>
</g>
<!-- Node8 -->
<g id="node8" class="node"><title>Node8</title>
<g id="a_node8"><a xlink:href="_i_graphics_8h.html" target="_top" xlink:title="The lowest level base class of an IGraphics context. ">
<polygon fill="white" stroke="black" points="385.5,-448.5 385.5,-467.5 452.5,-467.5 452.5,-448.5 385.5,-448.5"/>
<text text-anchor="middle" x="419" y="-455.5" font-family="Helvetica,sans-Serif" font-size="10.00">IGraphics.h</text>
</a>
</g>
</g>
<!-- Node2&#45;&gt;Node8 -->
<g id="edge9" class="edge"><title>Node2&#45;&gt;Node8</title>
<path fill="none" stroke="midnightblue" d="M143.522,-507.773C197.477,-498.22 312.247,-477.901 375.285,-466.74"/>
<polygon fill="midnightblue" stroke="midnightblue" points="376.076,-470.154 385.313,-464.964 374.856,-463.261 376.076,-470.154"/>
</g>
<!-- Node5&#45;&gt;Node3 -->
<g id="edge5" class="edge"><title>Node5&#45;&gt;Node3</title>
<path fill="none" stroke="midnightblue" d="M361.102,-60.6087C377.036,-59.0301 395.344,-57.3161 412,-56 682.123,-34.6558 1008.86,-17.7726 1112.67,-12.6242"/>
<polygon fill="midnightblue" stroke="midnightblue" points="1113.02,-16.111 1122.84,-12.122 1112.68,-9.11947 1113.02,-16.111"/>
</g>
<!-- Node5&#45;&gt;Node4 -->
<g id="edge6" class="edge"><title>Node5&#45;&gt;Node4</title>
<path fill="none" stroke="midnightblue" d="M319,-56.083C319,-49.0059 319,-38.8611 319,-29.9865"/>
<polygon fill="midnightblue" stroke="midnightblue" points="322.5,-29.751 319,-19.7511 315.5,-29.7511 322.5,-29.751"/>
</g>
<!-- Node9 -->
<g id="node9" class="node"><title>Node9</title>
<g id="a_node9"><a xlink:href="_i_plug_constants_8h.html" target="_top" xlink:title="IPlug Constant definitions, Types, magic numbers. ">
<polygon fill="white" stroke="black" points="1871,-56.5 1871,-75.5 1963,-75.5 1963,-56.5 1871,-56.5"/>
<text text-anchor="middle" x="1917" y="-63.5" font-family="Helvetica,sans-Serif" font-size="10.00">IPlugConstants.h</text>
</a>
</g>
</g>
<!-- Node8&#45;&gt;Node9 -->
<g id="edge10" class="edge"><title>Node8&#45;&gt;Node9</title>
<path fill="none" stroke="midnightblue" d="M452.693,-457.046C570.813,-456.834 976.955,-452.971 1309,-412 1563.94,-380.543 1630.48,-375.512 1876,-300 1946.62,-278.281 2029,-308.882 2029,-235 2029,-235 2029,-235 2029,-177 2029,-130.614 1979.49,-97.2849 1946.31,-80.1547"/>
<polygon fill="midnightblue" stroke="midnightblue" points="1947.54,-76.8574 1937.02,-75.5583 1944.43,-83.131 1947.54,-76.8574"/>
</g>
<!-- Node10 -->
<g id="node10" class="node"><title>Node10</title>
<g id="a_node10"><a xlink:href="_i_plug_logger_8h.html" target="_top" xlink:title="IPlug logging a.k.a tracing functionality. ">
<polygon fill="white" stroke="black" points="1568.5,-168.5 1568.5,-187.5 1645.5,-187.5 1645.5,-168.5 1568.5,-168.5"/>
<text text-anchor="middle" x="1607" y="-175.5" font-family="Helvetica,sans-Serif" font-size="10.00">IPlugLogger.h</text>
</a>
</g>
</g>
<!-- Node8&#45;&gt;Node10 -->
<g id="edge11" class="edge"><title>Node8&#45;&gt;Node10</title>
<path fill="none" stroke="midnightblue" d="M452.523,-455.629C643.045,-447.625 1581,-405.258 1581,-347 1581,-347 1581,-347 1581,-289 1581,-255.929 1592.27,-218.729 1599.97,-197.168"/>
<polygon fill="midnightblue" stroke="midnightblue" points="1603.29,-198.268 1603.49,-187.675 1596.73,-195.831 1603.29,-198.268"/>
</g>
<!-- Node21 -->
<g id="node21" class="node"><title>Node21</title>
<g id="a_node21"><a xlink:href="_i_graphics_constants_8h_source.html" target="_top" xlink:title="IGraphicsConstants.h">
<polygon fill="white" stroke="black" points="142,-112.5 142,-131.5 254,-131.5 254,-112.5 142,-112.5"/>
<text text-anchor="middle" x="198" y="-119.5" font-family="Helvetica,sans-Serif" font-size="10.00">IGraphicsConstants.h</text>
</a>
</g>
</g>
<!-- Node8&#45;&gt;Node21 -->
<g id="edge32" class="edge"><title>Node8&#45;&gt;Node21</title>
<path fill="none" stroke="midnightblue" d="M385.21,-455.826C321.51,-451.616 190,-432.565 190,-347 190,-347 190,-347 190,-233 190,-200.863 193.439,-163.584 195.807,-141.719"/>
<polygon fill="midnightblue" stroke="midnightblue" points="199.312,-141.872 196.954,-131.542 192.356,-141.087 199.312,-141.872"/>
</g>
<!-- Node22 -->
<g id="node22" class="node"><title>Node22</title>
<g id="a_node22"><a xlink:href="_i_graphics_structs_8h_source.html" target="_top" xlink:title="IGraphicsStructs.h">
<polygon fill="white" stroke="black" points="620,-168.5 620,-187.5 718,-187.5 718,-168.5 620,-168.5"/>
<text text-anchor="middle" x="669" y="-175.5" font-family="Helvetica,sans-Serif" font-size="10.00">IGraphicsStructs.h</text>
</a>
</g>
</g>
<!-- Node8&#45;&gt;Node22 -->
<g id="edge34" class="edge"><title>Node8&#45;&gt;Node22</title>
<path fill="none" stroke="midnightblue" d="M434.192,-448.268C460.323,-431.983 511,-394.303 511,-347 511,-347 511,-347 511,-289 511,-234.393 575.353,-204.683 621.919,-190.334"/>
<polygon fill="midnightblue" stroke="midnightblue" points="622.949,-193.679 631.556,-187.501 620.975,-186.963 622.949,-193.679"/>
</g>
<!-- Node28 -->
<g id="node28" class="node"><title>Node28</title>
<g id="a_node28"><a xlink:href="_i_graphics_utilities_8h_source.html" target="_top" xlink:title="IGraphicsUtilities.h">
<polygon fill="white" stroke="black" points="218,-224.5 218,-243.5 318,-243.5 318,-224.5 218,-224.5"/>
<text text-anchor="middle" x="268" y="-231.5" font-family="Helvetica,sans-Serif" font-size="10.00">IGraphicsUtilities.h</text>
</a>
</g>
</g>
<!-- Node8&#45;&gt;Node28 -->
<g id="edge47" class="edge"><title>Node8&#45;&gt;Node28</title>
<path fill="none" stroke="midnightblue" d="M385.122,-453.018C339.955,-446.932 263.74,-433.684 247,-412 210.34,-364.514 241.246,-287.444 258.41,-252.828"/>
<polygon fill="midnightblue" stroke="midnightblue" points="261.547,-254.381 263.012,-243.888 255.323,-251.177 261.547,-254.381"/>
</g>
<!-- Node29 -->
<g id="node29" class="node"><title>Node29</title>
<g id="a_node29"><a xlink:href="_i_graphics_popup_menu_8h.html" target="_top" xlink:title="A class for setting the contents of a pop up menu. ">
<polygon fill="white" stroke="black" points="444.5,-168.5 444.5,-187.5 563.5,-187.5 563.5,-168.5 444.5,-168.5"/>
<text text-anchor="middle" x="504" y="-175.5" font-family="Helvetica,sans-Serif" font-size="10.00">IGraphicsPopupMenu.h</text>
</a>
</g>
</g>
<!-- Node8&#45;&gt;Node29 -->
<g id="edge50" class="edge"><title>Node8&#45;&gt;Node29</title>
<path fill="none" stroke="midnightblue" d="M427.556,-448.496C435.609,-439.993 447.393,-426.173 454,-412 472.044,-373.293 493.503,-245.484 501.133,-197.458"/>
<polygon fill="midnightblue" stroke="midnightblue" points="504.598,-197.955 502.693,-187.533 497.683,-196.868 504.598,-197.955"/>
</g>
<!-- Node30 -->
<g id="node30" class="node"><title>Node30</title>
<g id="a_node30"><a xlink:href="_i_graphics_editor_delegate_8h.html" target="_top" xlink:title="An editor delgate base class for a SOMETHING that uses IGraphics for it&#39;s UI. ">
<polygon fill="white" stroke="black" points="794.5,-392.5 794.5,-411.5 925.5,-411.5 925.5,-392.5 794.5,-392.5"/>
<text text-anchor="middle" x="860" y="-399.5" font-family="Helvetica,sans-Serif" font-size="10.00">IGraphicsEditorDelegate.h</text>
</a>
</g>
</g>
<!-- Node8&#45;&gt;Node30 -->
<g id="edge57" class="edge"><title>Node8&#45;&gt;Node30</title>
<path fill="none" stroke="midnightblue" d="M452.509,-452.897C522.785,-444.292 687.098,-424.172 784.249,-412.276"/>
<polygon fill="midnightblue" stroke="midnightblue" points="784.803,-415.734 794.304,-411.044 783.952,-408.786 784.803,-415.734"/>
</g>
<!-- Node37 -->
<g id="node37" class="node"><title>Node37</title>
<polygon fill="white" stroke="#bfbfbf" points="256.5,-392.5 256.5,-411.5 315.5,-411.5 315.5,-392.5 256.5,-392.5"/>
<text text-anchor="middle" x="286" y="-399.5" font-family="Helvetica,sans-Serif" font-size="10.00">heapbuf.h</text>
</g>
<!-- Node8&#45;&gt;Node37 -->
<g id="edge83" class="edge"><title>Node8&#45;&gt;Node37</title>
<path fill="none" stroke="midnightblue" d="M397.926,-448.444C375.94,-439.517 341.266,-425.439 316.336,-415.317"/>
<polygon fill="midnightblue" stroke="midnightblue" points="317.558,-412.035 306.976,-411.516 314.924,-418.521 317.558,-412.035"/>
</g>
<!-- Node38 -->
<g id="node38" class="node"><title>Node38</title>
<polygon fill="white" stroke="#bfbfbf" points="333.5,-392.5 333.5,-411.5 374.5,-411.5 374.5,-392.5 333.5,-392.5"/>
<text text-anchor="middle" x="354" y="-399.5" font-family="Helvetica,sans-Serif" font-size="10.00">stack</text>
</g>
<!-- Node8&#45;&gt;Node38 -->
<g id="edge84" class="edge"><title>Node8&#45;&gt;Node38</title>
<path fill="none" stroke="midnightblue" d="M408.557,-448.324C398.854,-440.263 384.185,-428.077 372.5,-418.369"/>
<polygon fill="midnightblue" stroke="midnightblue" points="374.562,-415.532 364.633,-411.834 370.089,-420.916 374.562,-415.532"/>
</g>
<!-- Node39 -->
<g id="node39" class="node"><title>Node39</title>
<polygon fill="white" stroke="#bfbfbf" points="393,-392.5 393,-411.5 445,-411.5 445,-392.5 393,-392.5"/>
<text text-anchor="middle" x="419" y="-399.5" font-family="Helvetica,sans-Serif" font-size="10.00">memory</text>
</g>
<!-- Node8&#45;&gt;Node39 -->
<g id="edge85" class="edge"><title>Node8&#45;&gt;Node39</title>
<path fill="none" stroke="midnightblue" d="M419,-448.083C419,-441.006 419,-430.861 419,-421.986"/>
<polygon fill="midnightblue" stroke="midnightblue" points="422.5,-421.751 419,-411.751 415.5,-421.751 422.5,-421.751"/>
</g>
<!-- Node10&#45;&gt;Node3 -->
<g id="edge16" class="edge"><title>Node10&#45;&gt;Node3</title>
<path fill="none" stroke="midnightblue" d="M1645.58,-175.896C1709.1,-173.175 1831.37,-163.832 1858,-132 1863.7,-125.183 1863.46,-119.012 1858,-112 1815.56,-57.522 1314.62,-21.7669 1179.44,-13.0656"/>
<polygon fill="midnightblue" stroke="midnightblue" points="1179.48,-9.56114 1169.27,-12.4183 1179.03,-16.547 1179.48,-9.56114"/>
</g>
<!-- Node10&#45;&gt;Node6 -->
<g id="edge19" class="edge"><title>Node10&#45;&gt;Node6</title>
<path fill="none" stroke="midnightblue" d="M1568.48,-171.354C1517.56,-163.656 1425.14,-148.879 1347,-132 1312.44,-124.534 1304.94,-117.4 1270,-112 968.711,-65.4424 887.488,-113.994 585,-76 584.101,-75.8871 583.193,-75.7664 582.278,-75.6389"/>
<polygon fill="midnightblue" stroke="midnightblue" points="582.78,-72.1748 572.353,-74.0532 581.676,-79.0871 582.78,-72.1748"/>
</g>
<!-- Node10&#45;&gt;Node9 -->
<g id="edge21" class="edge"><title>Node10&#45;&gt;Node9</title>
<path fill="none" stroke="midnightblue" d="M1645.69,-175.509C1714.36,-172.126 1853.79,-161.705 1891,-132 1905.08,-120.761 1911.57,-100.747 1914.54,-85.8868"/>
<polygon fill="midnightblue" stroke="midnightblue" points="1918.04,-86.1916 1916.19,-75.7584 1911.13,-85.0641 1918.04,-86.1916"/>
</g>
<!-- Node11 -->
<g id="node11" class="node"><title>Node11</title>
<polygon fill="white" stroke="#bfbfbf" points="1461.5,-56.5 1461.5,-75.5 1504.5,-75.5 1504.5,-56.5 1461.5,-56.5"/>
<text text-anchor="middle" x="1483" y="-63.5" font-family="Helvetica,sans-Serif" font-size="10.00">cstdio</text>
</g>
<!-- Node10&#45;&gt;Node11 -->
<g id="edge12" class="edge"><title>Node10&#45;&gt;Node11</title>
<path fill="none" stroke="midnightblue" d="M1606.27,-168.306C1604.69,-154.678 1599.79,-128.176 1585,-112 1566.42,-91.6879 1537.01,-80.0561 1514.53,-73.7288"/>
<polygon fill="midnightblue" stroke="midnightblue" points="1515.31,-70.3161 1504.75,-71.1828 1513.55,-77.0902 1515.31,-70.3161"/>
</g>
<!-- Node12 -->
<g id="node12" class="node"><title>Node12</title>
<polygon fill="white" stroke="#bfbfbf" points="1581,-56.5 1581,-75.5 1627,-75.5 1627,-56.5 1581,-56.5"/>
<text text-anchor="middle" x="1604" y="-63.5" font-family="Helvetica,sans-Serif" font-size="10.00">cctype</text>
</g>
<!-- Node10&#45;&gt;Node12 -->
<g id="edge13" class="edge"><title>Node10&#45;&gt;Node12</title>
<path fill="none" stroke="midnightblue" d="M1610.29,-168.184C1614.55,-155.698 1621.06,-132.141 1618,-112 1616.63,-103.001 1613.81,-93.3251 1611.05,-85.2601"/>
<polygon fill="midnightblue" stroke="midnightblue" points="1614.31,-83.9759 1607.6,-75.7782 1607.73,-86.3722 1614.31,-83.9759"/>
</g>
<!-- Node13 -->
<g id="node13" class="node"><title>Node13</title>
<polygon fill="white" stroke="#bfbfbf" points="1670.5,-112.5 1670.5,-131.5 1719.5,-131.5 1719.5,-112.5 1670.5,-112.5"/>
<text text-anchor="middle" x="1695" y="-119.5" font-family="Helvetica,sans-Serif" font-size="10.00">cstdarg</text>
</g>
<!-- Node10&#45;&gt;Node13 -->
<g id="edge14" class="edge"><title>Node10&#45;&gt;Node13</title>
<path fill="none" stroke="midnightblue" d="M1621.14,-168.324C1634.87,-159.9 1655.94,-146.971 1672.06,-137.074"/>
<polygon fill="midnightblue" stroke="midnightblue" points="1674.2,-139.868 1680.9,-131.655 1670.54,-133.902 1674.2,-139.868"/>
</g>
<!-- Node14 -->
<g id="node14" class="node"><title>Node14</title>
<polygon fill="white" stroke="#bfbfbf" points="1530,-112.5 1530,-131.5 1576,-131.5 1576,-112.5 1530,-112.5"/>
<text text-anchor="middle" x="1553" y="-119.5" font-family="Helvetica,sans-Serif" font-size="10.00">cstdint</text>
</g>
<!-- Node10&#45;&gt;Node14 -->
<g id="edge15" class="edge"><title>Node10&#45;&gt;Node14</title>
<path fill="none" stroke="midnightblue" d="M1598.08,-168.083C1590.22,-160.22 1578.57,-148.569 1569.08,-139.081"/>
<polygon fill="midnightblue" stroke="midnightblue" points="1571.3,-136.347 1561.75,-131.751 1566.35,-141.297 1571.3,-136.347"/>
</g>
<!-- Node15 -->
<g id="node15" class="node"><title>Node15</title>
<polygon fill="white" stroke="#bfbfbf" points="1737.5,-112.5 1737.5,-131.5 1778.5,-131.5 1778.5,-112.5 1737.5,-112.5"/>
<text text-anchor="middle" x="1758" y="-119.5" font-family="Helvetica,sans-Serif" font-size="10.00">ctime</text>
</g>
<!-- Node10&#45;&gt;Node15 -->
<g id="edge17" class="edge"><title>Node10&#45;&gt;Node15</title>
<path fill="none" stroke="midnightblue" d="M1630.93,-168.444C1657.11,-159.079 1699.15,-144.046 1727.64,-133.857"/>
<polygon fill="midnightblue" stroke="midnightblue" points="1728.87,-137.136 1737.1,-130.473 1726.51,-130.545 1728.87,-137.136"/>
</g>
<!-- Node16 -->
<g id="node16" class="node"><title>Node16</title>
<polygon fill="white" stroke="#bfbfbf" points="1212.5,-112.5 1212.5,-131.5 1261.5,-131.5 1261.5,-112.5 1212.5,-112.5"/>
<text text-anchor="middle" x="1237" y="-119.5" font-family="Helvetica,sans-Serif" font-size="10.00">cassert</text>
</g>
<!-- Node10&#45;&gt;Node16 -->
<g id="edge18" class="edge"><title>Node10&#45;&gt;Node16</title>
<path fill="none" stroke="midnightblue" d="M1568.45,-171.374C1496.09,-160.814 1341,-138.178 1271.7,-128.064"/>
<polygon fill="midnightblue" stroke="midnightblue" points="1272.13,-124.589 1261.72,-126.608 1271.11,-131.516 1272.13,-124.589"/>
</g>
<!-- Node17 -->
<g id="node17" class="node"><title>Node17</title>
<polygon fill="white" stroke="#bfbfbf" points="1797,-112.5 1797,-131.5 1849,-131.5 1849,-112.5 1797,-112.5"/>
<text text-anchor="middle" x="1823" y="-119.5" font-family="Helvetica,sans-Serif" font-size="10.00">mutex.h</text>
</g>
<!-- Node10&#45;&gt;Node17 -->
<g id="edge20" class="edge"><title>Node10&#45;&gt;Node17</title>
<path fill="none" stroke="midnightblue" d="M1641.23,-168.444C1681.03,-158.492 1746.46,-142.136 1787.01,-131.999"/>
<polygon fill="midnightblue" stroke="midnightblue" points="1787.9,-135.384 1796.75,-129.563 1786.2,-128.593 1787.9,-135.384"/>
</g>
<!-- Node18 -->
<g id="node18" class="node"><title>Node18</title>
<g id="a_node18"><a xlink:href="_i_plug_utilities_8h.html" target="_top" xlink:title="Utility functions and macros. ">
<polygon fill="white" stroke="black" points="1356,-112.5 1356,-131.5 1436,-131.5 1436,-112.5 1356,-112.5"/>
<text text-anchor="middle" x="1396" y="-119.5" font-family="Helvetica,sans-Serif" font-size="10.00">IPlugUtilities.h</text>
</a>
</g>
</g>
<!-- Node10&#45;&gt;Node18 -->
<g id="edge22" class="edge"><title>Node10&#45;&gt;Node18</title>
<path fill="none" stroke="midnightblue" d="M1573.57,-168.444C1537.14,-159.122 1478.77,-144.183 1438.97,-133.997"/>
<polygon fill="midnightblue" stroke="midnightblue" points="1439.83,-130.605 1429.28,-131.516 1438.1,-137.387 1439.83,-130.605"/>
</g>
<!-- Node18&#45;&gt;Node3 -->
<g id="edge27" class="edge"><title>Node18&#45;&gt;Node3</title>
<path fill="none" stroke="midnightblue" d="M1394.14,-112.285C1390.65,-98.1319 1381.7,-70.2973 1363,-56 1334.56,-34.2562 1232.8,-20.3457 1179.34,-14.3699"/>
<polygon fill="midnightblue" stroke="midnightblue" points="1179.65,-10.883 1169.33,-13.2806 1178.9,-17.8419 1179.65,-10.883"/>
</g>
<!-- Node18&#45;&gt;Node4 -->
<g id="edge26" class="edge"><title>Node18&#45;&gt;Node4</title>
<path fill="none" stroke="midnightblue" d="M1385.16,-112.44C1365.78,-97.7106 1323.35,-68.001 1282,-56 1191.16,-29.6378 509.856,-14.7444 351.716,-11.621"/>
<polygon fill="midnightblue" stroke="midnightblue" points="351.724,-8.12054 341.657,-11.4243 351.587,-15.1192 351.724,-8.12054"/>
</g>
<!-- Node18&#45;&gt;Node5 -->
<g id="edge31" class="edge"><title>Node18&#45;&gt;Node5</title>
<path fill="none" stroke="midnightblue" d="M1355.73,-117.87C1331,-116.011 1298.68,-113.694 1270,-112 927.557,-91.7782 841.64,-92.5653 499,-76 456.049,-73.9235 407.337,-71.4826 371.428,-69.6671"/>
<polygon fill="midnightblue" stroke="midnightblue" points="371.351,-66.1588 361.187,-69.1487 370.997,-73.1499 371.351,-66.1588"/>
</g>
<!-- Node18&#45;&gt;Node6 -->
<g id="edge29" class="edge"><title>Node18&#45;&gt;Node6</title>
<path fill="none" stroke="midnightblue" d="M1355.97,-113.789C1351.27,-113.103 1346.54,-112.484 1342,-112 1007.08,-76.2514 919.302,-117.144 585,-76 584.101,-75.8893 583.192,-75.7707 582.277,-75.645"/>
<polygon fill="midnightblue" stroke="midnightblue" points="582.775,-72.1803 572.351,-74.0728 581.68,-79.0941 582.775,-72.1803"/>
</g>
<!-- Node18&#45;&gt;Node9 -->
<g id="edge30" class="edge"><title>Node18&#45;&gt;Node9</title>
<path fill="none" stroke="midnightblue" d="M1436.02,-116.852C1528.03,-107.316 1754.83,-83.8083 1860.78,-72.8274"/>
<polygon fill="midnightblue" stroke="midnightblue" points="1861.36,-76.2855 1870.95,-71.7731 1860.64,-69.3228 1861.36,-76.2855"/>
</g>
<!-- Node18&#45;&gt;Node11 -->
<g id="edge25" class="edge"><title>Node18&#45;&gt;Node11</title>
<path fill="none" stroke="midnightblue" d="M1409.98,-112.324C1423.55,-103.9 1444.38,-90.9709 1460.32,-81.0741"/>
<polygon fill="midnightblue" stroke="midnightblue" points="1462.41,-83.9019 1469.06,-75.6545 1458.71,-77.9544 1462.41,-83.9019"/>
</g>
<!-- Node18&#45;&gt;Node12 -->
<g id="edge28" class="edge"><title>Node18&#45;&gt;Node12</title>
<path fill="none" stroke="midnightblue" d="M1428.96,-112.444C1467.87,-102.343 1532.18,-85.6449 1571.08,-75.5478"/>
<polygon fill="midnightblue" stroke="midnightblue" points="1572.06,-78.909 1580.86,-73.0084 1570.3,-72.1336 1572.06,-78.909"/>
</g>
<!-- Node19 -->
<g id="node19" class="node"><title>Node19</title>
<polygon fill="white" stroke="#bfbfbf" points="1218,-56.5 1218,-75.5 1274,-75.5 1274,-56.5 1218,-56.5"/>
<text text-anchor="middle" x="1246" y="-63.5" font-family="Helvetica,sans-Serif" font-size="10.00">algorithm</text>
</g>
<!-- Node18&#45;&gt;Node19 -->
<g id="edge23" class="edge"><title>Node18&#45;&gt;Node19</title>
<path fill="none" stroke="midnightblue" d="M1372.23,-112.444C1347.11,-103.399 1307.29,-89.064 1279.1,-78.9158"/>
<polygon fill="midnightblue" stroke="midnightblue" points="1280.25,-75.6106 1269.66,-75.5164 1277.88,-82.1968 1280.25,-75.6106"/>
</g>
<!-- Node20 -->
<g id="node20" class="node"><title>Node20</title>
<polygon fill="white" stroke="#bfbfbf" points="594,-56.5 594,-75.5 638,-75.5 638,-56.5 594,-56.5"/>
<text text-anchor="middle" x="616" y="-63.5" font-family="Helvetica,sans-Serif" font-size="10.00">cmath</text>
</g>
<!-- Node18&#45;&gt;Node20 -->
<g id="edge24" class="edge"><title>Node18&#45;&gt;Node20</title>
<path fill="none" stroke="midnightblue" d="M1355.96,-113.854C1351.26,-113.156 1346.53,-112.517 1342,-112 1075.06,-81.5648 750.397,-70.637 648.309,-67.8132"/>
<polygon fill="midnightblue" stroke="midnightblue" points="648.141,-64.3075 638.05,-67.5363 647.952,-71.3049 648.141,-64.3075"/>
</g>
<!-- Node21&#45;&gt;Node5 -->
<g id="edge33" class="edge"><title>Node21&#45;&gt;Node5</title>
<path fill="none" stroke="midnightblue" d="M217.173,-112.444C236.909,-103.636 267.885,-89.8116 290.493,-79.722"/>
<polygon fill="midnightblue" stroke="midnightblue" points="292.211,-82.788 299.917,-75.5164 289.359,-76.3957 292.211,-82.788"/>
</g>
<!-- Node22&#45;&gt;Node5 -->
<g id="edge45" class="edge"><title>Node22&#45;&gt;Node5</title>
<path fill="none" stroke="midnightblue" d="M641.827,-168.46C579.675,-148.926 427.063,-100.963 356.233,-78.7018"/>
<polygon fill="midnightblue" stroke="midnightblue" points="356.986,-75.2697 346.397,-75.6104 354.887,-81.9477 356.986,-75.2697"/>
</g>
<!-- Node22&#45;&gt;Node6 -->
<g id="edge42" class="edge"><title>Node22&#45;&gt;Node6</title>
<path fill="none" stroke="midnightblue" d="M658.878,-168.368C637.024,-149.733 585.188,-105.532 557.748,-82.1338"/>
<polygon fill="midnightblue" stroke="midnightblue" points="559.956,-79.4167 550.075,-75.5914 555.414,-84.7431 559.956,-79.4167"/>
</g>
<!-- Node22&#45;&gt;Node7 -->
<g id="edge43" class="edge"><title>Node22&#45;&gt;Node7</title>
<path fill="none" stroke="midnightblue" d="M619.741,-170.643C561.012,-162.797 459.994,-148.457 374,-132 372.55,-131.722 371.071,-131.429 369.58,-131.124"/>
<polygon fill="midnightblue" stroke="midnightblue" points="370.211,-127.68 359.698,-128.995 368.737,-134.523 370.211,-127.68"/>
</g>
<!-- Node22&#45;&gt;Node16 -->
<g id="edge36" class="edge"><title>Node22&#45;&gt;Node16</title>
<path fill="none" stroke="midnightblue" d="M718.413,-172.302C831.188,-161.581 1105.27,-135.523 1202.27,-126.301"/>
<polygon fill="midnightblue" stroke="midnightblue" points="1202.79,-129.768 1212.42,-125.337 1202.13,-122.799 1202.79,-129.768"/>
</g>
<!-- Node22&#45;&gt;Node19 -->
<g id="edge38" class="edge"><title>Node22&#45;&gt;Node19</title>
<path fill="none" stroke="midnightblue" d="M666.427,-168.441C662.825,-154.514 658.256,-126.995 673,-112 710.431,-73.9309 1085.73,-68.063 1207.83,-67.1622"/>
<polygon fill="midnightblue" stroke="midnightblue" points="1207.87,-70.6622 1217.85,-67.0955 1207.83,-63.6623 1207.87,-70.6622"/>
</g>
<!-- Node22&#45;&gt;Node20 -->
<g id="edge35" class="edge"><title>Node22&#45;&gt;Node20</title>
<path fill="none" stroke="midnightblue" d="M662.627,-168.375C656.31,-159.557 646.643,-145.305 640,-132 632.443,-116.865 625.947,-98.7444 621.626,-85.485"/>
<polygon fill="midnightblue" stroke="midnightblue" points="624.875,-84.1494 618.532,-75.6627 618.198,-86.2522 624.875,-84.1494"/>
</g>
<!-- Node22&#45;&gt;Node21 -->
<g id="edge46" class="edge"><title>Node22&#45;&gt;Node21</title>
<path fill="none" stroke="midnightblue" d="M619.928,-171.374C534.906,-161.626 360.146,-141.59 264.374,-130.61"/>
<polygon fill="midnightblue" stroke="midnightblue" points="264.561,-127.108 254.227,-129.446 263.763,-134.063 264.561,-127.108"/>
</g>
<!-- Node23 -->
<g id="node23" class="node"><title>Node23</title>
<polygon fill="white" stroke="#bfbfbf" points="956.5,-112.5 956.5,-131.5 1015.5,-131.5 1015.5,-112.5 956.5,-112.5"/>
<text text-anchor="middle" x="986" y="-119.5" font-family="Helvetica,sans-Serif" font-size="10.00">functional</text>
</g>
<!-- Node22&#45;&gt;Node23 -->
<g id="edge37" class="edge"><title>Node22&#45;&gt;Node23</title>
<path fill="none" stroke="midnightblue" d="M718.194,-169.923C773.699,-161.727 866.597,-147.368 946,-132 946.105,-131.98 946.21,-131.959 946.315,-131.939"/>
<polygon fill="midnightblue" stroke="midnightblue" points="947.242,-135.322 956.335,-129.884 945.835,-128.464 947.242,-135.322"/>
</g>
<!-- Node24 -->
<g id="node24" class="node"><title>Node24</title>
<polygon fill="white" stroke="#bfbfbf" points="682.5,-112.5 682.5,-131.5 733.5,-131.5 733.5,-112.5 682.5,-112.5"/>
<text text-anchor="middle" x="708" y="-119.5" font-family="Helvetica,sans-Serif" font-size="10.00">numeric</text>
</g>
<!-- Node22&#45;&gt;Node24 -->
<g id="edge39" class="edge"><title>Node22&#45;&gt;Node24</title>
<path fill="none" stroke="midnightblue" d="M675.44,-168.083C680.949,-160.455 689.031,-149.264 695.765,-139.941"/>
<polygon fill="midnightblue" stroke="midnightblue" points="698.662,-141.907 701.68,-131.751 692.987,-137.809 698.662,-141.907"/>
</g>
<!-- Node25 -->
<g id="node25" class="node"><title>Node25</title>
<polygon fill="white" stroke="#bfbfbf" points="752,-112.5 752,-131.5 798,-131.5 798,-112.5 752,-112.5"/>
<text text-anchor="middle" x="775" y="-119.5" font-family="Helvetica,sans-Serif" font-size="10.00">chrono</text>
</g>
<!-- Node22&#45;&gt;Node25 -->
<g id="edge40" class="edge"><title>Node22&#45;&gt;Node25</title>
<path fill="none" stroke="midnightblue" d="M686.031,-168.324C703.03,-159.664 729.376,-146.242 748.993,-136.249"/>
<polygon fill="midnightblue" stroke="midnightblue" points="750.69,-139.312 758.012,-131.655 747.512,-133.075 750.69,-139.312"/>
</g>
<!-- Node26 -->
<g id="node26" class="node"><title>Node26</title>
<polygon fill="white" stroke="#bfbfbf" points="816.5,-112.5 816.5,-131.5 857.5,-131.5 857.5,-112.5 816.5,-112.5"/>
<text text-anchor="middle" x="837" y="-119.5" font-family="Helvetica,sans-Serif" font-size="10.00">string</text>
</g>
<!-- Node22&#45;&gt;Node26 -->
<g id="edge41" class="edge"><title>Node22&#45;&gt;Node26</title>
<path fill="none" stroke="midnightblue" d="M695.62,-168.444C725.842,-158.729 775.047,-142.913 806.712,-132.735"/>
<polygon fill="midnightblue" stroke="midnightblue" points="807.881,-136.036 816.33,-129.644 805.739,-129.372 807.881,-136.036"/>
</g>
<!-- Node27 -->
<g id="node27" class="node"><title>Node27</title>
<polygon fill="white" stroke="#bfbfbf" points="876,-112.5 876,-131.5 938,-131.5 938,-112.5 876,-112.5"/>
<text text-anchor="middle" x="907" y="-119.5" font-family="Helvetica,sans-Serif" font-size="10.00">nanosvg.h</text>
</g>
<!-- Node22&#45;&gt;Node27 -->
<g id="edge44" class="edge"><title>Node22&#45;&gt;Node27</title>
<path fill="none" stroke="midnightblue" d="M706.712,-168.444C750.123,-158.594 821.182,-142.471 865.953,-132.313"/>
<polygon fill="midnightblue" stroke="midnightblue" points="866.934,-135.68 875.911,-130.054 865.385,-128.853 866.934,-135.68"/>
</g>
<!-- Node28&#45;&gt;Node21 -->
<g id="edge48" class="edge"><title>Node28&#45;&gt;Node21</title>
<path fill="none" stroke="midnightblue" d="M262.507,-224.368C251.006,-206.296 224.203,-164.176 209.014,-140.307"/>
<polygon fill="midnightblue" stroke="midnightblue" points="211.789,-138.149 203.467,-131.591 205.883,-141.907 211.789,-138.149"/>
</g>
<!-- Node28&#45;&gt;Node22 -->
<g id="edge49" class="edge"><title>Node28&#45;&gt;Node22</title>
<path fill="none" stroke="midnightblue" d="M318.381,-226.216C392.464,-216.239 530.528,-197.647 609.498,-187.013"/>
<polygon fill="midnightblue" stroke="midnightblue" points="610.323,-190.433 619.767,-185.63 609.389,-183.496 610.323,-190.433"/>
</g>
<!-- Node29&#45;&gt;Node3 -->
<g id="edge52" class="edge"><title>Node29&#45;&gt;Node3</title>
<path fill="none" stroke="midnightblue" d="M497.895,-168.191C492.245,-159.46 484.245,-145.478 481,-132 472.875,-98.252 471.676,-77.4091 499,-56 547.551,-17.9587 986.975,-12.0711 1112.6,-11.1642"/>
<polygon fill="midnightblue" stroke="midnightblue" points="1112.79,-14.6631 1122.76,-11.0969 1112.74,-7.66325 1112.79,-14.6631"/>
</g>
<!-- Node29&#45;&gt;Node6 -->
<g id="edge55" class="edge"><title>Node29&#45;&gt;Node6</title>
<path fill="none" stroke="midnightblue" d="M498.308,-168.246C490.747,-155.431 479.304,-131.026 488,-112 493.777,-99.3602 505.052,-88.911 515.631,-81.2737"/>
<polygon fill="midnightblue" stroke="midnightblue" points="517.849,-84.0009 524.217,-75.5333 513.958,-78.1817 517.849,-84.0009"/>
</g>
<!-- Node29&#45;&gt;Node7 -->
<g id="edge56" class="edge"><title>Node29&#45;&gt;Node7</title>
<path fill="none" stroke="midnightblue" d="M477.221,-168.444C448.079,-159.132 401.391,-144.214 369.516,-134.029"/>
<polygon fill="midnightblue" stroke="midnightblue" points="370.32,-130.611 359.729,-130.902 368.189,-137.279 370.32,-130.611"/>
</g>
<!-- Node29&#45;&gt;Node11 -->
<g id="edge53" class="edge"><title>Node29&#45;&gt;Node11</title>
<path fill="none" stroke="midnightblue" d="M563.675,-171.547C579.083,-170.258 595.651,-168.976 611,-168 703.566,-162.112 1365.56,-179.883 1445,-132 1462.1,-121.692 1472.32,-100.544 1477.79,-85.161"/>
<polygon fill="midnightblue" stroke="midnightblue" points="1481.12,-86.2278 1480.84,-75.6368 1474.45,-84.0937 1481.12,-86.2278"/>
</g>
<!-- Node29&#45;&gt;Node16 -->
<g id="edge54" class="edge"><title>Node29&#45;&gt;Node16</title>
<path fill="none" stroke="midnightblue" d="M563.695,-171.827C579.102,-170.534 595.666,-169.18 611,-168 840.213,-150.365 897.767,-149.374 1127,-132 1152.12,-130.096 1180.46,-127.774 1202.07,-125.965"/>
<polygon fill="midnightblue" stroke="midnightblue" points="1202.43,-129.447 1212.1,-125.122 1201.85,-122.472 1202.43,-129.447"/>
</g>
<!-- Node29&#45;&gt;Node20 -->
<g id="edge51" class="edge"><title>Node29&#45;&gt;Node20</title>
<path fill="none" stroke="midnightblue" d="M512.788,-168.368C531.599,-149.894 575.993,-106.293 599.97,-82.7436"/>
<polygon fill="midnightblue" stroke="midnightblue" points="602.57,-85.0956 607.252,-75.5914 597.665,-80.1015 602.57,-85.0956"/>
</g>
<!-- Node31 -->
<g id="node31" class="node"><title>Node31</title>
<g id="a_node31"><a xlink:href="_i_plug_editor_delegate_8h.html" target="_top" xlink:title="This pure virtual interface delegates communication in both directions between a UI editor and someth...">
<polygon fill="white" stroke="black" points="1065,-336.5 1065,-355.5 1177,-355.5 1177,-336.5 1065,-336.5"/>
<text text-anchor="middle" x="1121" y="-343.5" font-family="Helvetica,sans-Serif" font-size="10.00">IPlugEditorDelegate.h</text>
</a>
</g>
</g>
<!-- Node30&#45;&gt;Node31 -->
<g id="edge58" class="edge"><title>Node30&#45;&gt;Node31</title>
<path fill="none" stroke="midnightblue" d="M901.356,-392.444C947.078,-382.984 1020.76,-367.738 1070.02,-357.547"/>
<polygon fill="midnightblue" stroke="midnightblue" points="1070.75,-360.97 1079.84,-355.516 1069.34,-354.115 1070.75,-360.97"/>
</g>
<!-- Node31&#45;&gt;Node3 -->
<g id="edge60" class="edge"><title>Node31&#45;&gt;Node3</title>
<path fill="none" stroke="midnightblue" d="M1177.08,-343.829C1369.48,-339.077 1991,-317.355 1991,-235 1991,-235 1991,-235 1991,-121 1991,-90.9022 1995.58,-74.7002 1972,-56 1940.44,-30.9748 1329.73,-15.2495 1179.28,-11.7452"/>
<polygon fill="midnightblue" stroke="midnightblue" points="1179.33,-8.24567 1169.25,-11.5141 1179.17,-15.2438 1179.33,-8.24567"/>
</g>
<!-- Node31&#45;&gt;Node7 -->
<g id="edge62" class="edge"><title>Node31&#45;&gt;Node7</title>
<path fill="none" stroke="midnightblue" d="M1064.91,-341.64C955.092,-333.797 705.084,-309.684 506,-244 454.278,-226.935 440.626,-220.604 397,-188 378.172,-173.929 360.024,-153.896 348.28,-139.799"/>
<polygon fill="midnightblue" stroke="midnightblue" points="350.874,-137.441 341.848,-131.894 345.445,-141.86 350.874,-137.441"/>
</g>
<!-- Node31&#45;&gt;Node16 -->
<g id="edge59" class="edge"><title>Node31&#45;&gt;Node16</title>
<path fill="none" stroke="midnightblue" d="M1154.42,-336.428C1173.7,-329.72 1196.69,-318.367 1210,-300 1244.9,-251.83 1242.71,-176.769 1239.38,-141.939"/>
<polygon fill="midnightblue" stroke="midnightblue" points="1242.83,-141.322 1238.26,-131.766 1235.88,-142.089 1242.83,-141.322"/>
</g>
<!-- Node32 -->
<g id="node32" class="node"><title>Node32</title>
<polygon fill="white" stroke="#bfbfbf" points="1055.5,-280.5 1055.5,-299.5 1104.5,-299.5 1104.5,-280.5 1055.5,-280.5"/>
<text text-anchor="middle" x="1080" y="-287.5" font-family="Helvetica,sans-Serif" font-size="10.00">stdint.h</text>
</g>
<!-- Node31&#45;&gt;Node32 -->
<g id="edge61" class="edge"><title>Node31&#45;&gt;Node32</title>
<path fill="none" stroke="midnightblue" d="M1114.23,-336.083C1108.44,-328.455 1099.94,-317.264 1092.86,-307.941"/>
<polygon fill="midnightblue" stroke="midnightblue" points="1095.48,-305.599 1086.64,-299.751 1089.9,-309.832 1095.48,-305.599"/>
</g>
<!-- Node33 -->
<g id="node33" class="node"><title>Node33</title>
<g id="a_node33"><a xlink:href="_i_plug_parameter_8h.html" target="_top" xlink:title="IPlug&#39;s parameter class. ">
<polygon fill="white" stroke="black" points="1023,-168.5 1023,-187.5 1115,-187.5 1115,-168.5 1023,-168.5"/>
<text text-anchor="middle" x="1069" y="-175.5" font-family="Helvetica,sans-Serif" font-size="10.00">IPlugParameter.h</text>
</a>
</g>
</g>
<!-- Node31&#45;&gt;Node33 -->
<g id="edge63" class="edge"><title>Node31&#45;&gt;Node33</title>
<path fill="none" stroke="midnightblue" d="M1093.72,-336.453C1076.71,-329.548 1056.17,-317.971 1046,-300 1027.2,-266.801 1045.78,-221.104 1058.76,-196.456"/>
<polygon fill="midnightblue" stroke="midnightblue" points="1061.91,-197.997 1063.7,-187.554 1055.79,-194.602 1061.91,-197.997"/>
</g>
<!-- Node31&#45;&gt;Node35 -->
<g id="edge69" class="edge"><title>Node31&#45;&gt;Node35</title>
<path fill="none" stroke="midnightblue" d="M1148.56,-336.46C1211.6,-316.926 1366.39,-268.963 1438.24,-246.702"/>
<polygon fill="midnightblue" stroke="midnightblue" points="1439.7,-249.913 1448.21,-243.61 1437.62,-243.227 1439.7,-249.913"/>
</g>
<!-- Node36 -->
<g id="node36" class="node"><title>Node36</title>
<g id="a_node36"><a xlink:href="_i_plug_structs_8h_source.html" target="_top" xlink:title="IPlugStructs.h">
<polygon fill="white" stroke="black" points="1122.5,-280.5 1122.5,-299.5 1201.5,-299.5 1201.5,-280.5 1122.5,-280.5"/>
<text text-anchor="middle" x="1162" y="-287.5" font-family="Helvetica,sans-Serif" font-size="10.00">IPlugStructs.h</text>
</a>
</g>
</g>
<!-- Node31&#45;&gt;Node36 -->
<g id="edge75" class="edge"><title>Node31&#45;&gt;Node36</title>
<path fill="none" stroke="midnightblue" d="M1127.77,-336.083C1133.56,-328.455 1142.06,-317.264 1149.14,-307.941"/>
<polygon fill="midnightblue" stroke="midnightblue" points="1152.1,-309.832 1155.36,-299.751 1146.52,-305.599 1152.1,-309.832"/>
</g>
<!-- Node33&#45;&gt;Node3 -->
<g id="edge65" class="edge"><title>Node33&#45;&gt;Node3</title>
<path fill="none" stroke="midnightblue" d="M1086.14,-168.403C1099.52,-160.745 1117.41,-148.242 1127,-132 1145.95,-99.9108 1147.86,-55.0528 1147.18,-29.9453"/>
<polygon fill="midnightblue" stroke="midnightblue" points="1150.66,-29.4656 1146.72,-19.6318 1143.67,-29.778 1150.66,-29.4656"/>
</g>
<!-- Node33&#45;&gt;Node6 -->
<g id="edge67" class="edge"><title>Node33&#45;&gt;Node6</title>
<path fill="none" stroke="midnightblue" d="M1065.89,-168.408C1060.14,-153.908 1046.35,-124.9 1024,-112 939.228,-63.0638 681.931,-89.621 585,-76 584.103,-75.8739 583.196,-75.7412 582.283,-75.6028"/>
<polygon fill="midnightblue" stroke="midnightblue" points="582.81,-72.1424 572.369,-73.9386 581.651,-79.0458 582.81,-72.1424"/>
</g>
<!-- Node33&#45;&gt;Node18 -->
<g id="edge68" class="edge"><title>Node33&#45;&gt;Node18</title>
<path fill="none" stroke="midnightblue" d="M1115.16,-169.378C1176.03,-159.326 1282.76,-141.7 1345.65,-131.314"/>
<polygon fill="midnightblue" stroke="midnightblue" points="1346.44,-134.732 1355.73,-129.65 1345.3,-127.826 1346.44,-134.732"/>
</g>
<!-- Node33&#45;&gt;Node23 -->
<g id="edge66" class="edge"><title>Node33&#45;&gt;Node23</title>
<path fill="none" stroke="midnightblue" d="M1055.66,-168.324C1042.84,-159.979 1023.22,-147.212 1008.06,-137.352"/>
<polygon fill="midnightblue" stroke="midnightblue" points="1009.59,-134.174 999.302,-131.655 1005.78,-140.042 1009.59,-134.174"/>
</g>
<!-- Node34 -->
<g id="node34" class="node"><title>Node34</title>
<polygon fill="white" stroke="#bfbfbf" points="1072,-112.5 1072,-131.5 1118,-131.5 1118,-112.5 1072,-112.5"/>
<text text-anchor="middle" x="1095" y="-119.5" font-family="Helvetica,sans-Serif" font-size="10.00">atomic</text>
</g>
<!-- Node33&#45;&gt;Node34 -->
<g id="edge64" class="edge"><title>Node33&#45;&gt;Node34</title>
<path fill="none" stroke="midnightblue" d="M1073.29,-168.083C1076.85,-160.691 1082.02,-149.953 1086.42,-140.811"/>
<polygon fill="midnightblue" stroke="midnightblue" points="1089.6,-142.279 1090.79,-131.751 1083.29,-139.243 1089.6,-142.279"/>
</g>
<!-- Node35&#45;&gt;Node10 -->
<g id="edge74" class="edge"><title>Node35&#45;&gt;Node10</title>
<path fill="none" stroke="midnightblue" d="M1496.76,-224.444C1518.32,-215.557 1552.26,-201.563 1576.79,-191.451"/>
<polygon fill="midnightblue" stroke="midnightblue" points="1578.43,-194.563 1586.34,-187.516 1575.76,-188.092 1578.43,-194.563"/>
</g>
<!-- Node35&#45;&gt;Node11 -->
<g id="edge72" class="edge"><title>Node35&#45;&gt;Node11</title>
<path fill="none" stroke="midnightblue" d="M1476.38,-224.075C1477.48,-197.945 1480.71,-121.211 1482.22,-85.577"/>
<polygon fill="midnightblue" stroke="midnightblue" points="1485.71,-85.7067 1482.64,-75.5681 1478.72,-85.4117 1485.71,-85.7067"/>
</g>
<!-- Node35&#45;&gt;Node14 -->
<g id="edge71" class="edge"><title>Node35&#45;&gt;Node14</title>
<path fill="none" stroke="midnightblue" d="M1484.54,-224.496C1493.07,-215.772 1506.25,-201.592 1516,-188 1526.85,-172.864 1537.16,-154.283 1544.13,-140.87"/>
<polygon fill="midnightblue" stroke="midnightblue" points="1547.34,-142.263 1548.75,-131.763 1541.1,-139.091 1547.34,-142.263"/>
</g>
<!-- Node35&#45;&gt;Node16 -->
<g id="edge70" class="edge"><title>Node35&#45;&gt;Node16</title>
<path fill="none" stroke="midnightblue" d="M1443.41,-231.106C1404.69,-227.551 1339.4,-217.335 1292,-188 1272.82,-176.13 1256.97,-155.32 1247.29,-140.442"/>
<polygon fill="midnightblue" stroke="midnightblue" points="1250.09,-138.326 1241.84,-131.676 1244.14,-142.018 1250.09,-138.326"/>
</g>
<!-- Node35&#45;&gt;Node19 -->
<g id="edge73" class="edge"><title>Node35&#45;&gt;Node19</title>
<path fill="none" stroke="midnightblue" d="M1463.96,-224.309C1426.7,-197.416 1312.99,-115.352 1266.32,-81.6665"/>
<polygon fill="midnightblue" stroke="midnightblue" points="1268.08,-78.6195 1257.92,-75.6051 1263.98,-84.2955 1268.08,-78.6195"/>
</g>
<!-- Node36&#45;&gt;Node5 -->
<g id="edge80" class="edge"><title>Node36&#45;&gt;Node5</title>
<path fill="none" stroke="midnightblue" d="M1122.48,-281.313C1119.28,-280.821 1116.09,-280.374 1113,-280 844.706,-247.528 766.682,-315.281 506,-244 405.854,-216.616 352.71,-222.029 301,-132 292.459,-117.13 299.581,-98.0002 307.241,-84.3517"/>
<polygon fill="midnightblue" stroke="midnightblue" points="310.418,-85.8682 312.697,-75.5214 304.463,-82.1888 310.418,-85.8682"/>
</g>
<!-- Node36&#45;&gt;Node6 -->
<g id="edge77" class="edge"><title>Node36&#45;&gt;Node6</title>
<path fill="none" stroke="midnightblue" d="M1122.42,-281.729C1119.23,-281.144 1116.06,-280.562 1113,-280 889.897,-239.067 796.826,-318.073 611,-188 574.873,-162.712 554.333,-112.67 545.403,-85.5372"/>
<polygon fill="midnightblue" stroke="midnightblue" points="548.673,-84.2629 542.363,-75.7516 541.988,-86.3398 548.673,-84.2629"/>
</g>
<!-- Node36&#45;&gt;Node7 -->
<g id="edge78" class="edge"><title>Node36&#45;&gt;Node7</title>
<path fill="none" stroke="midnightblue" d="M1122.48,-281.34C1119.28,-280.842 1116.09,-280.386 1113,-280 876.527,-250.426 810.56,-296.059 578,-244 511.393,-229.09 495.705,-219.204 435,-188 405.775,-172.977 374.355,-151.602 354.693,-137.522"/>
<polygon fill="midnightblue" stroke="midnightblue" points="356.688,-134.646 346.536,-131.616 352.583,-140.316 356.688,-134.646"/>
</g>
<!-- Node36&#45;&gt;Node9 -->
<g id="edge79" class="edge"><title>Node36&#45;&gt;Node9</title>
<path fill="none" stroke="midnightblue" d="M1201.72,-285.926C1267.68,-280.383 1403.78,-267.092 1517,-244 1695.8,-207.535 1796.46,-273.239 1912,-132 1922.4,-119.281 1922.62,-100.082 1920.85,-85.8439"/>
<polygon fill="midnightblue" stroke="midnightblue" points="1924.26,-84.9987 1919.17,-75.7075 1917.35,-86.1459 1924.26,-84.9987"/>
</g>
<!-- Node36&#45;&gt;Node18 -->
<g id="edge82" class="edge"><title>Node36&#45;&gt;Node18</title>
<path fill="none" stroke="midnightblue" d="M1174.25,-280.309C1212.24,-253.36 1328.32,-171.01 1375.62,-137.457"/>
<polygon fill="midnightblue" stroke="midnightblue" points="1377.74,-140.246 1383.87,-131.605 1373.69,-134.536 1377.74,-140.246"/>
</g>
<!-- Node36&#45;&gt;Node19 -->
<g id="edge76" class="edge"><title>Node36&#45;&gt;Node19</title>
<path fill="none" stroke="midnightblue" d="M1162.49,-280.341C1164.33,-253.671 1172.37,-171.015 1204,-112 1209.97,-100.865 1219.38,-90.4174 1227.78,-82.3973"/>
<polygon fill="midnightblue" stroke="midnightblue" points="1230.33,-84.817 1235.39,-75.5085 1225.63,-79.6299 1230.33,-84.817"/>
</g>
<!-- Node36&#45;&gt;Node35 -->
<g id="edge81" class="edge"><title>Node36&#45;&gt;Node35</title>
<path fill="none" stroke="midnightblue" d="M1201.77,-282.161C1261.05,-271.966 1372.14,-252.862 1433.15,-242.369"/>
<polygon fill="midnightblue" stroke="midnightblue" points="1433.96,-245.782 1443.22,-240.637 1432.77,-238.883 1433.96,-245.782"/>
</g>
</g>
</svg>
